{
.appVersion = "3337";
.formatVersion = 3;
classes = (
{
automatic = 1;

glyphs = (
{
glyphname = A;
kernLeft = A;
kernRight = A;
lastChange = "2025-01-06 14:17:27 +0000";
layers = (
{
anchors = (
{
name = bottom;
pos = (279,0);
},
{
name = ogonek;
pos = (514,10);
},
{
name = top;
pos = (274,660);
}
);
layerId = "C5490108-C233-4ADF-8B6D-CFE8E3B23812";
shapes = (
{
closed = 1;
nodes = (
(534,28,o),
(531,44,o),
(523,55,c),
(521,71,o),
(514,85,o),
(507,96,c),
(503,110,o),
(496,123,o),
(490,136,c),
(491,148,o),
(485,154,o),
(485,163,c),
(476,173,o),
(467,181,o),
(464,195,cs),
(463,200,o),
(465,204,o),
(462,211,cs),
(459,218,o),
(455,223,o),
(454,232,c),
(447,239,o),
(444,251,o),
(438,259,c),
(434,276,o),
(428,288,o),
(420,301,c),
(411,323,o),
(401,343,o),
(393,367,cs),
(391,372,o),
(389,377,o),
(388,383,c),
(385,389,o),
(380,391,o),
(380,400,c),
(373,409,o),
(370,422,o),
(363,431,c),
(363,444,o),
(357,450,o),
(352,458,cs),
(351,462,o),
(349,466,o),
(345,468,c),
(343,473,o),
(337,486,o),
(338,493,c),
(335,506,o),
(329,517,o),
(320,524,c),
(322,526,o),
(321,533,o),
(321,538,c),
(316,545,o),
(314,555,o),
(310,563,cs),
(309,566,o),
(307,569,o),
(308,574,c),
(297,590,o),
(292,612,o),
(287,634,c),
(279,639,o),
(282,656,o),
(269,657,c),
(257,653,o),
(256,637,o),
(253,624,cs),
(249,612,o),
(243,599,o),
(242,585,c),
(238,582,o),
(218,524,o),
(214,520,c),
(214,512,o),
(209,509,o),
(209,502,c),
(196,485,o),
(176,436,o),
(174,427,cs),
(171,417,o),
(154,364,o),
(147,358,c),
(146,351,o),
(143,338,o),
(142,335,cs),
(140,333,o),
(134,333,o),
(134,328,c),
(133,327,o),
(136,318,o),
(133,314,cs),
(129,308,o),
(120,286,o),
(116,283,c),
(117,276,o),
(105,251,o),
(101,242,c),
(98,227,o),
(87,219,o),
(86,200,c),
(78,192,o),
(77,177,o),
(68,167,c),
(66,152,o),
(61,139,o),
(55,127,c),
(52,125,o),
(53,120,o),
(53,115,c),
(38,101,o),
(36,73,o),
(24,55,c),
(23,45,o),
(21,34,o),
(19,24,c),
(25,14,o),
(39,7,o),
(55,12,c),
(65,38,o),
(74,63,o),
(86,86,c),
(86,92,o),
(86,98,o),
(87,102,cs),
(93,116,o),
(103,126,o),
(105,143,c),
(112,158,o),
(117,173,o),
(119,190,c),
(126,197,o),
(128,207,o),
(131,217,c),
(137,219,o),
(143,222,o),
(149,224,c),
(169,216,o),
(198,224,o),
(219,217,c),
(272,219,o),
(333,217,o),
(383,219,cs),
(390,219,o),
(390,222,o),
(398,221,c),
(402,219,o),
(408,218,o),
(411,214,c),
(413,205,o),
(417,198,o),
(417,187,c),
(427,180,o),
(430,166,o),
(433,153,c),
(438,148,o),
(441,143,o),
(444,136,cs),
(450,116,o),
(456,94,o),
(466,78,c),
(468,64,o),
(476,56,o),
(477,42,c),
(486,32,o),
(488,15,o),
(497,5,c),
(501,5,o),
(504,0,o),
(508,-2,c),
(521,-4,o),
(539,1,o),
(540,12,cs),
(540,15,l)
);
},
{
closed = 1;
nodes = (
(392,275,o),
(384,263,c),
(378,263,o),
(373,263,o),
(370,265,c),
(349,254,o),
(314,265,o),
(290,257,c),
(257,258,o),
(214,257,o),
(181,256,c),
(172,259,o),
(157,257,o),
(149,262,c),
(147,275,o),
(153,279,o),
(157,288,c),
(156,296,o),
(170,331,o),
(178,335,c),
(178,342,o),
(181,346,o),
(182,352,c),
(183,359,o),
(199,390,o),
(201,397,c),
(200,405,o),
(205,409,o),
(204,416,c),
(205,422,o),
(211,422,o),
(211,428,c),
(213,432,o),
(214,437,o),
(217,440,c),
(217,445,o),
(222,459,o),
(224,463,c),
(225,469,o),
(229,473,o),
(232,476,c),
(228,495,o),
(246,523,o),
(248,525,c),
(249,528,o),
(260,548,o),
(259,554,cs),
(258,560,o),
(265,561,o),
(267,566,c),
(279,561,o),
(281,547,o),
(284,533,c),
(286,528,o),
(292,527,o),
(295,523,c),
(295,509,o),
(298,498,o),
(303,488,cs),
(305,483,o),
(310,466,o),
(311,458,c),
(315,448,o),
(320,438,o),
(326,429,c),
(326,415,o),
(334,409,o),
(336,395,c),
(345,382,o),
(349,364,o),
(359,352,c),
(357,348,o),
(360,347,o),
(360,343,c),
(369,328,o),
(372,311,o),
(380,294,cs),
(383,286,o)
);
}
);
width = 559;
}
);
unicode = 65;
},
{
glyphname = Adieresis;
kernLeft = A;
kernRight = A;
lastChange = "2025-01-06 14:17:27 +0000";
layers = (
{
anchors = (
{
name = top;
pos = (272,847);
}
);
layerId = "C5490108-C233-4ADF-8B6D-CFE8E3B23812";
shapes = (
{
closed = 1;
nodes = (
(439,619,o),
(430,633,o),
(428,647,c),
(422,651,o),
(419,657,o),
(411,660,c),
(396,662,o),
(389,657,o),
(382,653,c),
(377,651,o),
(373,650,o),
(370,647,c),
(371,634,o),
(365,627,o),
(365,616,c),
(369,608,o),
(371,601,o),
(377,596,c),
(393,587,o),
(424,589,o),
(434,602,c)
);
},
{
closed = 1;
nodes = (
(119,599,o),
(128,596,o),
(135,590,c),
(143,591,o),
(149,589,o),
(156,589,c),
(169,597,o),
(181,606,o),
(184,624,c),
(175,630,o),
(178,647,o),
(169,653,c),
(153,658,o),
(130,656,o),
(122,645,c),
(121,630,o),
(110,622,o),
(114,606,c)
);
},
{
ref = A;
}
);
width = 559;
}
);
unicode = 196;
},
{
glyphname = AE;
kernLeft = A;
kernRight = E;
lastChange = "2025-01-06 14:17:27 +0000";
layers = (
{
anchors = (
{
name = bottom;
pos = (417,0);
},
{
name = top;
pos = (417,660);
}
);
layerId = "C5490108-C233-4ADF-8B6D-CFE8E3B23812";
shapes = (
{
closed = 1;
nodes = (
(832,37,o),
(827,47,o),
(825,59,c),
(817,63,o),
(809,67,o),
(801,69,c),
(776,64,o),
(736,69,o),
(711,62,c),
(692,63,o),
(677,63,o),
(656,63,cs),
(650,63,o),
(648,59,o),
(642,60,cs),
(622,62,o),
(608,60,o),
(591,63,c),
(586,61,o),
(578,63,o),
(573,60,c),
(564,65,o),
(556,63,o),
(546,60,c),
(539,65,o),
(535,72,o),
(533,83,c),
(526,88,o),
(525,100,o),
(523,108,c),
(519,113,o),
(516,118,o),
(513,123,c),
(504,154,o),
(491,180,o),
(477,205,c),
(475,223,o),
(468,236,o),
(461,247,c),
(454,264,o),
(449,281,o),
(440,295,c),
(436,315,o),
(425,328,o),
(422,348,c),
(437,352,o),
(452,344,o),
(468,343,cs),
(477,343,o),
(486,345,o),
(495,345,cs),
(504,345,o),
(512,342,o),
(521,345,c),
(526,343,o),
(531,341,o),
(537,340,c),
(568,342,o),
(601,346,o),
(633,340,c),
(643,343,o),
(657,341,o),
(667,345,c),
(680,345,o),
(694,346,o),
(697,355,c),
(697,364,o),
(692,371,o),
(688,377,cs),
(684,385,o),
(681,392,o),
(675,397,c),
(667,399,o),
(658,397,o),
(651,397,cs),
(646,397,o),
(641,399,o),
(636,399,cs),
(625,399,o),
(615,395,o),
(604,395,cs),
(599,395,o),
(595,397,o),
(589,397,cs),
(580,397,o),
(568,394,o),
(558,394,cs),
(553,394,o),
(547,395,o),
(542,395,cs),
(524,395,o),
(506,390,o),
(489,391,cs),
(485,391,o),
(480,392,o),
(476,392,cs),
(464,392,o),
(452,389,o),
(441,391,c),
(431,387,o),
(415,388,o),
(404,390,c),
(395,400,o),
(392,417,o),
(386,430,cs),
(380,444,o),
(374,457,o),
(371,473,c),
(365,479,o),
(362,487,o),
(359,494,cs),
(349,518,o),
(338,543,o),
(331,569,c),
(326,575,o),
(322,582,o),
(320,590,cs),
(319,599,o),
(309,605,o),
(314,615,c),
(319,618,o),
(325,613,o),
(331,613,cs),
(333,613,o),
(336,615,o),
(339,615,cs),
(343,614,o),
(347,613,o),
(350,613,cs),
(362,611,o),
(374,607,o),
(388,607,cs),
(395,606,o),
(402,608,o),
(409,608,cs),
(427,608,o),
(444,604,o),
(461,608,c),
(476,603,o),
(492,609,o),
(508,605,c),
(515,609,o),
(525,608,o),
(536,608,cs),
(543,608,o),
(546,601,o),
(555,602,cs),
(569,605,o),
(582,608,o),
(586,621,c),
(584,631,o),
(580,638,o),
(579,647,c),
(573,653,o),
(567,658,o),
(558,660,c),
(525,658,o),
(488,651,o),
(459,657,c),
(438,657,o),
(417,656,o),
(399,654,c),
(371,657,o),
(338,656,o),
(307,656,c),
(298,659,o),
(284,661,o),
(276,656,cs),
(268,650,o),
(267,636,o),
(263,625,cs),
(258,615,o),
(255,603,o),
(253,590,c),
(246,585,o),
(245,575,o),
(239,569,c),
(238,548,o),
(226,537,o),
(222,519,c),
(216,503,o),
(210,485,o),
(201,470,c),
(202,465,o),
(199,462,o),
(200,455,c),
(197,450,o),
(193,446,o),
(190,441,c),
(187,422,o),
(176,411,o),
(173,392,c),
(166,378,o),
(159,364,o),
(155,346,c),
(150,340,o),
(148,333,o),
(143,327,c),
(140,305,o),
(128,286,o),
(121,267,cs),
(117,257,o),
(114,247,o),
(110,237,cs),
(106,227,o),
(100,218,o),
(98,207,c),
(92,200,o),
(89,189,o),
(86,179,c),
(82,168,o),
(75,162,o),
(74,148,c),
(67,141,o),
(67,128,o),
(63,119,cs),
(58,109,o),
(50,100,o),
(50,88,c),
(42,78,o),
(34,67,o),
(34,48,c),
(29,44,o),
(28,38,o),
(25,31,c),
(25,24,o),
(17,22,o),
(19,12,c),
(24,3,o),
(32,-2,o),
(46,-3,c),
(59,0,o),
(67,7,o),
(74,13,c),
(78,20,o),
(80,28,o),
(85,31,c),
(86,39,o),
(82,40,o),
(85,46,c),
(91,49,o),
(91,60,o),
(98,63,c),
(99,73,o),
(106,77,o),
(108,86,c),
(112,86,o),
(109,94,o),
(110,98,c),
(115,103,o),
(117,109,o),
(123,114,c),
(122,122,o),
(124,125,o),
(126,129,c),
(132,130,o),
(128,141,o),
(131,144,cs),
(133,148,o),
(138,149,o),
(141,153,c),
(139,157,o),
(138,161,o),
(139,166,c),
(145,180,o),
(146,199,o),
(155,210,c),
(162,213,o),
(171,215,o),
(178,219,c),
(198,219,o),
(214,227,o),
(233,220,c),
(240,227,o),
(251,222,o),
(264,223,c),
(272,221,o),
(276,218,o),
(287,219,cs),
(296,219,o),
(301,223,o),
(310,225,c),
(338,224,o),
(362,228,o),
(389,229,c),
(397,225,o),
(406,222,o),
(416,220,c),
(425,204,o),
(432,187,o),
(440,169,c),
(440,155,o),
(447,147,o),
(447,134,c),
(454,125,o),
(463,119,o),
(466,108,cs),
(470,101,o),
(471,91,o),
(474,83,cs),
(479,69,o),
(487,58,o),
(489,44,c),
(496,32,o),
(504,23,o),
(508,10,c),
(518,5,o),
(526,-1,o),
(534,-8,c),
(542,-5,o),
(547,3,o),
(558,5,cs),
(569,7,o),
(580,5,o),
(591,3,c),
(607,3,o),
(627,6,o),
(646,7,cs),
(655,7,o),
(663,7,o),
(671,5,c),
(683,9,o),
(704,7,o),
(718,7,cs),
(728,6,o),
(737,9,o),
(747,10,c),
(764,1,o),
(783,5,o),
(802,2,c),
(809,3,o),
(814,8,o),
(822,10,c),
(827,12,o),
(837,13,o),
(838,21,cs),
(838,28,l)
);
},
{
closed = 1;
nodes = (
(388,266,o),
(357,279,o),
(338,272,c),
(332,272,o),
(327,274,o),
(321,275,c),
(308,274,o),
(295,273,o),
(281,273,cs),
(269,273,o),
(258,276,o),
(246,276,cs),
(238,276,o),
(230,273,o),
(221,273,cs),
(218,273,o),
(216,275,o),
(212,275,cs),
(207,275,o),
(200,271,o),
(193,275,c),
(182,275,o),
(176,271,o),
(170,277,c),
(170,282,o),
(172,286,o),
(175,291,cs),
(182,305,o),
(189,325,o),
(201,337,c),
(202,347,o),
(208,351,o),
(207,361,c),
(215,372,o),
(221,383,o),
(224,399,c),
(233,409,o),
(238,424,o),
(239,442,c),
(244,447,o),
(245,457,o),
(248,465,c),
(249,470,o),
(254,472,o),
(257,475,c),
(257,483,o),
(261,486,o),
(264,491,c),
(264,504,l),
(270,507,o),
(268,519,o),
(274,523,c),
(274,536,o),
(276,546,o),
(287,548,c),
(295,542,o),
(299,529,o),
(302,517,c),
(304,512,o),
(308,507,o),
(311,504,c),
(311,492,o),
(315,487,o),
(320,481,c),
(319,475,o),
(321,471,o),
(321,466,c),
(329,451,o),
(341,442,o),
(341,420,c),
(343,413,o),
(349,410,o),
(352,405,c),
(353,387,o),
(366,379,o),
(367,360,c),
(374,352,o),
(375,336,o),
(384,330,c),
(390,314,o),
(397,298,o),
(404,283,c),
(404,281,o),
(405,280,o),
(406,278,c),
(406,276,l)
);
}
);
width = 857;
}
);
unicode = 198;
},
{
glyphname = B;
kernLeft = H;
kernRight = B;
lastChange = "2025-01-06 14:17:27 +0000";
layers = (
{
layerId = "C5490108-C233-4ADF-8B6D-CFE8E3B23812";
shapes = (
{
closed = 1;
nodes = (
(332,13,l),
(344,14,o),
(350,22,o),
(363,23,c),
(368,27,o),
(370,34,o),
(376,37,c),
(380,44,o),
(390,44,o),
(391,52,c),
(401,62,o),
(409,74,o),
(418,84,c),
(421,100,o),
(430,108,o),
(436,122,cs),
(443,138,o),
(443,161,o),
(445,181,c),
(441,200,o),
(437,220,o),
(434,241,c),
(430,246,o),
(428,252,o),
(427,260,c),
(422,266,o),
(418,272,o),
(415,278,cs),
(406,299,o),
(387,309,o),
(373,325,c),
(356,331,o),
(347,342,o),
(327,344,c),
(323,349,o),
(313,346,o),
(310,352,c),
(312,360,o),
(320,360,o),
(325,364,cs),
(330,369,o),
(336,371,o),
(342,376,c),
(359,403,ls),
(365,413,o),
(370,424,o),
(376,432,c),
(377,443,o),
(379,452,o),
(382,460,c),
(380,481,o),
(379,499,o),
(376,515,cs),
(371,541,l),
(361,557,l),
(353,575,l),
(349,579,o),
(346,584,o),
(343,590,c),
(328,602,o),
(314,617,o),
(299,629,c),
(288,632,o),
(280,638,o),
(268,641,cs),
(253,644,o),
(239,650,o),
(220,650,cs),
(208,650,ls),
(200,650,o),
(190,652,o),
(181,652,cs),
(170,652,o),
(160,648,o),
(148,648,cs),
(121,648,o),
(92,655,o),
(67,645,c),
(64,636,o),
(59,625,o),
(65,614,c),
(63,609,o),
(61,604,o),
(62,598,cs),
(67,565,o),
(63,527,o),
(65,499,cs),
(65,496,o),
(63,494,o),
(63,493,cs),
(64,485,o),
(67,478,o),
(67,470,cs),
(68,459,o),
(64,447,o),
(67,436,c),
(65,425,o),
(66,413,o),
(67,405,cs),
(67,375,o),
(67,350,o),
(67,322,cs),
(67,316,o),
(67,310,o),
(67,304,cs),
(67,268,o),
(65,226,o),
(70,196,c),
(68,169,o),
(70,135,o),
(67,106,c),
(72,86,o),
(67,72,o),
(69,51,c),
(67,40,o),
(65,23,o),
(67,12,c),
(73,-6,o),
(102,1,o),
(120,-3,c),
(145,4,o),
(176,-4,o),
(204,0,c),
(212,0,o),
(217,-5,o),
(226,-3,cs),
(243,0,o),
(263,0,o),
(278,5,c),
(299,5,l)
);
},
{
closed = 1;
nodes = (
(106,439,o),
(108,447,o),
(108,455,cs),
(107,469,o),
(103,485,o),
(108,502,c),
(108,553,ls),
(108,561,o),
(107,570,o),
(108,580,cs),
(108,587,o),
(106,597,o),
(111,603,c),
(120,607,o),
(133,604,o),
(140,600,c),
(154,602,o),
(171,600,o),
(186,605,c),
(209,601,o),
(237,602,o),
(257,598,c),
(266,593,o),
(273,587,o),
(281,584,c),
(285,577,o),
(293,575,o),
(298,569,cs),
(302,565,o),
(304,560,o),
(307,556,cs),
(311,551,o),
(315,549,o),
(317,545,cs),
(321,540,o),
(323,532,o),
(325,525,cs),
(328,520,o),
(329,513,o),
(333,507,c),
(333,500,o),
(333,493,o),
(335,486,c),
(332,449,l),
(327,442,o),
(323,435,o),
(322,426,c),
(314,418,o),
(309,406,o),
(303,395,c),
(294,387,o),
(282,381,o),
(273,372,c),
(261,371,o),
(250,367,o),
(241,361,c),
(224,359,o),
(213,358,o),
(198,358,c),
(185,371,o),
(179,358,o),
(166,358,cs),
(146,357,o),
(127,358,o),
(111,361,c),
(105,371,o),
(108,384,o),
(108,398,cs),
(108,399,o),
(106,401,o),
(106,403,cs),
(106,431,ls)
);
},
{
closed = 1;
nodes = (
(301,314,o),
(314,306,o),
(330,302,c),
(334,296,o),
(344,294,o),
(349,288,c),
(367,273,l),
(374,260,o),
(381,249,o),
(390,238,c),
(390,228,o),
(394,221,o),
(397,214,c),
(396,206,o),
(397,200,o),
(400,196,c),
(400,156,l),
(398,147,o),
(393,142,o),
(390,133,cs),
(386,125,o),
(385,116,o),
(381,109,cs),
(376,103,o),
(369,98,o),
(366,91,c),
(358,87,o),
(355,81,o),
(348,78,c),
(344,71,o),
(335,69,o),
(328,66,c),
(325,59,o),
(314,59,o),
(309,54,c),
(284,50,o),
(264,51,o),
(239,47,c),
(234,49,o),
(221,46,o),
(216,49,c),
(192,44,o),
(163,51,o),
(140,45,c),
(130,48,o),
(124,48,o),
(114,47,c),
(106,60,o),
(111,76,o),
(111,91,cs),
(111,97,o),
(109,101,o),
(109,106,cs),
(110,128,o),
(113,150,o),
(108,169,c),
(110,181,o),
(107,195,o),
(108,208,cs),
(108,235,o),
(115,264,o),
(108,284,c),
(110,292,o),
(109,301,o),
(109,310,c),
(122,316,o),
(146,318,o),
(162,313,c),
(283,316,l)
);
}
);
width = 464;
}
);
unicode = 66;
},
{
glyphname = C;
kernLeft = O;
kernRight = C;
lastChange = "2025-01-06 14:17:27 +0000";
layers = (
{
anchors = (
{
name = bottom;
pos = (382,0);
},
{
name = top;
pos = (382,660);
}
);
layerId = "C5490108-C233-4ADF-8B6D-CFE8E3B23812";
shapes = (
{
closed = 1;
nodes = (
(166,588,o),
(157,575,o),
(144,561,cs),
(137,553,o),
(128,545,o),
(120,538,c),
(113,526,o),
(106,517,o),
(100,506,c),
(91,498,o),
(88,485,o),
(81,475,c),
(77,459,o),
(69,447,o),
(66,432,c),
(63,426,o),
(64,418,o),
(63,410,cs),
(61,404,o),
(57,398,o),
(56,390,cs),
(54,376,o),
(58,361,o),
(52,348,c),
(50,333,o),
(52,315,o),
(48,304,c),
(55,298,o),
(48,287,o),
(52,277,c),
(54,268,o),
(53,256,o),
(58,249,c),
(59,226,o),
(70,214,o),
(73,193,c),
(77,186,o),
(83,182,o),
(86,175,c),
(87,165,o),
(90,156,o),
(94,148,cs),
(97,143,o),
(104,139,o),
(108,135,c),
(110,126,o),
(121,126,o),
(124,120,c),
(124,115,o),
(123,107,o),
(125,105,c),
(128,100,o),
(136,99,o),
(136,91,c),
(145,88,o),
(150,80,o),
(160,76,c),
(165,71,o),
(168,64,o),
(176,60,c),
(179,55,o),
(187,56,o),
(191,52,c),
(197,48,o),
(200,42,o),
(208,40,c),
(213,36,o),
(219,32,o),
(227,29,c),
(239,23,o),
(256,18,o),
(266,9,c),
(283,8,o),
(298,-2,o),
(314,-5,cs),
(319,-6,o),
(326,-4,o),
(332,-5,cs),
(340,-6,o),
(347,-9,o),
(354,-9,cs),
(387,-11,o),
(421,-4,o),
(455,-5,c),
(462,-3,o),
(466,1,o),
(476,0,c),
(490,9,o),
(510,13,o),
(528,19,c),
(541,29,o),
(555,37,o),
(568,45,cs),
(579,51,ls),
(580,52,o),
(582,51,o),
(585,52,c),
(589,57,l),
(597,61,o),
(602,66,o),
(609,70,c),
(614,81,o),
(620,90,o),
(619,106,c),
(613,114,o),
(618,136,o),
(607,140,c),
(590,136,o),
(586,119,o),
(575,109,c),
(559,107,o),
(556,92,o),
(537,93,c),
(530,86,o),
(520,81,o),
(513,73,c),
(504,68,o),
(498,59,o),
(486,55,c),
(475,57,o),
(463,55,o),
(455,55,cs),
(451,55,o),
(448,57,o),
(446,57,cs),
(444,57,o),
(441,54,o),
(438,54,cs),
(434,53,o),
(431,54,o),
(428,54,cs),
(416,52,o),
(404,48,o),
(391,48,cs),
(375,47,o),
(358,52,o),
(341,49,c),
(330,55,o),
(316,59,o),
(299,58,c),
(288,65,o),
(275,69,o),
(260,73,c),
(251,83,o),
(238,87,o),
(225,94,cs),
(214,102,o),
(204,110,o),
(191,117,c),
(179,137,o),
(162,152,o),
(147,171,c),
(147,185,l),
(143,188,o),
(139,192,o),
(136,198,cs),
(133,203,o),
(127,206,o),
(125,213,cs),
(123,230,o),
(111,239,o),
(107,256,cs),
(105,271,o),
(102,285,o),
(100,301,cs),
(98,319,o),
(102,332,o),
(100,348,c),
(104,368,o),
(109,385,o),
(112,406,c),
(120,419,o),
(124,436,o),
(130,449,cs),
(134,458,o),
(139,466,o),
(142,475,c),
(147,478,o),
(150,485,o),
(154,489,c),
(155,491,o),
(157,492,o),
(159,494,cs),
(163,501,o),
(168,508,o),
(172,517,c),
(178,523,o),
(187,526,o),
(190,536,c),
(197,542,o),
(201,549,o),
(209,554,cs),
(239,571,o),
(268,591,o),
(300,605,c),
(323,608,o),
(345,612,o),
(365,617,c),
(382,618,o),
(402,616,o),
(417,618,c),
(422,614,o),
(430,614,o),
(435,609,c),
(446,611,o),
(451,606,o),
(461,606,c),
(469,601,o),
(480,598,o),
(492,596,c),
(505,590,o),
(516,581,o),
(531,578,c),
(538,573,o),
(542,567,o),
(552,566,c),
(560,557,o),
(569,550,o),
(576,541,c),
(589,538,o),
(592,524,o),
(609,525,c),
(617,532,o),
(616,544,o),
(614,556,cs),
(612,566,o),
(607,579,o),
(606,587,c),
(602,592,o),
(599,596,o),
(594,599,cs),
(588,601,o),
(585,607,o),
(578,608,c),
(569,617,o),
(558,621,o),
(549,631,c),
(541,634,o),
(532,637,o),
(525,642,c),
(503,646,o),
(485,655,o),
(464,660,c),
(449,659,o),
(444,666,o),
(430,666,c),
(419,669,o),
(407,670,o),
(395,671,c),
(369,667,o),
(337,667,o),
(313,662,c),
(307,658,o),
(300,656,o),
(293,653,c),
(275,654,o),
(267,643,o),
(248,644,c),
(241,638,o),
(234,633,o),
(227,629,cs),
(220,625,o),
(212,621,o),
(208,618,cs),
(200,614,o),
(194,611,o),
(188,606,cs),
(181,600,ls)
);
}
);
width = 662;
}
);
unicode = 67;
},
{
glyphname = D;
kernLeft = H;
kernRight = O;
lastChange = "2025-01-06 14:17:27 +0000";
layers = (
{
anchors = (
{
name = bottom;
pos = (251,0);
},
{
name = center;
pos = (289,331);
},
{
name = top;
pos = (251,660);
}
);
layerId = "C5490108-C233-4ADF-8B6D-CFE8E3B23812";
shapes = (
{
closed = 1;
nodes = (
(514,227,o),
(517,228,o),
(518,231,c),
(518,233,o),
(519,236,o),
(519,238,cs),
(520,242,o),
(522,244,o),
(522,245,cs),
(524,256,o),
(527,268,o),
(528,278,cs),
(528,290,o),
(525,313,o),
(531,317,cs),
(532,318,o),
(529,319,o),
(529,319,c),
(531,338,o),
(528,356,o),
(531,376,cs),
(531,378,o),
(529,378,o),
(529,380,cs),
(528,384,o),
(526,387,o),
(524,390,c),
(525,420,o),
(513,437,o),
(508,463,c),
(492,483,o),
(485,513,o),
(465,528,c),
(454,554,o),
(430,566,o),
(414,587,c),
(406,590,o),
(400,597,o),
(393,600,c),
(384,603,o),
(380,610,o),
(372,614,cs),
(357,622,o),
(341,629,o),
(326,637,c),
(314,637,o),
(305,642,o),
(295,645,cs),
(284,649,o),
(272,649,o),
(263,655,c),
(252,653,o),
(240,655,o),
(231,656,cs),
(216,657,o),
(194,655,o),
(175,659,c),
(157,656,o),
(132,655,o),
(111,656,cs),
(99,656,o),
(88,660,o),
(79,656,cs),
(73,652,o),
(67,648,o),
(64,642,c),
(60,629,o),
(67,616,o),
(67,600,cs),
(67,591,o),
(64,581,o),
(64,572,cs),
(64,561,o),
(66,549,o),
(65,538,cs),
(65,527,o),
(65,516,o),
(67,506,c),
(62,487,o),
(65,467,o),
(65,447,cs),
(66,430,o),
(64,413,o),
(65,397,cs),
(66,371,o),
(65,336,o),
(67,309,cs),
(67,301,o),
(63,298,o),
(62,292,c),
(69,267,o),
(67,239,o),
(67,213,cs),
(67,206,o),
(68,200,o),
(68,193,cs),
(68,184,o),
(67,177,o),
(67,167,cs),
(67,140,o),
(69,110,o),
(69,83,cs),
(70,59,o),
(66,36,o),
(68,13,c),
(77,3,o),
(103,10,o),
(118,6,c),
(136,11,o),
(156,7,o),
(178,8,cs),
(186,8,o),
(197,10,o),
(206,10,cs),
(240,11,o),
(271,11,o),
(298,16,c),
(318,23,o),
(337,29,o),
(352,37,cs),
(364,43,o),
(373,48,o),
(384,51,c),
(389,56,o),
(395,60,o),
(401,65,cs),
(406,69,o),
(410,76,o),
(419,78,c),
(422,85,o),
(430,86,o),
(435,91,c),
(438,99,o),
(445,103,o),
(451,106,c),
(455,118,o),
(462,127,o),
(469,135,c),
(474,145,o),
(482,153,o),
(489,162,c),
(494,181,o),
(504,198,o),
(511,217,c),
(513,224,ls)
);
},
{
closed = 1;
nodes = (
(111,193,o),
(110,212,o),
(110,231,cs),
(110,240,o),
(111,251,o),
(111,260,cs),
(112,270,o),
(111,280,o),
(115,289,c),
(109,305,o),
(111,320,o),
(111,338,cs),
(111,345,o),
(110,351,o),
(110,356,cs),
(110,380,o),
(111,404,o),
(110,428,cs),
(109,440,o),
(110,451,o),
(110,463,cs),
(108,510,o),
(107,559,o),
(108,603,c),
(126,614,o),
(154,609,o),
(181,609,cs),
(193,610,o),
(203,613,o),
(214,613,cs),
(234,613,o),
(252,606,o),
(270,606,c),
(290,599,o),
(310,593,o),
(330,587,c),
(339,580,o),
(351,575,o),
(360,569,cs),
(368,565,o),
(372,560,o),
(378,554,c),
(386,551,o),
(390,544,o),
(397,541,c),
(409,530,o),
(420,520,o),
(429,507,cs),
(439,496,o),
(447,483,o),
(454,468,c),
(465,458,o),
(469,441,o),
(477,427,c),
(480,413,o),
(482,401,o),
(485,390,cs),
(493,358,o),
(498,321,o),
(490,288,cs),
(484,267,o),
(479,243,o),
(469,224,c),
(463,204,o),
(449,190,o),
(441,171,c),
(428,159,o),
(418,145,o),
(407,133,cs),
(390,119,o),
(375,103,o),
(354,93,c),
(348,91,o),
(343,89,o),
(339,86,c),
(329,82,o),
(319,76,o),
(311,70,c),
(297,67,o),
(282,64,o),
(266,60,cs),
(234,53,o),
(189,53,o),
(150,55,cs),
(140,56,o),
(126,50,o),
(115,57,c),
(110,66,o),
(113,76,o),
(113,86,cs),
(113,90,o),
(111,95,o),
(111,101,cs),
(111,113,o),
(111,129,o),
(111,145,cs),
(111,174,ls)
);
}
);
width = 564;
}
);
unicode = 68;
},
{
glyphname = Eth;
kernLeft = H;
kernRight = O;
lastChange = "2025-01-06 14:17:27 +0000";
layers = (
{
layerId = "C5490108-C233-4ADF-8B6D-CFE8E3B23812";
shapes = (
{
closed = 1;
nodes = (
(500,227,o),
(503,228,o),
(504,231,c),
(504,233,o),
(504,236,o),
(504,238,cs),
(505,242,o),
(507,244,o),
(507,245,cs),
(510,256,o),
(513,268,o),
(514,278,cs),
(514,290,o),
(511,313,o),
(517,317,cs),
(518,318,o),
(515,319,o),
(515,319,c),
(517,338,o),
(514,356,o),
(517,376,cs),
(517,378,o),
(515,378,o),
(515,380,cs),
(514,384,o),
(512,387,o),
(510,390,c),
(511,420,o),
(499,437,o),
(494,463,c),
(478,483,o),
(471,513,o),
(450,528,c),
(440,554,o),
(416,566,o),
(400,587,c),
(391,590,o),
(386,597,o),
(379,600,c),
(370,603,o),
(366,610,o),
(358,614,cs),
(343,622,o),
(327,629,o),
(312,637,c),
(300,637,o),
(291,642,o),
(280,645,cs),
(270,649,o),
(257,649,o),
(249,655,c),
(238,653,o),
(226,655,o),
(217,656,cs),
(201,657,o),
(180,655,o),
(161,659,c),
(143,656,o),
(118,655,o),
(97,656,cs),
(85,656,o),
(74,660,o),
(65,656,cs),
(59,652,o),
(53,648,o),
(49,642,c),
(46,629,o),
(52,616,o),
(52,600,cs),
(52,591,o),
(49,581,o),
(49,572,cs),
(49,561,o),
(51,549,o),
(50,538,cs),
(50,527,o),
(50,516,o),
(52,506,c),
(48,487,o),
(50,467,o),
(50,447,cs),
(51,430,o),
(49,413,o),
(50,397,cs),
(50,343,l),
(37,343,o),
(25,342,o),
(12,342,c),
(-1,336,o),
(-1,315,o),
(5,310,cs),
(11,305,o),
(21,301,o),
(29,300,cs),
(36,299,o),
(44,300,o),
(51,301,c),
(49,298,o),
(48,295,o),
(48,292,c),
(55,267,o),
(52,239,o),
(52,213,cs),
(52,206,o),
(54,200,o),
(54,193,cs),
(54,184,o),
(52,177,o),
(52,167,cs),
(52,140,o),
(55,110,o),
(55,83,cs),
(56,59,o),
(51,36,o),
(54,13,c),
(63,3,o),
(88,10,o),
(104,6,c),
(122,11,o),
(142,7,o),
(163,8,cs),
(172,8,o),
(182,10,o),
(192,10,cs),
(226,11,o),
(257,11,o),
(284,16,c),
(304,23,o),
(323,29,o),
(338,37,cs),
(350,43,o),
(359,48,o),
(370,51,c),
(374,56,o),
(381,60,o),
(387,65,cs),
(391,69,o),
(396,76,o),
(405,78,c),
(408,85,o),
(416,86,o),
(421,91,c),
(424,99,o),
(430,103,o),
(437,106,c),
(441,118,o),
(447,127,o),
(455,135,c),
(460,145,o),
(467,153,o),
(475,162,c),
(480,181,o),
(489,198,o),
(497,217,c),
(499,224,ls)
);
},
{
closed = 1;
nodes = (
(97,193,o),
(96,212,o),
(96,231,cs),
(96,240,o),
(97,251,o),
(97,260,cs),
(98,270,o),
(97,280,o),
(101,289,c),
(99,294,o),
(97,299,o),
(97,304,c),
(98,304,o),
(99,305,o),
(100,305,cs),
(110,306,o),
(121,302,o),
(131,302,cs),
(148,302,o),
(171,302,o),
(186,309,c),
(197,320,o),
(190,325,o),
(189,333,c),
(186,336,o),
(183,341,o),
(176,343,c),
(162,344,o),
(147,342,o),
(132,343,cs),
(113,343,ls),
(107,343,o),
(102,342,o),
(97,342,c),
(96,347,o),
(96,352,o),
(96,356,cs),
(96,380,o),
(97,404,o),
(96,428,cs),
(95,440,o),
(96,451,o),
(96,463,cs),
(94,510,o),
(93,559,o),
(94,603,c),
(112,614,o),
(140,609,o),
(167,609,cs),
(179,610,o),
(189,613,o),
(200,613,cs),
(219,613,o),
(238,606,o),
(256,606,c),
(276,599,o),
(295,593,o),
(315,587,c),
(325,580,o),
(336,575,o),
(346,569,cs),
(353,565,o),
(358,560,o),
(364,554,c),
(371,551,o),
(376,544,o),
(383,541,c),
(394,530,o),
(406,520,o),
(415,507,cs),
(425,496,o),
(433,483,o),
(440,468,c),
(450,458,o),
(455,441,o),
(463,427,c),
(466,413,o),
(467,401,o),
(471,390,cs),
(479,358,o),
(484,321,o),
(476,288,cs),
(469,267,o),
(465,243,o),
(455,224,c),
(448,204,o),
(435,190,o),
(427,171,c),
(414,159,o),
(404,145,o),
(392,133,cs),
(376,119,o),
(361,103,o),
(340,93,c),
(333,91,o),
(329,89,o),
(325,86,c),
(314,82,o),
(305,76,o),
(296,70,c),
(283,67,o),
(268,64,o),
(252,60,cs),
(219,53,o),
(175,53,o),
(136,55,cs),
(125,56,o),
(112,50,o),
(101,57,c),
(96,66,o),
(99,76,o),
(99,86,cs),
(99,90,o),
(97,95,o),
(97,101,cs),
(97,113,o),
(98,129,o),
(97,145,cs),
(97,174,ls)
);
}
);
width = 583;
}
);
unicode = 208;
},
{
glyphname = E;
kernLeft = H;
kernRight = E;
lastChange = "2025-01-06 14:17:27 +0000";
layers = (
{
anchors = (
{
name = bottom;
pos = (233,0);
},
{
name = ogonek;
pos = (327,10);
},
{
name = top;
pos = (214,660);
},
{
name = topleft;
pos = (21,660);
}
);
layerId = "C5490108-C233-4ADF-8B6D-CFE8E3B23812";
shapes = (
{
closed = 1;
nodes = (
(115,215,o),
(113,238,o),
(114,262,cs),
(114,272,o),
(116,280,o),
(115,291,c),
(111,306,o),
(112,324,o),
(115,340,c),
(131,347,o),
(153,338,o),
(170,343,c),
(202,336,o),
(245,342,o),
(276,337,c),
(305,341,o),
(333,338,o),
(359,341,c),
(374,352,l),
(380,362,o),
(380,379,o),
(374,390,c),
(348,409,o),
(305,397,o),
(269,400,c),
(259,395,o),
(244,397,o),
(230,397,c),
(214,402,o),
(194,398,o),
(180,394,c),
(161,402,o),
(129,390,o),
(115,400,c),
(110,410,o),
(118,422,o),
(118,432,c),
(120,442,o),
(111,442,o),
(112,450,cs),
(116,466,o),
(112,482,o),
(112,497,cs),
(112,504,o),
(114,512,o),
(114,520,cs),
(113,527,o),
(112,534,o),
(112,541,cs),
(112,550,o),
(117,559,o),
(117,567,cs),
(117,578,o),
(112,587,o),
(114,598,c),
(117,601,o),
(124,603,o),
(128,605,c),
(135,606,o),
(139,610,o),
(146,609,cs),
(156,609,o),
(162,606,o),
(170,605,c),
(180,609,o),
(194,607,o),
(203,611,c),
(231,611,o),
(259,610,o),
(281,613,c),
(285,609,o),
(293,610,o),
(297,608,c),
(315,614,o),
(333,609,o),
(353,609,c),
(361,615,o),
(371,616,o),
(375,626,cs),
(380,637,o),
(374,647,o),
(371,659,c),
(364,660,o),
(360,666,o),
(351,665,cs),
(321,663,o),
(292,664,o),
(262,663,cs),
(246,663,o),
(231,666,o),
(216,665,cs),
(200,664,o),
(184,661,o),
(169,662,cs),
(152,663,o),
(135,666,o),
(118,666,c),
(105,659,o),
(83,669,o),
(70,662,c),
(67,658,o),
(67,655,o),
(67,650,cs),
(65,629,o),
(66,605,o),
(66,587,cs),
(66,581,o),
(65,576,o),
(64,571,c),
(64,559,o),
(66,546,o),
(66,535,cs),
(66,514,o),
(63,493,o),
(66,476,c),
(60,458,o),
(65,430,o),
(64,413,cs),
(64,409,o),
(63,405,o),
(63,400,cs),
(63,392,o),
(65,385,o),
(66,377,cs),
(67,363,o),
(66,350,o),
(66,338,cs),
(66,332,o),
(67,326,o),
(67,319,cs),
(67,307,o),
(66,295,o),
(66,283,cs),
(67,264,o),
(69,245,o),
(64,232,c),
(64,220,o),
(71,200,o),
(64,187,c),
(69,178,o),
(65,166,o),
(66,153,c),
(65,145,o),
(70,143,o),
(68,135,c),
(67,95,o),
(59,57,o),
(63,19,c),
(69,7,o),
(88,7,o),
(103,2,c),
(113,3,o),
(124,7,o),
(135,8,cs),
(150,9,o),
(168,6,o),
(185,6,cs),
(206,7,o),
(226,8,o),
(247,5,c),
(288,11,o),
(333,1,o),
(371,13,c),
(377,19,o),
(382,29,o),
(382,39,cs),
(381,50,o),
(375,61,o),
(368,66,c),
(359,67,o),
(351,66,o),
(341,66,cs),
(333,67,o),
(323,68,o),
(314,68,cs),
(306,68,o),
(297,67,o),
(289,67,cs),
(282,67,o),
(276,70,o),
(269,70,cs),
(262,70,o),
(254,68,o),
(247,68,cs),
(229,69,o),
(215,71,o),
(200,67,c),
(178,77,o),
(156,59,o),
(135,68,c),
(127,69,o),
(120,65,o),
(115,70,c),
(115,192,ls)
);
}
);
width = 429;
}
);
unicode = 69;
},
{
glyphname = Schwa;
kernLeft = O;
kernRight = O;
lastChange = "2025-01-06 14:17:27 +0000";
layers = (
{
layerId = "C5490108-C233-4ADF-8B6D-CFE8E3B23812";
shapes = (
{
closed = 1;
nodes = (
(389,668,ls),
(371,670,o),
(349,672,o),
(326,670,c),
(314,667,o),
(301,666,o),
(290,663,cs),
(278,661,o),
(271,656,o),
(257,656,c),
(246,650,o),
(237,642,o),
(220,641,c),
(216,635,o),
(204,635,o),
(200,627,c),
(192,624,o),
(186,619,o),
(178,617,c),
(163,605,o),
(150,594,o),
(134,584,c),
(128,574,o),
(120,565,o),
(110,559,c),
(106,551,o),
(102,543,o),
(97,536,cs),
(89,526,o),
(78,522,o),
(76,507,c),
(84,497,o),
(93,488,o),
(111,488,c),
(125,492,o),
(130,505,o),
(140,514,cs),
(154,527,l),
(155,535,o),
(164,534,o),
(165,542,c),
(171,545,o),
(178,548,o),
(182,553,cs),
(186,557,o),
(189,562,o),
(196,564,cs),
(202,566,o),
(204,573,o),
(210,575,cs),
(217,578,o),
(220,581,o),
(225,585,c),
(247,592,o),
(265,601,o),
(284,611,c),
(300,614,o),
(317,614,o),
(331,620,c),
(345,621,o),
(360,620,o),
(373,623,c),
(390,618,ls),
(394,618,o),
(400,615,o),
(405,614,cs),
(412,613,o),
(420,614,o),
(428,613,cs),
(435,611,o),
(441,607,o),
(447,605,cs),
(454,602,o),
(460,601,o),
(466,599,c),
(474,599,o),
(473,592,o),
(480,592,cs),
(485,591,o),
(488,587,o),
(495,587,c),
(501,580,o),
(507,578,o),
(516,572,c),
(519,569,l),
(523,567,ls),
(525,566,o),
(527,562,o),
(529,561,cs),
(532,560,o),
(536,561,o),
(539,559,c),
(544,553,ls),
(547,550,o),
(550,550,o),
(552,548,cs),
(557,543,o),
(561,537,o),
(563,530,c),
(570,526,o),
(573,520,o),
(578,515,c),
(589,507,o),
(594,492,o),
(604,484,c),
(611,469,o),
(618,456,o),
(627,445,c),
(629,441,o),
(628,434,o),
(628,428,c),
(637,422,o),
(638,407,o),
(645,397,c),
(646,384,o),
(646,370,o),
(651,359,c),
(650,347,o),
(653,331,o),
(649,320,c),
(652,306,o),
(647,300,o),
(648,284,c),
(647,275,o),
(640,270,o),
(641,257,c),
(639,249,o),
(635,242,o),
(635,232,c),
(615,200,l),
(613,192,o),
(607,188,o),
(604,182,cs),
(602,176,o),
(599,171,o),
(594,167,c),
(589,155,o),
(577,149,o),
(570,140,cs),
(561,130,o),
(552,124,o),
(544,114,c),
(536,111,o),
(530,105,o),
(523,101,cs),
(522,99,o),
(519,98,o),
(518,97,c),
(517,97,o),
(517,94,o),
(516,94,cs),
(515,94,o),
(513,95,o),
(513,94,c),
(510,88,l),
(505,86,l),
(489,79,o),
(473,71,o),
(454,66,cs),
(436,61,o),
(417,58,o),
(399,52,c),
(387,53,o),
(378,51,o),
(370,49,c),
(344,48,o),
(326,53,o),
(303,55,c),
(291,60,o),
(278,64,o),
(264,66,c),
(250,70,o),
(241,80,o),
(225,83,c),
(223,88,o),
(215,89,o),
(209,93,cs),
(203,96,o),
(199,101,o),
(189,101,c),
(179,111,ls),
(178,112,o),
(176,111,o),
(175,112,cs),
(167,120,l),
(162,122,o),
(161,127,o),
(157,130,cs),
(152,133,o),
(149,137,o),
(146,141,cs),
(141,149,o),
(132,155,o),
(126,163,c),
(119,170,o),
(115,180,o),
(108,187,c),
(107,198,o),
(102,204,o),
(100,214,c),
(95,221,o),
(95,234,o),
(90,241,c),
(94,252,o),
(90,269,o),
(92,278,c),
(106,279,o),
(136,271,o),
(159,273,cs),
(215,278,ls),
(248,282,o),
(282,276,o),
(310,274,c),
(341,276,o),
(428,274,o),
(466,274,cs),
(498,274,o),
(479,276,o),
(504,277,c),
(553,270,o),
(633,272,o),
(670,281,c),
(685,293,o),
(670,309,o),
(665,320,c),
(650,325,o),
(622,325,o),
(605,330,c),
(563,326,o),
(519,328,o),
(476,328,cs),
(440,329,o),
(404,329,o),
(371,325,c),
(352,325,o),
(347,330,o),
(330,330,cs),
(311,328,o),
(292,328,o),
(273,328,cs),
(247,327,o),
(221,327,o),
(196,325,c),
(152,330,l),
(128,330,o),
(103,326,o),
(94,325,c),
(80,327,o),
(68,330,o),
(55,327,c),
(43,314,o),
(52,279,o),
(48,260,c),
(48,238,o),
(50,215,o),
(55,195,c),
(63,181,o),
(70,167,o),
(76,151,c),
(78,150,o),
(79,149,o),
(79,146,c),
(85,140,o),
(90,131,o),
(98,125,c),
(103,117,o),
(110,112,o),
(115,104,cs),
(120,96,o),
(128,91,o),
(132,83,cs),
(134,78,o),
(142,78,o),
(143,73,c),
(147,71,o),
(147,65,o),
(154,65,c),
(167,51,o),
(188,46,o),
(201,33,c),
(211,30,o),
(219,25,o),
(228,21,cs),
(238,17,o),
(248,15,o),
(256,9,c),
(260,9,o),
(268,10,o),
(271,8,c),
(278,6,o),
(283,1,o),
(292,-2,c),
(315,-5,o),
(356,-1,o),
(384,-5,c),
(410,1,o),
(438,5,o),
(465,10,c),
(476,17,o),
(489,22,o),
(504,26,c),
(506,30,o),
(514,30,o),
(518,34,c),
(523,37,o),
(527,39,o),
(534,40,c),
(550,56,o),
(570,68,o),
(589,81,c),
(592,86,o),
(598,89,o),
(601,94,c),
(603,101,o),
(607,105,o),
(612,109,cs),
(617,112,o),
(620,118,o),
(624,123,c),
(636,131,o),
(642,145,o),
(649,159,c),
(656,165,o),
(658,175,o),
(664,181,c),
(666,196,o),
(674,204,o),
(675,220,c),
(683,229,o),
(680,247,o),
(690,255,c),
(687,269,o),
(694,284,o),
(694,301,cs),
(694,316,o),
(692,332,o),
(691,348,cs),
(691,362,o),
(690,377,o),
(690,390,c),
(687,397,o),
(687,406,o),
(685,413,cs),
(678,432,o),
(672,452,o),
(667,473,c),
(659,477,o),
(660,489,o),
(654,494,c),
(649,501,o),
(646,509,o),
(641,517,c),
(629,532,o),
(616,547,o),
(604,564,c),
(591,574,o),
(581,587,o),
(568,598,cs),
(556,607,o),
(541,615,o),
(529,626,c),
(517,631,o),
(506,637,o),
(493,642,c),
(483,650,o),
(466,651,o),
(456,657,c),
(442,657,o),
(428,664,o),
(412,666,cs)
);
}
);
width = 742;
}
);
unicode = 399;
},
{
glyphname = F;
kernLeft = H;
kernRight = F;
lastChange = "2025-01-06 14:17:27 +0000";
layers = (
{
anchors = (
{
name = bottom;
pos = (199,0);
},
{
name = top;
pos = (199,660);
}
);
layerId = "C5490108-C233-4ADF-8B6D-CFE8E3B23812";
shapes = (
{
closed = 1;
nodes = (
(62,31,o),
(56,29,o),
(57,18,c),
(59,12,o),
(64,10,o),
(66,6,c),
(71,4,o),
(71,-3,o),
(80,-2,cs),
(97,-2,o),
(105,9,o),
(111,19,c),
(113,31,o),
(110,40,o),
(108,51,c),
(109,68,o),
(109,91,o),
(112,111,c),
(106,121,o),
(113,133,o),
(109,145,c),
(111,151,o),
(111,158,o),
(112,163,c),
(105,207,o),
(109,256,o),
(109,302,c),
(107,311,o),
(105,321,o),
(108,331,c),
(114,333,o),
(124,333,o),
(129,335,c),
(148,337,o),
(161,331,o),
(179,333,c),
(200,331,o),
(222,326,o),
(249,327,c),
(257,325,o),
(259,331,o),
(268,330,c),
(280,326,o),
(289,327,o),
(301,327,c),
(312,331,o),
(324,333,o),
(330,343,c),
(334,355,o),
(333,377,o),
(330,387,cs),
(328,391,o),
(324,392,o),
(324,397,c),
(315,402,o),
(301,400,o),
(291,403,c),
(280,398,o),
(269,393,o),
(257,392,cs),
(245,391,o),
(234,396,o),
(225,397,cs),
(222,397,o),
(219,395,o),
(216,395,cs),
(212,395,o),
(210,397,o),
(207,397,cs),
(197,396,o),
(190,391,o),
(180,390,c),
(170,393,o),
(157,394,o),
(143,394,cs),
(131,393,o),
(117,389,o),
(108,395,c),
(106,416,o),
(106,438,o),
(106,461,cs),
(106,485,o),
(109,508,o),
(108,532,cs),
(107,543,o),
(106,555,o),
(106,567,cs),
(106,579,o),
(104,593,o),
(111,602,c),
(129,603,o),
(154,600,o),
(172,605,c),
(177,602,o),
(183,602,o),
(189,600,c),
(202,603,o),
(221,600,o),
(234,598,c),
(247,598,o),
(265,600,o),
(277,595,c),
(286,601,o),
(306,598,o),
(317,602,c),
(324,609,o),
(335,610,o),
(335,623,cs),
(333,638,o),
(332,654,o),
(325,665,c),
(319,666,o),
(315,669,o),
(309,670,cs),
(302,670,o),
(296,668,o),
(289,668,cs),
(261,668,o),
(231,671,o),
(205,666,c),
(200,666,o),
(197,670,o),
(190,670,c),
(155,665,o),
(116,671,o),
(81,671,c),
(75,667,o),
(67,666,o),
(62,660,c),
(52,643,o),
(64,615,o),
(57,596,c),
(61,585,o),
(59,572,o),
(59,563,c),
(58,560,o),
(60,558,o),
(60,554,cs),
(60,548,o),
(59,542,o),
(59,535,cs),
(57,491,o),
(61,450,o),
(62,410,cs),
(62,401,o),
(60,391,o),
(60,382,cs),
(60,374,o),
(62,368,o),
(62,361,cs),
(62,339,o),
(58,316,o),
(59,295,cs),
(59,289,o),
(60,283,o),
(60,277,cs),
(60,268,o),
(58,260,o),
(59,252,cs),
(59,244,o),
(62,236,o),
(62,228,cs),
(62,222,o),
(60,217,o),
(60,211,cs),
(60,198,o),
(62,184,o),
(62,171,cs),
(62,40,ls)
);
}
);
width = 378;
}
);
unicode = 70;
},
{
glyphname = G;
kernLeft = O;
kernRight = G;
lastChange = "2025-01-06 14:17:27 +0000";
layers = (
{
anchors = (
{
name = bottom;
pos = (381,0);
},
{
name = top;
pos = (381,660);
}
);
layerId = "C5490108-C233-4ADF-8B6D-CFE8E3B23812";
shapes = (
{
closed = 1;
nodes = (
(314,664,o),
(300,657,o),
(286,657,c),
(276,651,o),
(259,650,o),
(249,642,c),
(236,637,o),
(225,631,o),
(213,626,c),
(201,615,o),
(186,607,o),
(174,598,cs),
(161,587,o),
(151,574,o),
(138,564,c),
(126,547,o),
(113,532,o),
(101,517,c),
(96,509,o),
(93,501,o),
(88,494,c),
(82,489,o),
(83,477,o),
(75,473,c),
(70,452,o),
(64,432,o),
(57,413,cs),
(55,406,o),
(55,397,o),
(52,390,c),
(52,377,o),
(51,362,o),
(51,348,cs),
(50,332,o),
(48,316,o),
(48,301,cs),
(48,284,o),
(55,269,o),
(52,255,c),
(62,247,o),
(59,229,o),
(67,220,c),
(68,204,o),
(76,196,o),
(78,181,c),
(84,175,o),
(86,165,o),
(93,159,c),
(100,145,o),
(106,131,o),
(118,123,c),
(122,118,o),
(125,112,o),
(130,109,cs),
(135,105,o),
(139,101,o),
(141,94,c),
(144,89,o),
(150,86,o),
(153,81,c),
(172,68,o),
(192,56,o),
(208,40,c),
(215,39,o),
(219,37,o),
(224,34,c),
(228,30,o),
(236,30,o),
(238,26,c),
(253,22,o),
(266,17,o),
(277,10,c),
(304,5,o),
(332,1,o),
(358,-5,c),
(386,-1,o),
(427,-5,o),
(450,-2,c),
(459,1,o),
(464,6,o),
(471,8,c),
(474,10,o),
(482,9,o),
(486,9,c),
(494,15,o),
(504,17,o),
(514,21,cs),
(523,25,o),
(531,30,o),
(541,33,c),
(554,46,o),
(575,51,o),
(588,65,c),
(595,65,o),
(595,71,o),
(599,73,c),
(600,78,o),
(608,78,o),
(610,83,cs),
(614,91,o),
(622,96,o),
(627,104,cs),
(632,112,o),
(639,117,o),
(644,125,c),
(652,131,o),
(657,140,o),
(663,146,c),
(663,149,o),
(664,150,o),
(666,151,c),
(672,167,o),
(679,181,o),
(687,195,c),
(692,215,o),
(694,238,o),
(694,260,c),
(690,279,o),
(699,314,o),
(687,327,c),
(674,330,o),
(662,327,o),
(648,325,c),
(634,326,o),
(615,328,o),
(600,325,c),
(583,329,o),
(566,326,o),
(549,330,c),
(542,330,o),
(541,325,o),
(533,325,c),
(505,333,o),
(473,323,o),
(444,330,c),
(437,325,o),
(427,325,o),
(421,320,c),
(419,309,o),
(413,293,o),
(419,281,c),
(433,272,o),
(464,270,o),
(483,277,c),
(504,273,o),
(535,278,o),
(557,274,c),
(582,280,o),
(622,280,o),
(650,278,c),
(652,269,o),
(648,252,o),
(652,241,c),
(647,234,o),
(647,221,o),
(642,214,c),
(640,204,o),
(635,198,o),
(634,187,c),
(627,180,o),
(623,170,o),
(616,163,c),
(610,155,o),
(601,149,o),
(596,141,cs),
(593,137,o),
(590,133,o),
(585,130,cs),
(581,127,o),
(580,122,o),
(575,120,c),
(567,112,ls),
(566,111,o),
(564,112,o),
(563,111,cs),
(553,101,l),
(543,101,o),
(539,96,o),
(533,93,cs),
(527,89,o),
(519,88,o),
(517,83,c),
(501,80,o),
(492,70,o),
(478,66,c),
(464,64,o),
(451,60,o),
(439,55,c),
(416,53,o),
(398,48,o),
(372,49,c),
(364,51,o),
(355,53,o),
(343,52,c),
(325,58,o),
(306,61,o),
(288,66,cs),
(269,71,o),
(253,79,o),
(237,86,c),
(232,88,l),
(229,94,l),
(229,95,o),
(227,94,o),
(226,94,cs),
(225,94,o),
(225,97,o),
(224,97,c),
(223,98,o),
(220,99,o),
(219,101,cs),
(212,105,o),
(206,111,o),
(198,114,c),
(190,124,o),
(181,130,o),
(172,140,cs),
(165,149,o),
(153,155,o),
(148,167,c),
(143,171,o),
(140,176,o),
(138,182,cs),
(135,188,o),
(129,192,o),
(127,200,c),
(107,232,l),
(107,242,o),
(103,249,o),
(101,257,c),
(102,270,o),
(95,275,o),
(94,284,c),
(95,300,o),
(90,306,o),
(93,320,c),
(89,331,o),
(92,347,o),
(91,359,c),
(96,370,o),
(96,384,o),
(97,397,c),
(104,407,o),
(105,422,o),
(114,428,c),
(114,434,o),
(113,441,o),
(115,445,c),
(124,456,o),
(131,469,o),
(138,484,c),
(148,492,o),
(153,507,o),
(164,515,c),
(169,520,o),
(172,526,o),
(179,530,c),
(181,537,o),
(185,543,o),
(190,548,cs),
(192,550,o),
(195,550,o),
(198,553,cs),
(203,559,l),
(206,561,o),
(210,560,o),
(213,561,cs),
(215,562,o),
(217,566,o),
(219,567,cs),
(223,569,l),
(226,572,l),
(235,578,o),
(241,580,o),
(247,587,c),
(254,587,o),
(257,591,o),
(262,592,cs),
(269,592,o),
(268,599,o),
(276,599,c),
(282,601,o),
(288,602,o),
(295,605,cs),
(301,607,o),
(307,611,o),
(314,613,cs),
(322,614,o),
(330,613,o),
(337,614,cs),
(342,615,o),
(348,618,o),
(352,618,cs),
(369,623,l),
(382,620,o),
(397,621,o),
(411,620,c),
(425,614,o),
(442,614,o),
(458,611,c),
(477,601,o),
(495,592,o),
(517,585,c),
(522,581,o),
(525,578,o),
(532,575,cs),
(538,573,o),
(540,566,o),
(546,564,cs),
(553,562,o),
(556,557,o),
(560,553,cs),
(564,548,o),
(571,545,o),
(577,542,c),
(578,534,o),
(587,535,o),
(588,527,c),
(602,514,ls),
(612,505,o),
(617,492,o),
(631,488,c),
(649,488,o),
(658,497,o),
(666,507,c),
(664,522,o),
(653,526,o),
(645,536,cs),
(640,543,o),
(636,551,o),
(632,559,c),
(622,565,o),
(614,574,o),
(608,584,c),
(592,594,o),
(579,605,o),
(564,617,c),
(556,619,o),
(550,624,o),
(542,627,c),
(538,635,o),
(526,635,o),
(522,641,c),
(505,642,o),
(496,650,o),
(485,656,c),
(471,656,o),
(464,661,o),
(452,663,cs),
(441,666,o),
(428,667,o),
(416,670,c),
(393,672,o),
(371,670,o),
(353,668,cs),
(330,666,ls)
);
}
);
width = 742;
}
);
unicode = 71;
},
{
glyphname = H;
kernLeft = H;
kernRight = H;
lastChange = "2025-01-06 14:17:27 +0000";
layers = (
{
anchors = (
{
name = bottom;
pos = (304,0);
},
{
name = center;
pos = (304,331);
},
{
name = top;
pos = (304,660);
},
{
name = topleft;
pos = (40,660);
}
);
layerId = "C5490108-C233-4ADF-8B6D-CFE8E3B23812";
shapes = (
{
closed = 1;
nodes = (
(108,599,o),
(106,604,o),
(106,608,cs),
(107,626,o),
(115,646,o),
(103,659,c),
(94,663,o),
(74,664,o),
(67,659,c),
(61,633,o),
(63,591,o),
(65,561,cs),
(65,555,o),
(62,552,o),
(62,545,c),
(67,525,o),
(65,502,o),
(65,480,cs),
(65,446,o),
(66,411,o),
(65,382,cs),
(65,377,o),
(67,372,o),
(67,367,c),
(67,367,o),
(65,363,o),
(65,361,cs),
(65,349,o),
(67,332,o),
(67,322,cs),
(66,306,o),
(64,292,o),
(65,275,cs),
(66,266,o),
(67,258,o),
(67,250,cs),
(69,221,o),
(64,195,o),
(67,171,c),
(67,165,o),
(67,160,o),
(65,154,c),
(67,132,o),
(67,105,o),
(67,84,cs),
(67,62,ls),
(66,48,o),
(60,35,o),
(64,24,cs),
(65,19,o),
(69,16,o),
(71,12,c),
(84,10,o),
(102,7,o),
(110,15,c),
(115,29,o),
(109,49,o),
(111,69,c),
(103,91,o),
(110,117,o),
(111,143,cs),
(112,157,o),
(108,171,o),
(111,184,c),
(110,190,o),
(107,192,o),
(108,200,cs),
(110,221,o),
(106,244,o),
(106,268,cs),
(106,281,o),
(109,296,o),
(110,309,cs),
(110,321,o),
(105,335,o),
(116,343,c),
(125,344,o),
(135,341,o),
(144,340,cs),
(161,339,o),
(176,342,o),
(192,341,cs),
(309,341,l),
(315,342,o),
(321,339,o),
(327,340,cs),
(333,340,o),
(338,343,o),
(345,343,cs),
(358,343,o),
(373,341,o),
(387,341,cs),
(401,341,o),
(414,343,o),
(428,340,c),
(436,344,o),
(448,343,o),
(460,343,cs),
(466,343,o),
(471,345,o),
(477,345,cs),
(482,344,o),
(485,341,o),
(490,340,c),
(497,329,o),
(493,316,o),
(493,304,cs),
(493,299,o),
(495,294,o),
(495,288,cs),
(495,265,l),
(491,256,o),
(493,240,o),
(490,229,c),
(491,221,o),
(496,215,o),
(496,205,c),
(497,200,o),
(495,192,o),
(495,186,cs),
(494,171,o),
(493,161,o),
(496,150,c),
(491,133,o),
(496,120,o),
(493,101,cs),
(492,93,o),
(497,92,o),
(496,86,cs),
(494,75,o),
(496,64,o),
(495,51,cs),
(494,39,o),
(488,27,o),
(493,18,c),
(497,14,o),
(505,10,o),
(513,13,c),
(523,13,o),
(533,12,o),
(538,16,c),
(547,29,o),
(541,52,o),
(538,67,cs),
(535,93,o),
(539,119,o),
(538,143,cs),
(538,154,o),
(537,163,o),
(537,172,cs),
(537,184,o),
(540,202,o),
(540,218,cs),
(540,230,o),
(537,242,o),
(537,255,cs),
(536,264,o),
(538,274,o),
(538,283,cs),
(538,304,o),
(536,326,o),
(535,348,c),
(538,358,o),
(543,366,o),
(542,380,c),
(541,385,o),
(538,389,o),
(535,392,c),
(534,400,o),
(540,402,o),
(538,410,cs),
(534,425,o),
(538,441,o),
(537,457,cs),
(535,495,o),
(537,539,o),
(538,579,c),
(531,602,o),
(542,636,o),
(531,659,c),
(523,665,o),
(505,666,o),
(496,660,c),
(489,651,o),
(490,637,o),
(490,623,cs),
(490,593,o),
(489,561,o),
(490,532,c),
(495,513,o),
(492,488,o),
(492,467,cs),
(492,458,o),
(493,449,o),
(493,441,cs),
(493,420,o),
(495,401,o),
(487,390,c),
(459,384,o),
(426,388,o),
(396,388,c),
(389,389,o),
(386,393,o),
(378,394,c),
(372,393,o),
(371,389,o),
(365,390,c),
(358,392,o),
(345,391,o),
(339,390,c),
(328,395,o),
(311,391,o),
(300,388,c),
(293,390,o),
(288,393,o),
(277,392,cs),
(260,390,o),
(240,389,o),
(222,391,c),
(214,389,o),
(202,388,o),
(192,387,c),
(184,385,o),
(184,391,o),
(178,391,c),
(162,389,o),
(146,382,o),
(129,387,c),
(126,389,o),
(119,383,o),
(114,387,c),
(105,399,o),
(106,428,o),
(110,445,c),
(105,462,o),
(108,477,o),
(108,493,cs),
(108,502,o),
(105,511,o),
(110,520,c),
(105,533,o),
(109,547,o),
(108,563,cs),
(108,596,ls)
);
}
);
width = 604;
}
);
unicode = 72;
},
{
glyphname = I;
kernLeft = H;
kernRight = H;
lastChange = "2025-01-06 14:17:27 +0000";
layers = (
{
anchors = (
{
name = bottom;
pos = (85,0);
},
{
name = ogonek;
pos = (77,11);
},
{
name = top;
pos = (84,660);
},
{
name = topleft;
pos = (12,660);
}
);
layerId = "C5490108-C233-4ADF-8B6D-CFE8E3B23812";
shapes = (
{
closed = 1;
nodes = (
(63,591,o),
(65,580,o),
(64,572,cs),
(64,569,o),
(63,565,o),
(63,563,cs),
(63,561,o),
(66,558,o),
(66,556,cs),
(66,553,o),
(64,550,o),
(64,546,cs),
(65,533,o),
(67,520,o),
(66,506,cs),
(65,500,o),
(63,493,o),
(63,486,cs),
(62,477,o),
(66,466,o),
(63,457,c),
(64,448,o),
(67,440,o),
(67,431,cs),
(68,415,o),
(65,404,o),
(64,391,cs),
(63,378,o),
(65,365,o),
(66,351,cs),
(66,336,o),
(64,323,o),
(64,309,cs),
(64,300,o),
(66,291,o),
(66,281,cs),
(66,275,o),
(64,267,o),
(64,259,cs),
(64,245,o),
(67,230,o),
(67,216,cs),
(67,200,o),
(66,184,o),
(66,169,cs),
(66,124,ls),
(66,110,o),
(62,97,o),
(67,84,c),
(63,75,o),
(64,62,o),
(66,51,c),
(65,42,o),
(60,35,o),
(63,27,cs),
(64,22,o),
(66,14,o),
(68,10,c),
(82,6,o),
(100,5,o),
(105,13,c),
(109,34,o),
(105,66,o),
(105,87,cs),
(106,97,o),
(109,105,o),
(109,115,cs),
(108,127,o),
(105,139,o),
(105,150,cs),
(104,180,o),
(110,208,o),
(105,237,c),
(110,248,o),
(105,260,o),
(105,273,c),
(106,278,o),
(107,286,o),
(107,292,cs),
(108,329,o),
(105,366,o),
(105,403,cs),
(105,440,o),
(105,481,o),
(105,515,cs),
(104,542,o),
(105,567,o),
(102,589,c),
(105,609,o),
(110,643,o),
(97,656,c),
(88,658,o),
(75,658,o),
(68,655,c),
(63,644,o),
(63,632,o),
(63,620,cs),
(63,602,ls)
);
}
);
width = 171;
}
);
unicode = 73;
},
{
glyphname = J;
kernLeft = J;
kernRight = J;
lastChange = "2025-01-06 14:17:27 +0000";
layers = (
{
anchors = (
{
name = bottom;
pos = (138,0);
},
{
name = top;
pos = (167,660);
}
);
layerId = "C5490108-C233-4ADF-8B6D-CFE8E3B23812";
shapes = (
{
closed = 1;
nodes = (
(149,295,o),
(148,285,o),
(148,277,cs),
(148,270,o),
(151,263,o),
(151,257,cs),
(151,253,o),
(150,250,o),
(149,247,c),
(149,244,o),
(151,241,o),
(151,238,cs),
(151,231,o),
(149,224,o),
(149,218,cs),
(150,193,o),
(158,167,o),
(149,143,c),
(153,140,o),
(153,133,o),
(153,125,c),
(149,99,o),
(154,71,o),
(154,45,cs),
(154,43,o),
(153,42,o),
(153,39,cs),
(153,36,o),
(154,34,o),
(154,33,cs),
(155,15,o),
(153,3,o),
(154,-12,c),
(151,-20,o),
(150,-30,o),
(146,-39,c),
(136,-52,o),
(124,-64,o),
(109,-72,c),
(93,-77,o),
(75,-71,o),
(58,-75,c),
(50,-69,o),
(41,-66,o),
(33,-62,c),
(29,-57,o),
(27,-51,o),
(21,-47,c),
(19,-39,o),
(17,-34,o),
(9,-33,cs),
(1,-31,o),
(-12,-39,o),
(-13,-44,c),
(-17,-51,o),
(-23,-57,o),
(-26,-66,c),
(-22,-68,o),
(-23,-76,o),
(-23,-83,c),
(-17,-91,o),
(-8,-98,o),
(1,-104,c),
(11,-108,o),
(17,-117,o),
(29,-122,c),
(47,-125,o),
(68,-131,o),
(89,-130,cs),
(104,-130,o),
(116,-124,o),
(128,-125,c),
(133,-123,o),
(138,-119,o),
(145,-118,c),
(154,-109,o),
(162,-99,o),
(171,-88,c),
(177,-75,o),
(188,-67,o),
(195,-55,c),
(200,-26,l),
(199,-16,o),
(199,-4,o),
(199,8,c),
(201,9,o),
(199,10,o),
(199,12,cs),
(196,44,ls),
(195,54,o),
(193,65,o),
(193,75,cs),
(193,80,o),
(195,84,o),
(195,88,cs),
(195,93,o),
(193,98,o),
(193,104,cs),
(193,134,o),
(196,164,o),
(195,195,cs),
(194,216,o),
(193,237,o),
(193,257,cs),
(193,279,o),
(192,299,o),
(192,320,cs),
(192,333,o),
(195,345,o),
(195,356,cs),
(195,377,o),
(192,397,o),
(192,418,cs),
(191,429,o),
(193,440,o),
(193,451,cs),
(193,461,o),
(192,472,o),
(192,483,cs),
(191,500,o),
(192,517,o),
(190,533,cs),
(190,541,o),
(190,547,o),
(193,551,c),
(188,566,o),
(191,584,o),
(192,600,cs),
(193,619,o),
(196,638,o),
(188,656,c),
(181,662,o),
(155,663,o),
(148,656,c),
(145,649,o),
(145,640,o),
(145,632,cs),
(145,617,o),
(148,600,o),
(148,585,cs),
(148,579,o),
(146,571,o),
(146,563,cs),
(147,554,o),
(149,544,o),
(149,535,cs),
(150,513,o),
(150,491,o),
(149,472,cs),
(149,445,o),
(150,415,o),
(149,387,c),
(147,386,o),
(151,379,o),
(151,376,cs),
(149,303,ls)
);
}
);
width = 262;
}
);
unicode = 74;
},
{
glyphname = K;
kernLeft = H;
kernRight = K;
lastChange = "2025-01-06 14:17:27 +0000";
layers = (
{
anchors = (
{
name = bottom;
pos = (255,0);
},
{
name = top;
pos = (255,660);
}
);
layerId = "C5490108-C233-4ADF-8B6D-CFE8E3B23812";
shapes = (
{
closed = 1;
nodes = (
(68,407,o),
(64,371,o),
(69,335,c),
(66,322,o),
(67,304,o),
(69,291,c),
(64,263,o),
(70,232,o),
(67,200,cs),
(67,196,o),
(66,191,o),
(65,186,cs),
(64,175,o),
(66,163,o),
(65,153,c),
(66,147,o),
(68,145,o),
(67,140,cs),
(66,125,o),
(69,113,o),
(69,101,cs),
(69,86,o),
(65,71,o),
(67,55,c),
(65,48,o),
(61,40,o),
(62,27,c),
(67,12,o),
(83,8,o),
(99,3,c),
(109,8,o),
(118,15,o),
(121,27,c),
(118,38,o),
(114,47,o),
(111,57,c),
(112,72,o),
(110,94,o),
(113,112,c),
(112,120,o),
(109,125,o),
(110,133,c),
(109,142,o),
(110,147,o),
(113,153,c),
(108,172,o),
(106,191,o),
(113,208,c),
(105,235,o),
(111,269,o),
(111,301,c),
(115,302,o),
(115,307,o),
(119,307,c),
(121,310,o),
(122,314,o),
(127,314,c),
(138,311,o),
(141,302,o),
(147,296,c),
(152,289,o),
(159,283,o),
(165,277,c),
(168,273,o),
(169,267,o),
(171,262,c),
(176,260,o),
(181,259,o),
(186,257,c),
(201,241,o),
(210,220,o),
(233,213,c),
(239,205,o),
(244,198,o),
(251,190,cs),
(257,183,o),
(265,178,o),
(269,168,c),
(284,161,o),
(295,146,o),
(308,137,c),
(314,123,o),
(329,116,o),
(336,102,c),
(350,96,o),
(357,85,o),
(368,76,c),
(372,67,o),
(381,60,o),
(387,51,c),
(399,44,o),
(408,33,o),
(417,23,c),
(425,19,o),
(432,15,o),
(438,10,c),
(459,8,o),
(481,3,o),
(491,16,c),
(491,22,o),
(492,29,o),
(488,30,c),
(484,38,o),
(476,46,o),
(469,52,cs),
(460,63,o),
(448,70,o),
(441,80,c),
(438,82,o),
(438,86,o),
(433,87,c),
(428,91,o),
(423,97,o),
(420,104,c),
(407,111,o),
(399,123,o),
(386,129,c),
(379,139,o),
(370,145,o),
(364,156,c),
(342,169,o),
(331,193,o),
(308,205,c),
(307,210,o),
(304,212,o),
(303,216,c),
(298,219,o),
(292,221,o),
(290,228,c),
(286,234,o),
(278,235,o),
(275,239,cs),
(267,250,o),
(257,257,o),
(251,268,c),
(234,276,o),
(226,294,o),
(209,301,c),
(207,306,o),
(204,310,o),
(201,314,c),
(192,317,o),
(185,325,o),
(177,330,c),
(172,338,o),
(161,341,o),
(160,353,c),
(163,359,o),
(171,363,o),
(179,366,c),
(187,377,o),
(201,384,o),
(212,394,cs),
(222,404,o),
(246,425,o),
(248,429,c),
(257,436,o),
(261,447,o),
(273,452,c),
(279,463,o),
(290,469,o),
(298,476,c),
(308,495,o),
(325,506,o),
(340,518,c),
(345,523,o),
(347,529,o),
(351,535,c),
(357,539,o),
(363,544,o),
(371,546,c),
(370,553,o),
(372,557,o),
(375,561,cs),
(380,565,o),
(387,568,o),
(392,572,c),
(395,580,o),
(401,586,o),
(408,590,c),
(412,598,o),
(419,602,o),
(423,610,c),
(434,617,o),
(445,626,o),
(452,637,c),
(454,648,o),
(454,656,o),
(448,662,c),
(432,667,o),
(414,664,o),
(400,659,c),
(391,652,o),
(383,642,o),
(375,634,cs),
(367,624,o),
(357,616,o),
(352,603,c),
(343,597,o),
(333,591,o),
(329,580,c),
(322,578,o),
(318,574,o),
(314,569,c),
(313,563,o),
(305,563,o),
(301,559,c),
(300,551,o),
(296,546,o),
(294,541,c),
(278,534,o),
(271,519,o),
(255,512,c),
(254,506,o),
(250,504,o),
(248,499,c),
(243,496,o),
(240,492,o),
(236,490,c),
(232,486,o),
(230,482,o),
(225,480,c),
(218,472,o),
(213,463,o),
(205,455,c),
(199,451,o),
(191,447,o),
(186,441,c),
(179,436,o),
(175,428,o),
(166,424,c),
(162,416,o),
(159,409,o),
(150,406,c),
(149,399,o),
(143,397,o),
(143,391,c),
(137,388,o),
(131,384,o),
(129,377,c),
(124,376,o),
(119,367,o),
(113,370,c),
(107,378,o),
(110,389,o),
(110,398,cs),
(109,408,o),
(108,417,o),
(108,427,cs),
(111,505,o),
(110,582,o),
(113,657,c),
(108,662,o),
(104,669,o),
(95,670,cs),
(82,670,o),
(77,664,o),
(69,659,c),
(67,626,o),
(68,579,o),
(67,546,cs),
(65,527,o),
(68,509,o),
(69,490,cs),
(69,486,o),
(67,483,o),
(67,480,cs),
(67,470,o),
(69,465,o),
(69,458,cs),
(69,445,ls)
);
}
);
width = 520;
}
);
unicode = 75;
},
{
glyphname = L;
kernLeft = H;
kernRight = L;
lastChange = "2025-01-06 14:17:27 +0000";
layers = (
{
anchors = (
{
name = bottom;
pos = (145,0);
},
{
name = center;
pos = (100,486);
},
{
name = top;
pos = (145,660);
},
{
name = topright;
pos = (271,660);
}
);
layerId = "C5490108-C233-4ADF-8B6D-CFE8E3B23812";
shapes = (
{
closed = 1;
nodes = (
(99,482,o),
(101,484,o),
(100,486,c),
(100,492,o),
(98,498,o),
(97,504,cs),
(97,510,o),
(99,516,o),
(99,523,cs),
(99,529,o),
(97,536,o),
(97,542,cs),
(97,556,o),
(99,569,o),
(99,582,cs),
(99,593,o),
(96,603,o),
(96,613,cs),
(96,628,o),
(102,645,o),
(93,659,c),
(86,663,o),
(67,663,o),
(60,659,c),
(49,650,o),
(54,626,o),
(48,614,c),
(51,606,o),
(50,595,o),
(52,585,c),
(46,573,o),
(48,559,o),
(49,543,cs),
(49,533,o),
(48,522,o),
(49,511,cs),
(50,503,o),
(53,495,o),
(54,486,cs),
(54,479,o),
(50,472,o),
(52,465,c),
(52,458,o),
(54,455,o),
(55,449,c),
(54,415,o),
(51,372,o),
(54,334,c),
(50,314,l),
(50,303,o),
(55,290,o),
(55,277,cs),
(55,268,o),
(53,258,o),
(54,249,cs),
(55,228,o),
(54,208,o),
(54,187,cs),
(54,173,o),
(57,159,o),
(57,143,cs),
(57,137,o),
(55,130,o),
(55,123,cs),
(55,107,o),
(57,93,o),
(57,78,cs),
(57,57,o),
(49,35,o),
(58,16,c),
(70,9,o),
(89,10,o),
(106,10,c),
(131,2,o),
(163,11,o),
(188,6,c),
(197,5,o),
(198,11,o),
(205,10,c),
(215,8,o),
(230,10,o),
(242,10,c),
(246,13,o),
(253,14,o),
(257,16,c),
(260,23,o),
(261,31,o),
(263,39,c),
(259,47,o),
(258,56,o),
(250,59,cs),
(236,63,o),
(211,63,o),
(195,60,c),
(188,64,o),
(179,65,o),
(172,69,c),
(162,67,o),
(152,66,o),
(143,63,c),
(136,63,o),
(132,66,o),
(127,66,cs),
(121,67,o),
(114,60,o),
(107,65,c),
(91,82,o),
(105,117,o),
(97,143,c),
(103,152,o),
(99,172,o),
(102,184,c),
(95,214,o),
(102,239,o),
(100,270,cs),
(100,276,o),
(104,278,o),
(104,285,c),
(98,309,o),
(100,335,o),
(100,363,c),
(101,370,o),
(97,373,o),
(97,380,c),
(101,404,o),
(98,428,o),
(99,452,cs),
(99,478,ls)
);
}
);
width = 292;
}
);
unicode = 76;
},
{
glyphname = Lslash;
kernLeft = H;
kernRight = L;
lastChange = "2025-01-06 14:17:27 +0000";
layers = (
{
layerId = "C5490108-C233-4ADF-8B6D-CFE8E3B23812";
shapes = (
{
closed = 1;
nodes = (
(125,482,o),
(127,484,o),
(126,486,c),
(126,492,o),
(124,498,o),
(124,504,cs),
(124,510,o),
(125,516,o),
(125,523,cs),
(125,529,o),
(124,536,o),
(124,542,cs),
(124,556,o),
(125,569,o),
(125,582,cs),
(125,593,o),
(123,603,o),
(123,613,cs),
(123,628,o),
(128,645,o),
(120,659,c),
(113,663,o),
(93,663,o),
(86,659,c),
(76,650,o),
(81,626,o),
(74,614,c),
(78,606,o),
(77,595,o),
(79,585,c),
(72,573,o),
(75,559,o),
(76,543,cs),
(76,533,o),
(75,522,o),
(76,511,cs),
(77,503,o),
(80,495,o),
(81,486,cs),
(81,479,o),
(77,472,o),
(79,465,c),
(79,458,o),
(81,455,o),
(82,449,c),
(81,415,o),
(78,372,o),
(81,334,c),
(77,314,l),
(77,308,l),
(75,308,o),
(74,307,o),
(72,307,c),
(57,297,o),
(40,295,o),
(25,285,c),
(13,268,o),
(21,246,o),
(34,230,c),
(44,228,o),
(57,234,o),
(68,232,c),
(81,240,l),
(82,222,o),
(81,205,o),
(81,187,cs),
(81,173,o),
(84,159,o),
(84,143,cs),
(84,137,o),
(82,130,o),
(82,123,cs),
(82,107,o),
(84,93,o),
(84,78,cs),
(84,57,o),
(76,35,o),
(85,16,c),
(97,9,o),
(116,10,o),
(133,10,c),
(158,2,o),
(190,11,o),
(215,6,c),
(223,5,o),
(224,11,o),
(232,10,c),
(241,8,o),
(257,10,o),
(269,10,c),
(273,13,o),
(279,14,o),
(284,16,c),
(287,23,o),
(288,31,o),
(290,39,c),
(286,47,o),
(285,56,o),
(276,59,cs),
(262,63,o),
(238,63,o),
(221,60,c),
(215,64,o),
(205,65,o),
(199,69,c),
(189,67,o),
(179,66,o),
(169,63,c),
(162,63,o),
(159,66,o),
(154,66,cs),
(147,67,o),
(141,60,o),
(134,65,c),
(118,82,o),
(132,117,o),
(124,143,c),
(129,152,o),
(125,172,o),
(128,184,c),
(123,210,o),
(126,233,o),
(126,258,c),
(127,258,o),
(128,259,o),
(129,259,cs),
(138,261,o),
(144,262,o),
(151,267,c),
(165,274,o),
(179,275,o),
(192,279,c),
(211,289,o),
(229,299,o),
(247,307,c),
(246,310,o),
(249,312,o),
(249,314,c),
(253,326,o),
(250,339,o),
(246,344,cs),
(240,352,o),
(234,359,o),
(223,360,c),
(204,355,o),
(190,343,o),
(169,342,c),
(166,334,o),
(158,335,o),
(149,335,c),
(142,328,o),
(133,324,o),
(125,323,c),
(125,335,o),
(126,349,o),
(126,363,c),
(127,370,o),
(124,373,o),
(124,380,c),
(127,404,o),
(124,428,o),
(125,452,cs),
(125,478,ls)
);
}
);
width = 425;
}
);
unicode = 321;
},
{
glyphname = M;
kernLeft = M;
kernRight = M;
lastChange = "2025-01-06 14:17:27 +0000";
layers = (
{
anchors = (
{
name = bottom;
pos = (384,0);
},
{
name = top;
pos = (384,660);
}
);
layerId = "C5490108-C233-4ADF-8B6D-CFE8E3B23812";
shapes = (
{
closed = 1;
nodes = (
(722,35,o),
(721,44,o),
(719,51,c),
(721,61,o),
(720,65,o),
(721,76,c),
(718,94,o),
(715,114,o),
(716,132,c),
(714,148,o),
(710,170,o),
(712,187,c),
(704,205,o),
(709,237,o),
(701,255,c),
(700,278,o),
(697,302,o),
(695,325,cs),
(694,349,o),
(690,371,o),
(690,394,c),
(687,398,o),
(687,404,o),
(685,409,c),
(687,424,o),
(682,440,o),
(680,457,cs),
(679,474,o),
(678,491,o),
(675,506,c),
(675,524,l),
(670,544,o),
(668,566,o),
(666,589,cs),
(663,618,o),
(659,643,o),
(658,671,c),
(657,675,o),
(657,681,o),
(652,681,c),
(642,683,o),
(642,674,o),
(637,671,c),
(636,666,o),
(632,663,o),
(631,660,cs),
(629,654,o),
(630,651,o),
(628,645,c),
(623,638,l),
(621,633,o),
(620,627,o),
(618,621,cs),
(610,605,l),
(610,604,o),
(611,602,o),
(610,600,c),
(610,600,o),
(607,599,o),
(607,598,c),
(604,589,ls),
(597,571,o),
(588,556,o),
(580,541,c),
(577,517,o),
(563,504,o),
(557,484,c),
(556,478,o),
(552,475,o),
(550,470,cs),
(548,466,o),
(550,457,o),
(544,455,c),
(542,445,o),
(537,436,o),
(531,428,c),
(527,414,o),
(523,402,o),
(514,392,c),
(509,370,o),
(495,356,o),
(492,331,c),
(484,323,o),
(480,311,o),
(474,299,cs),
(466,284,o),
(462,260,o),
(450,250,c),
(449,234,o),
(439,227,o),
(438,211,c),
(424,193,o),
(418,166,o),
(404,148,c),
(404,137,l),
(391,127,o),
(396,102,o),
(380,98,c),
(371,106,o),
(369,122,o),
(360,130,c),
(359,141,o),
(354,149,o),
(352,156,cs),
(348,164,o),
(346,173,o),
(339,180,c),
(333,198,o),
(324,212,o),
(315,228,cs),
(314,233,o),
(313,239,o),
(311,244,c),
(301,259,o),
(293,276,o),
(288,295,c),
(280,304,o),
(276,317,o),
(269,328,c),
(262,350,o),
(252,366,o),
(243,385,cs),
(234,404,o),
(226,424,o),
(215,441,c),
(213,449,o),
(208,457,o),
(204,465,c),
(202,473,o),
(196,479,o),
(194,488,c),
(184,503,o),
(178,519,o),
(170,535,c),
(166,551,o),
(161,564,o),
(152,575,c),
(149,586,o),
(144,595,o),
(140,603,c),
(136,614,o),
(128,619,o),
(126,632,c),
(121,640,o),
(117,651,o),
(111,659,c),
(107,669,o),
(108,683,o),
(95,684,c),
(89,682,o),
(91,673,o),
(89,667,cs),
(85,646,o),
(86,619,o),
(82,599,c),
(83,564,o),
(76,538,o),
(72,507,cs),
(71,502,o),
(75,500,o),
(74,493,cs),
(67,454,o),
(67,409,o),
(58,373,c),
(58,368,o),
(60,363,o),
(59,356,cs),
(54,338,o),
(57,312,o),
(51,294,c),
(52,289,o),
(54,285,o),
(53,278,cs),
(51,272,o),
(48,266,o),
(48,259,c),
(49,218,o),
(39,191,o),
(40,148,c),
(34,116,o),
(34,78,o),
(30,44,c),
(29,35,o),
(22,27,o),
(25,18,c),
(30,7,o),
(51,7,o),
(67,10,c),
(69,14,o),
(73,18,o),
(76,24,c),
(74,58,o),
(83,81,o),
(82,114,cs),
(82,119,o),
(85,121,o),
(85,125,cs),
(84,139,o),
(86,152,o),
(87,164,cs),
(87,168,o),
(86,171,o),
(86,174,c),
(86,177,o),
(89,179,o),
(89,181,cs),
(89,188,o),
(88,196,o),
(89,202,cs),
(89,208,o),
(91,214,o),
(92,220,cs),
(96,250,o),
(93,284,o),
(100,309,c),
(96,344,o),
(108,377,o),
(107,416,cs),
(107,421,o),
(110,423,o),
(110,428,cs),
(109,461,o),
(114,487,o),
(115,522,cs),
(115,527,o),
(114,534,o),
(121,535,c),
(126,534,o),
(128,525,o),
(129,522,cs),
(133,512,o),
(139,504,o),
(142,494,c),
(148,481,o),
(156,466,o),
(160,449,c),
(171,441,o),
(170,420,o),
(181,410,c),
(181,398,l),
(190,392,o),
(191,379,o),
(199,371,c),
(198,366,o),
(199,362,o),
(200,358,c),
(204,352,o),
(208,347,o),
(212,340,cs),
(222,319,l),
(223,310,o),
(230,307,o),
(231,298,c),
(238,292,o),
(237,283,o),
(240,276,cs),
(243,269,o),
(249,264,o),
(251,257,cs),
(253,253,o),
(254,246,o),
(256,241,c),
(261,234,o),
(267,225,o),
(272,216,cs),
(276,206,o),
(279,195,o),
(285,186,c),
(285,169,o),
(295,161,o),
(300,151,cs),
(302,148,o),
(301,145,o),
(303,143,cs),
(305,139,o),
(307,139,o),
(309,135,c),
(310,124,o),
(315,119,o),
(319,111,c),
(327,105,o),
(328,95,o),
(333,88,c),
(333,83,o),
(336,80,o),
(336,73,c),
(344,66,o),
(349,52,o),
(352,42,c),
(353,41,o),
(352,39,o),
(352,37,c),
(352,37,o),
(355,35,o),
(355,34,c),
(362,23,o),
(370,5,o),
(381,5,cs),
(388,5,o),
(393,11,o),
(397,16,cs),
(402,22,o),
(405,29,o),
(409,34,c),
(411,47,o),
(416,57,o),
(419,69,c),
(431,83,o),
(434,105,o),
(446,120,c),
(445,129,o),
(451,131,o),
(450,141,c),
(455,146,o),
(457,154,o),
(461,161,c),
(463,168,o),
(467,173,o),
(471,180,c),
(471,185,o),
(473,188,o),
(472,195,c),
(481,206,o),
(487,219,o),
(493,234,cs),
(499,249,o),
(509,258,o),
(511,277,c),
(523,291,l),
(523,311,o),
(535,320,o),
(539,337,c),
(544,345,ls),
(546,348,o),
(548,350,o),
(550,353,cs),
(555,362,o),
(557,371,o),
(560,382,c),
(566,394,o),
(571,408,o),
(578,421,cs),
(582,434,o),
(585,450,o),
(596,460,c),
(596,469,o),
(601,474,o),
(602,484,c),
(614,496,o),
(617,516,o),
(627,529,c),
(636,512,o),
(632,491,o),
(636,470,cs),
(640,447,o),
(645,415,o),
(641,388,c),
(643,380,o),
(646,374,o),
(648,367,c),
(648,352,o),
(649,338,o),
(651,325,c),
(651,311,o),
(652,300,o),
(656,286,c),
(656,280,o),
(653,278,o),
(654,273,c),
(657,263,o),
(660,250,o),
(656,238,c),
(662,225,o),
(662,209,o),
(664,193,cs),
(666,169,o),
(668,148,o),
(669,124,c),
(675,106,l),
(669,96,o),
(677,87,o),
(673,75,c),
(683,61,o),
(675,28,o),
(687,16,c),
(697,11,o),
(718,13,o),
(724,21,c),
(724,29,l)
);
}
);
width = 748;
}
);
unicode = 77;
},
{
glyphname = N;
kernLeft = H;
kernRight = H;
lastChange = "2025-01-06 14:17:27 +0000";
layers = (
{
anchors = (
{
name = bottom;
pos = (364,0);
},
{
name = top;
pos = (364,660);
}
);
layerId = "C5490108-C233-4ADF-8B6D-CFE8E3B23812";
shapes = (
{
closed = 1;
nodes = (
(437,284,o),
(432,296,o),
(422,304,cs),
(412,313,o),
(403,320,o),
(396,333,c),
(392,337,o),
(386,339,o),
(383,345,c),
(371,359,l),
(344,387,ls),
(335,395,o),
(324,403,o),
(318,415,c),
(306,421,o),
(302,434,o),
(290,441,c),
(274,460,o),
(255,477,o),
(239,497,cs),
(236,503,o),
(228,504,o),
(224,509,c),
(221,515,o),
(216,519,o),
(212,524,cs),
(204,534,o),
(194,542,o),
(183,550,c),
(178,562,o),
(166,570,o),
(159,581,c),
(153,585,o),
(146,588,o),
(143,595,c),
(132,605,o),
(121,618,o),
(112,629,cs),
(108,634,o),
(106,638,o),
(102,641,c),
(98,647,o),
(91,650,o),
(88,656,c),
(83,660,o),
(81,669,o),
(70,668,cs),
(65,667,o),
(66,659,o),
(64,655,c),
(61,651,o),
(63,641,o),
(63,635,cs),
(63,622,o),
(67,609,o),
(66,596,cs),
(65,590,o),
(63,584,o),
(63,579,c),
(61,570,o),
(66,568,o),
(66,561,c),
(64,556,o),
(64,548,o),
(63,542,c),
(66,529,o),
(65,516,o),
(64,502,cs),
(64,486,o),
(66,471,o),
(66,457,cs),
(66,451,o),
(64,446,o),
(64,441,cs),
(64,429,o),
(67,419,o),
(64,409,c),
(69,388,o),
(66,363,o),
(66,338,cs),
(66,275,ls),
(66,269,o),
(67,262,o),
(67,257,c),
(67,221,o),
(67,181,o),
(66,143,cs),
(66,135,o),
(67,126,o),
(67,117,cs),
(67,86,o),
(56,42,o),
(68,20,c),
(80,14,o),
(105,15,o),
(112,24,c),
(117,40,o),
(109,57,o),
(109,76,cs),
(109,84,o),
(110,91,o),
(110,99,cs),
(110,113,o),
(106,128,o),
(110,143,c),
(106,167,o),
(106,208,o),
(107,231,cs),
(107,238,o),
(109,246,o),
(109,253,c),
(105,277,l),
(105,299,o),
(107,320,o),
(107,341,cs),
(107,357,o),
(104,372,o),
(109,385,c),
(104,402,o),
(105,426,o),
(105,442,c),
(106,447,o),
(105,451,o),
(105,455,cs),
(104,487,o),
(105,514,o),
(105,538,c),
(105,542,o),
(103,547,o),
(103,554,c),
(105,560,o),
(103,568,o),
(107,571,c),
(119,563,o),
(124,549,o),
(134,541,cs),
(144,532,o),
(151,519,o),
(162,511,c),
(172,501,o),
(180,488,o),
(191,481,c),
(196,476,o),
(200,471,o),
(203,465,c),
(209,460,o),
(215,456,o),
(219,449,cs),
(222,444,o),
(226,438,o),
(232,434,c),
(237,429,o),
(239,423,o),
(245,419,c),
(253,418,o),
(254,409,o),
(260,406,c),
(263,399,o),
(269,396,o),
(274,391,c),
(276,387,ls),
(280,382,o),
(285,379,o),
(289,376,c),
(292,369,o),
(296,364,o),
(302,359,c),
(308,356,o),
(312,351,o),
(315,345,c),
(322,341,o),
(326,335,o),
(329,328,c),
(343,321,o),
(352,309,o),
(362,298,c),
(370,295,o),
(371,287,o),
(378,283,c),
(381,276,o),
(390,273,o),
(392,265,c),
(402,255,o),
(413,244,o),
(424,234,cs),
(429,229,o),
(435,225,o),
(438,218,c),
(445,213,o),
(450,208,o),
(455,202,cs),
(469,186,l),
(473,179,o),
(483,178,o),
(485,169,c),
(496,160,o),
(507,150,o),
(516,138,c),
(522,132,o),
(529,130,o),
(531,122,c),
(540,119,o),
(541,109,o),
(547,106,c),
(552,100,o),
(558,95,o),
(561,88,cs),
(566,83,o),
(574,79,o),
(580,73,cs),
(582,70,o),
(581,63,o),
(585,60,c),
(592,59,o),
(594,52,o),
(599,49,c),
(605,48,o),
(606,40,o),
(611,36,cs),
(620,30,o),
(632,20,o),
(645,23,c),
(651,31,o),
(646,44,o),
(647,55,cs),
(647,65,o),
(649,75,o),
(648,84,cs),
(642,123,o),
(648,163,o),
(645,205,cs),
(645,212,o),
(649,214,o),
(648,220,cs),
(646,226,o),
(645,233,o),
(645,239,cs),
(643,275,o),
(645,313,o),
(645,352,cs),
(645,416,o),
(643,478,o),
(643,538,cs),
(643,559,o),
(640,577,o),
(645,592,c),
(639,615,o),
(651,646,o),
(639,663,c),
(632,669,o),
(615,670,o),
(606,665,c),
(602,660,o),
(601,654,o),
(599,649,c),
(598,637,o),
(600,628,o),
(601,618,c),
(597,600,o),
(604,582,o),
(599,566,c),
(602,558,o),
(600,545,o),
(603,536,c),
(599,523,o),
(602,513,o),
(603,499,c),
(598,455,o),
(604,409,o),
(601,363,cs),
(601,356,o),
(605,354,o),
(604,348,cs),
(602,326,o),
(606,302,o),
(608,280,c),
(606,275,o),
(605,269,o),
(603,264,c),
(606,257,o),
(604,248,o),
(603,241,c),
(608,227,o),
(606,208,o),
(606,190,cs),
(606,179,o),
(608,165,o),
(608,154,c),
(607,149,o),
(606,143,o),
(606,138,cs),
(606,128,o),
(611,119,o),
(604,112,c),
(600,111,o),
(600,117,o),
(599,119,cs),
(595,122,o),
(590,124,o),
(586,125,c),
(582,129,o),
(580,134,o),
(578,138,cs),
(568,148,o),
(556,158,o),
(547,168,cs),
(544,172,o),
(543,178,o),
(541,181,c),
(539,182,o),
(536,182,o),
(534,184,cs),
(528,189,o),
(524,196,o),
(520,200,cs),
(512,207,o),
(504,213,o),
(500,221,c),
(494,224,o),
(491,230,o),
(485,232,c),
(482,238,o),
(477,242,o),
(473,247,cs),
(447,276,l)
);
}
);
width = 710;
}
);
unicode = 78;
},
{
glyphname = Nhookleft;
kernLeft = Nhookleft;
kernRight = Nhookleft;
lastChange = "2025-01-06 14:17:27 +0000";
layers = (
{
layerId = "C5490108-C233-4ADF-8B6D-CFE8E3B23812";
shapes = (
{
ref = N;
},
{
closed = 1;
nodes = (
(65,49,l),
(62,36,l),
(63,36,l),
(63,30,l),
(64,6,l),
(63,0,ls),
(62,-5,o),
(63,-10,o),
(64,-21,cs),
(65,-29,l),
(65,-67,l),
(64,-73,ls),
(62,-84,o),
(62,-91,o),
(64,-102,cs),
(65,-106,l),
(63,-128,l),
(62,-131,ls),
(61,-134,o),
(58,-139,o),
(57,-149,cs),
(56,-157,l),
(43,-169,l),
(42,-169,ls),
(40,-169,o),
(38,-170,o),
(34,-173,c),
(24,-175,l),
(2,-172,l),
(-20,-159,l),
(-19,-159,o),
(-22,-157,o),
(-31,-152,c),
(-31,-150,o),
(-33,-150,o),
(-38,-150,cs),
(-43,-150,o),
(-46,-154,o),
(-47,-162,c),
(-46,-178,l),
(-47,-182,o),
(-46,-186,o),
(-45,-185,c),
(-44,-193,l),
(-44,-194,ls),
(-44,-196,o),
(-40,-197,o),
(-33,-199,c),
(-28,-201,ls),
(-25,-203,o),
(-21,-207,o),
(-11,-212,c),
(-9,-211,o),
(-5,-212,o),
(2,-212,cs),
(5,-212,l),
(13,-213,l),
(15,-213,ls),
(32,-213,o),
(39,-216,o),
(38,-214,c),
(48,-218,o),
(55,-213,o),
(58,-210,c),
(70,-202,l),
(81,-195,l),
(82,-195,l),
(82,-195,o),
(92,-190,o),
(100,-178,cs),
(104,-171,l),
(105,-170,l),
(105,-170,o),
(107,-162,o),
(108,-157,cs),
(110,-149,l),
(112,-135,l),
(112,-123,l),
(113,-106,l),
(112,-92,l),
(114,-79,l),
(113,-68,l),
(112,-50,l),
(113,-26,l),
(113,-25,ls),
(113,-4,o),
(112,0,o),
(112,10,cs),
(112,18,l),
(109,37,l),
(111,48,ls),
(112,56,o),
(110,62,o),
(105,70,c),
(84,85,l),
(84,86,o),
(80,81,o),
(73,72,cs),
(67,65,o),
(64,62,o),
(65,62,c)
);
}
);
width = 710;
}
);
unicode = 413;
},
{
glyphname = Eng;
kernLeft = H;
kernRight = J;
lastChange = "2025-01-06 14:17:27 +0000";
layers = (
{
layerId = "C5490108-C233-4ADF-8B6D-CFE8E3B23812";
shapes = (
{
ref = N;
},
{
closed = 1;
nodes = (
(608,166,o),
(607,159,o),
(609,148,cs),
(610,142,l),
(609,130,ls),
(608,122,o),
(608,115,o),
(609,105,cs),
(610,95,l),
(611,73,l),
(610,48,l),
(608,41,ls),
(607,35,o),
(606,30,o),
(607,23,c),
(606,22,ls),
(604,20,o),
(606,14,o),
(610,3,c),
(610,-44,l),
(608,-50,ls),
(606,-56,o),
(606,-61,o),
(607,-67,cs),
(610,-90,l),
(610,-122,l),
(606,-148,l),
(597,-165,l),
(581,-173,l),
(561,-175,l),
(536,-168,l),
(513,-152,l),
(513,-151,o),
(511,-149,o),
(507,-145,cs),
(504,-142,o),
(502,-150,o),
(502,-161,cs),
(501,-183,l),
(499,-183,o),
(498,-185,o),
(499,-188,c),
(499,-191,o),
(500,-193,o),
(502,-193,c),
(505,-197,ls),
(508,-199,o),
(513,-202,o),
(522,-208,c),
(523,-208,l),
(531,-212,o),
(538,-212,o),
(549,-212,cs),
(561,-212,ls),
(571,-212,o),
(579,-213,o),
(588,-210,cs),
(598,-207,l),
(599,-207,o),
(602,-205,o),
(611,-200,cs),
(618,-197,l),
(619,-197,l),
(630,-185,l),
(634,-181,l),
(634,-182,o),
(637,-178,o),
(639,-174,cs),
(643,-167,o),
(645,-161,o),
(646,-153,cs),
(648,-137,l),
(648,-110,l),
(645,-54,l),
(645,-4,l),
(646,4,ls),
(647,12,o),
(647,24,o),
(647,48,cs),
(647,83,l),
(644,76,l),
(646,94,ls),
(647,105,o),
(647,118,o),
(646,145,cs),
(645,165,l),
(643,184,l),
(615,187,l),
(615,184,l),
(612,186,o),
(609,182,o),
(609,176,cs)
);
}
);
width = 710;
}
);
unicode = 330;
},
{
glyphname = O;
kernLeft = O;
kernRight = O;
lastChange = "2025-01-06 14:17:27 +0000";
layers = (
{
anchors = (
{
name = bottom;
pos = (384,0);
},
{
name = center;
pos = (384,331);
},
{
name = ogonek;
pos = (413,10);
},
{
name = top;
pos = (384,660);
},
{
name = topleft;
pos = (29,660);
},
{
name = topright;
pos = (472,659);
}
);
layerId = "C5490108-C233-4ADF-8B6D-CFE8E3B23812";
shapes = (
{
closed = 1;
nodes = (
(711,389,o),
(710,406,o),
(708,422,c),
(703,428,o),
(701,437,o),
(698,446,cs),
(690,471,l),
(682,485,o),
(677,504,o),
(666,514,c),
(663,523,o),
(658,529,o),
(654,535,c),
(647,541,o),
(645,550,o),
(638,555,c),
(629,568,o),
(616,578,o),
(606,591,c),
(593,596,o),
(581,603,o),
(573,613,c),
(559,614,o),
(554,623,o),
(542,627,c),
(537,628,o),
(534,633,o),
(526,633,c),
(519,643,o),
(503,645,o),
(489,649,cs),
(482,652,o),
(479,656,o),
(472,659,c),
(463,658,o),
(458,662,o),
(451,664,c),
(443,664,o),
(437,667,o),
(429,669,c),
(402,671,o),
(378,673,o),
(350,670,c),
(333,664,o),
(314,666,o),
(298,661,cs),
(285,656,o),
(275,647,o),
(263,643,c),
(248,643,l),
(226,630,o),
(204,618,o),
(181,606,c),
(157,583,l),
(145,579,o),
(142,565,o),
(131,561,c),
(127,553,o),
(121,547,o),
(116,540,cs),
(111,532,o),
(105,526,o),
(101,518,c),
(90,504,o),
(84,485,o),
(72,471,c),
(69,456,o),
(64,443,o),
(59,428,cs),
(55,412,o),
(54,395,o),
(50,378,c),
(48,352,o),
(48,333,o),
(48,309,c),
(51,294,o),
(52,271,o),
(58,257,cs),
(62,246,o),
(63,236,o),
(65,227,c),
(67,223,o),
(67,219,o),
(68,215,cs),
(71,207,o),
(78,202,o),
(80,196,c),
(83,174,o),
(98,166,o),
(101,146,c),
(107,139,o),
(115,133,o),
(119,124,c),
(126,117,o),
(133,110,o),
(139,101,c),
(153,96,o),
(159,82,o),
(170,72,c),
(181,66,o),
(194,60,o),
(201,48,c),
(211,48,o),
(214,43,o),
(219,40,c),
(224,35,o),
(231,32,o),
(235,26,c),
(247,26,o),
(253,19,o),
(263,15,c),
(273,13,o),
(282,9,o),
(292,5,c),
(308,5,o),
(322,1,o),
(336,-2,c),
(376,-1,o),
(422,-1,o),
(462,2,c),
(472,9,o),
(485,12,o),
(500,15,c),
(511,25,o),
(528,29,o),
(545,32,c),
(551,38,o),
(558,43,o),
(565,48,cs),
(573,51,o),
(577,58,o),
(583,64,c),
(598,67,o),
(601,81,o),
(615,85,c),
(618,93,o),
(626,99,o),
(631,105,cs),
(633,107,o),
(633,110,o),
(635,111,c),
(639,117,o),
(644,121,o),
(649,125,c),
(653,135,o),
(660,141,o),
(664,150,c),
(668,154,o),
(669,160,o),
(672,164,c),
(676,166,o),
(676,173,o),
(680,176,c),
(687,196,o),
(695,213,o),
(705,230,c),
(707,248,o),
(713,260,o),
(716,277,c),
(717,304,o),
(715,333,o),
(715,354,cs),
(715,375,l)
);
},
{
closed = 1;
nodes = (
(671,296,o),
(673,271,o),
(666,249,cs),
(661,236,o),
(653,225,o),
(651,212,c),
(640,203,o),
(637,188,o),
(630,178,c),
(628,172,o),
(623,169,o),
(620,165,cs),
(612,155,o),
(602,143,o),
(594,129,c),
(585,124,o),
(580,117,o),
(573,111,cs),
(565,106,o),
(559,101,o),
(553,93,c),
(539,89,o),
(529,78,o),
(516,72,c),
(494,67,o),
(478,55,o),
(453,51,c),
(431,45,o),
(402,47,o),
(378,43,c),
(367,48,o),
(350,48,o),
(334,50,cs),
(324,51,o),
(310,57,o),
(293,56,c),
(278,62,o),
(265,68,o),
(249,72,c),
(237,83,o),
(223,92,o),
(207,100,c),
(201,105,o),
(198,111,o),
(191,116,cs),
(183,120,o),
(179,125,o),
(175,132,c),
(162,142,o),
(155,156,o),
(143,165,c),
(139,181,o),
(130,191,o),
(122,202,c),
(121,215,o),
(115,221,o),
(113,233,c),
(109,236,o),
(107,240,o),
(108,248,c),
(105,251,o),
(104,257,o),
(101,259,c),
(101,274,o),
(97,284,o),
(93,295,c),
(94,304,o),
(94,312,o),
(93,319,cs),
(93,327,o),
(90,334,o),
(90,342,cs),
(90,349,o),
(92,356,o),
(93,363,cs),
(94,366,o),
(96,369,o),
(97,372,cs),
(97,375,o),
(96,379,o),
(97,383,cs),
(99,395,o),
(103,408,o),
(108,417,c),
(108,425,o),
(112,428,o),
(111,436,c),
(118,447,o),
(120,457,o),
(125,466,cs),
(128,472,ls),
(130,476,o),
(133,478,o),
(136,482,c),
(142,493,ls),
(147,503,o),
(158,511,o),
(162,523,c),
(168,528,o),
(176,533,o),
(181,540,c),
(187,544,o),
(191,552,o),
(197,558,c),
(205,562,o),
(215,567,o),
(220,574,c),
(232,577,o),
(237,585,o),
(243,592,c),
(254,594,o),
(260,599,o),
(267,604,c),
(286,605,o),
(297,612,o),
(309,619,c),
(314,620,o),
(319,619,o),
(324,620,cs),
(328,621,o),
(333,623,o),
(336,623,cs),
(347,624,o),
(359,623,o),
(371,623,cs),
(381,624,o),
(391,627,o),
(401,627,cs),
(418,626,o),
(433,618,o),
(450,619,c),
(465,611,o),
(481,603,o),
(498,599,cs),
(506,596,o),
(512,590,o),
(519,586,cs),
(526,583,o),
(534,580,o),
(540,576,c),
(551,571,o),
(554,558,o),
(567,555,c),
(575,547,o),
(584,541,o),
(594,534,c),
(601,522,o),
(613,513,o),
(619,500,c),
(631,491,o),
(636,476,o),
(645,466,c),
(648,457,o),
(652,448,o),
(656,441,c),
(664,412,o),
(674,386,o),
(676,352,c),
(677,352,o),
(677,352,o),
(677,352,cs),
(677,319,l)
);
}
);
width = 764;
}
);
unicode = 79;
},
{
glyphname = Odieresis;
kernLeft = O;
kernRight = O;
lastChange = "2025-01-06 14:17:27 +0000";
layers = (
{
layerId = "C5490108-C233-4ADF-8B6D-CFE8E3B23812";
shapes = (
{
closed = 1;
nodes = (
(668,633,o),
(659,646,o),
(656,660,c),
(651,664,o),
(648,671,o),
(640,674,c),
(625,675,o),
(618,671,o),
(611,666,c),
(606,664,o),
(602,663,o),
(599,660,c),
(600,647,o),
(594,640,o),
(594,629,c),
(598,621,o),
(600,615,o),
(606,609,c),
(622,600,o),
(653,602,o),
(663,616,c)
);
},
{
closed = 1;
nodes = (
(91,613,o),
(101,609,o),
(107,603,c),
(115,604,o),
(122,602,o),
(128,602,c),
(142,610,o),
(153,619,o),
(157,637,c),
(147,643,o),
(150,660,o),
(142,666,c),
(125,672,o),
(103,670,o),
(94,658,c),
(93,643,o),
(83,636,o),
(86,619,c)
);
},
{
ref = O;
}
);
width = 764;
}
);
unicode = 214;
},
{
glyphname = Oslash;
kernLeft = O;
kernRight = O;
lastChange = "2025-01-06 14:17:27 +0000";
layers = (
{
anchors = (
{
name = bottom;
pos = (384,0);
},
{
name = top;
pos = (384,660);
}
);
layerId = "C5490108-C233-4ADF-8B6D-CFE8E3B23812";
shapes = (
{
closed = 1;
nodes = (
(711,389,o),
(710,406,o),
(708,422,c),
(703,428,o),
(701,437,o),
(698,446,cs),
(690,471,l),
(682,485,o),
(677,504,o),
(666,514,c),
(663,523,o),
(658,529,o),
(654,535,c),
(647,541,o),
(645,550,o),
(638,555,c),
(629,568,o),
(616,578,o),
(606,591,c),
(593,596,o),
(581,603,o),
(573,613,c),
(562,613,o),
(558,618,o),
(551,622,c),
(554,628,l),
(563,640,o),
(573,660,o),
(567,668,c),
(530,679,o),
(526,665,o),
(518,639,c),
(510,644,o),
(499,646,o),
(489,649,cs),
(482,652,o),
(479,656,o),
(472,659,c),
(463,658,o),
(458,662,o),
(451,664,c),
(443,664,o),
(437,667,o),
(429,669,c),
(402,671,o),
(378,673,o),
(350,670,c),
(333,664,o),
(314,666,o),
(298,661,cs),
(285,656,o),
(275,647,o),
(263,643,c),
(248,643,l),
(226,630,o),
(204,618,o),
(181,606,c),
(157,583,l),
(145,579,o),
(142,565,o),
(131,561,c),
(127,553,o),
(121,547,o),
(116,540,cs),
(111,532,o),
(105,526,o),
(101,518,c),
(90,504,o),
(84,485,o),
(72,471,c),
(69,456,o),
(64,443,o),
(59,428,cs),
(55,412,o),
(54,395,o),
(50,378,c),
(48,352,o),
(48,333,o),
(48,309,c),
(51,294,o),
(52,271,o),
(58,257,cs),
(62,246,o),
(63,236,o),
(65,227,c),
(67,223,o),
(67,219,o),
(68,215,cs),
(71,207,o),
(78,202,o),
(80,196,c),
(83,174,o),
(98,166,o),
(101,146,c),
(107,139,o),
(115,133,o),
(119,124,c),
(126,117,o),
(133,110,o),
(139,101,c),
(153,96,o),
(159,82,o),
(170,72,c),
(181,66,o),
(194,60,o),
(201,48,c),
(211,48,o),
(214,43,o),
(219,40,c),
(224,35,o),
(231,32,o),
(235,26,c),
(242,26,o),
(247,23,o),
(252,20,c),
(249,12,l),
(242,2,o),
(237,-9,o),
(234,-20,c),
(229,-28,o),
(223,-34,o),
(219,-43,c),
(220,-57,o),
(215,-60,o),
(234,-59,cs),
(254,-58,o),
(255,-59,o),
(266,-44,c),
(274,-38,o),
(271,-30,o),
(274,-25,c),
(278,-20,o),
(276,-11,o),
(279,-5,cs),
(281,0,o),
(283,4,o),
(284,8,c),
(292,5,l),
(308,5,o),
(322,1,o),
(336,-2,c),
(376,-1,o),
(422,-1,o),
(462,2,c),
(472,9,o),
(485,12,o),
(500,15,c),
(511,25,o),
(528,29,o),
(545,32,c),
(551,38,o),
(558,43,o),
(565,48,cs),
(573,51,o),
(577,58,o),
(583,64,c),
(598,67,o),
(601,81,o),
(615,85,c),
(618,93,o),
(626,99,o),
(631,105,cs),
(633,107,o),
(633,110,o),
(635,111,c),
(639,117,o),
(644,121,o),
(649,125,c),
(653,135,o),
(660,141,o),
(664,150,c),
(668,154,o),
(669,160,o),
(672,164,c),
(676,166,o),
(676,173,o),
(680,176,c),
(687,196,o),
(695,213,o),
(705,230,c),
(707,248,o),
(713,260,o),
(716,277,c),
(717,304,o),
(715,333,o),
(715,354,cs),
(715,375,l)
);
},
{
closed = 1;
nodes = (
(130,476,o),
(133,478,o),
(136,482,c),
(142,493,ls),
(147,503,o),
(158,511,o),
(162,523,c),
(168,528,o),
(176,533,o),
(181,540,c),
(187,544,o),
(191,552,o),
(197,558,c),
(205,562,o),
(215,567,o),
(220,574,c),
(232,577,o),
(237,585,o),
(243,592,c),
(254,594,o),
(260,599,o),
(267,604,c),
(286,605,o),
(297,612,o),
(309,619,c),
(314,620,o),
(319,619,o),
(324,620,cs),
(328,621,o),
(333,623,o),
(336,623,cs),
(347,624,o),
(359,623,o),
(371,623,cs),
(381,624,o),
(391,627,o),
(401,627,cs),
(418,626,o),
(433,618,o),
(450,619,c),
(465,611,o),
(481,603,o),
(498,599,c),
(503,596,l),
(494,577,ls),
(485,551,o),
(470,516,o),
(459,493,cs),
(453,479,ls),
(447,466,o),
(444,456,o),
(438,445,cs),
(432,432,o),
(404,359,o),
(393,350,c),
(390,335,ls),
(387,319,o),
(374,304,o),
(372,289,c),
(361,274,o),
(359,257,o),
(350,242,c),
(340,207,o),
(315,162,o),
(300,127,c),
(295,109,o),
(283,86,o),
(273,65,c),
(265,67,o),
(257,70,o),
(249,72,c),
(237,83,o),
(223,92,o),
(207,100,c),
(201,105,o),
(198,111,o),
(191,116,cs),
(183,120,o),
(179,125,o),
(175,132,c),
(162,142,o),
(155,156,o),
(143,165,c),
(139,181,o),
(130,191,o),
(122,202,c),
(121,215,o),
(115,221,o),
(113,233,c),
(109,236,o),
(107,240,o),
(108,248,c),
(105,251,o),
(104,257,o),
(101,259,c),
(101,274,o),
(97,284,o),
(93,295,c),
(94,304,o),
(94,312,o),
(93,319,cs),
(93,327,o),
(90,334,o),
(90,342,cs),
(90,349,o),
(92,356,o),
(93,363,cs),
(94,366,o),
(96,369,o),
(97,372,cs),
(97,375,o),
(96,379,o),
(97,383,cs),
(99,395,o),
(103,408,o),
(108,417,c),
(108,425,o),
(112,428,o),
(111,436,c),
(118,447,o),
(120,457,o),
(125,466,cs),
(128,472,ls)
);
},
{
closed = 1;
nodes = (
(551,571,o),
(554,558,o),
(567,555,c),
(575,547,o),
(584,541,o),
(594,534,c),
(601,522,o),
(613,513,o),
(619,500,c),
(631,491,o),
(636,476,o),
(645,466,c),
(648,457,o),
(652,448,o),
(656,441,c),
(664,412,o),
(674,386,o),
(676,352,c),
(677,352,o),
(677,352,o),
(677,352,cs),
(677,319,l),
(671,296,o),
(673,271,o),
(666,249,cs),
(661,236,o),
(653,225,o),
(651,212,c),
(640,203,o),
(637,188,o),
(630,178,c),
(628,172,o),
(623,169,o),
(620,165,cs),
(612,155,o),
(602,143,o),
(594,129,c),
(585,124,o),
(580,117,o),
(573,111,cs),
(565,106,o),
(559,101,o),
(553,93,c),
(539,89,o),
(529,78,o),
(516,72,c),
(494,67,o),
(478,55,o),
(453,51,c),
(431,45,o),
(402,47,o),
(378,43,c),
(367,48,o),
(350,48,o),
(334,50,cs),
(327,50,o),
(318,54,o),
(307,55,c),
(309,57,o),
(310,60,o),
(312,63,c),
(314,76,o),
(321,89,o),
(328,104,cs),
(329,105,o),
(327,105,o),
(328,107,cs),
(333,118,o),
(342,130,o),
(343,141,c),
(352,160,o),
(360,181,o),
(370,202,cs),
(377,223,ls),
(380,229,o),
(386,237,o),
(389,242,cs),
(397,258,o),
(401,274,o),
(407,287,cs),
(413,304,o),
(418,319,o),
(428,334,c),
(428,334,o),
(457,395,o),
(455,398,c),
(452,400,o),
(460,408,o),
(460,409,c),
(475,455,o),
(496,495,o),
(518,544,cs),
(521,552,o),
(527,553,o),
(530,562,cs),
(531,568,o),
(533,574,o),
(535,580,c),
(540,576,l)
);
}
);
width = 764;
}
);
unicode = 216;
},
{
glyphname = OE;
kernLeft = O;
kernRight = E;
lastChange = "2025-01-06 14:17:27 +0000";
layers = (
{
layerId = "C5490108-C233-4ADF-8B6D-CFE8E3B23812";
shapes = (
{
closed = 1;
nodes = (
(995,55,o),
(994,55,o),
(994,59,c),
(989,66,o),
(980,69,o),
(972,72,c),
(933,69,o),
(897,68,o),
(859,70,c),
(834,65,o),
(803,67,o),
(774,67,cs),
(756,66,o),
(739,62,o),
(725,67,c),
(713,94,o),
(725,130,o),
(720,163,c),
(721,167,o),
(720,173,o),
(723,176,c),
(720,221,o),
(724,276,o),
(721,327,cs),
(721,336,o),
(717,348,o),
(723,356,c),
(735,357,o),
(744,354,o),
(754,352,c),
(764,352,o),
(774,353,o),
(780,350,c),
(786,355,o),
(794,351,o),
(799,351,cs),
(802,351,o),
(806,352,o),
(808,352,cs),
(829,352,o),
(850,352,o),
(869,351,cs),
(876,351,o),
(880,353,o),
(884,353,c),
(900,351,o),
(919,352,o),
(937,352,cs),
(956,352,o),
(977,349,o),
(990,358,c),
(994,370,o),
(989,383,o),
(990,395,c),
(984,402,o),
(976,406,o),
(965,408,c),
(958,408,o),
(956,402,o),
(947,403,cs),
(933,405,o),
(918,402,o),
(903,402,cs),
(882,402,o),
(862,405,o),
(843,402,c),
(838,402,o),
(837,406,o),
(830,405,cs),
(794,403,o),
(757,393,o),
(723,402,c),
(717,463,o),
(723,526,o),
(720,589,cs),
(719,599,o),
(716,608,o),
(720,618,c),
(746,621,ls),
(753,622,o),
(757,618,o),
(765,618,cs),
(792,618,o),
(818,623,o),
(837,613,c),
(853,621,o),
(879,614,o),
(900,618,c),
(906,618,o),
(909,613,o),
(916,613,c),
(936,616,o),
(962,613,o),
(980,618,c),
(985,623,o),
(988,629,o),
(991,637,c),
(990,649,o),
(989,662,o),
(982,670,c),
(966,675,o),
(950,671,o),
(934,670,cs),
(917,669,o),
(900,671,o),
(882,671,c),
(878,672,o),
(874,670,o),
(869,670,cs),
(865,670,o),
(862,671,o),
(858,671,cs),
(857,671,o),
(856,670,o),
(853,670,cs),
(826,673,o),
(798,667,o),
(770,673,c),
(766,669,o),
(755,671,o),
(749,668,c),
(739,671,o),
(731,672,o),
(720,670,c),
(713,673,o),
(705,675,o),
(694,675,c),
(690,670,o),
(680,670,o),
(679,662,c),
(675,654,o),
(679,643,o),
(679,634,cs),
(679,629,o),
(678,623,o),
(678,618,cs),
(678,602,o),
(679,586,o),
(679,571,cs),
(679,537,ls),
(679,526,o),
(682,514,o),
(675,506,c),
(667,515,o),
(663,528,o),
(654,537,c),
(650,549,o),
(638,555,o),
(635,568,c),
(624,572,o),
(619,581,o),
(612,589,cs),
(604,597,o),
(595,601,o),
(590,611,c),
(580,614,o),
(576,621,o),
(564,621,c),
(560,627,o),
(555,633,o),
(549,637,c),
(530,639,o),
(523,654,o),
(502,654,c),
(497,659,o),
(488,661,o),
(482,665,c),
(443,675,l),
(427,673,o),
(411,676,o),
(396,675,cs),
(390,675,o),
(385,673,o),
(378,673,cs),
(374,673,o),
(371,675,o),
(367,675,c),
(343,671,l),
(326,671,o),
(309,672,o),
(297,668,c),
(288,662,o),
(276,658,o),
(265,654,c),
(244,649,l),
(233,642,o),
(224,635,o),
(211,631,c),
(207,627,o),
(205,622,o),
(201,618,c),
(197,617,o),
(192,614,o),
(187,611,c),
(178,601,o),
(166,591,o),
(157,584,cs),
(155,583,o),
(155,582,o),
(154,581,cs),
(143,571,o),
(130,559,o),
(123,547,cs),
(121,544,o),
(121,542,o),
(120,540,cs),
(119,539,o),
(117,539,o),
(117,538,c),
(116,537,o),
(116,535,o),
(115,533,cs),
(112,529,o),
(109,524,o),
(105,522,c),
(100,506,o),
(91,494,o),
(85,481,c),
(75,470,o),
(75,450,o),
(67,439,c),
(65,421,o),
(60,405,o),
(56,388,cs),
(55,382,o),
(59,380,o),
(58,373,c),
(50,356,l),
(51,346,o),
(49,338,o),
(48,330,c),
(48,305,o),
(49,278,o),
(56,257,c),
(60,253,o),
(56,251,o),
(56,246,c),
(61,239,o),
(62,229,o),
(66,222,c),
(66,205,l),
(68,198,o),
(77,195,o),
(81,187,cs),
(83,182,o),
(83,177,o),
(85,173,c),
(98,157,o),
(106,137,o),
(121,123,c),
(124,117,o),
(131,114,o),
(134,108,c),
(140,104,o),
(143,98,o),
(148,93,cs),
(154,86,o),
(162,80,o),
(167,75,cs),
(170,73,ls),
(173,71,o),
(174,67,o),
(177,65,cs),
(181,60,o),
(190,58,o),
(193,51,c),
(206,48,o),
(214,39,o),
(224,33,c),
(241,30,o),
(255,24,o),
(269,18,cs),
(284,13,o),
(302,10,o),
(315,3,c),
(325,5,o),
(330,1,o),
(336,0,c),
(367,1,o),
(391,-1,o),
(416,-3,c),
(433,1,o),
(448,2,o),
(470,3,c),
(480,9,o),
(493,11,o),
(504,15,c),
(507,20,o),
(518,18,o),
(521,23,cs),
(524,28,o),
(532,28,o),
(539,29,c),
(547,37,o),
(560,42,o),
(569,49,c),
(577,50,o),
(580,54,o),
(586,56,cs),
(593,58,o),
(594,66,o),
(598,69,cs),
(599,70,o),
(601,70,o),
(603,72,cs),
(609,78,o),
(614,86,o),
(621,88,c),
(626,95,o),
(632,100,o),
(637,105,c),
(644,109,o),
(648,118,o),
(656,122,c),
(657,131,o),
(662,138,o),
(666,145,cs),
(670,154,o),
(675,162,o),
(679,168,c),
(682,162,o),
(683,153,o),
(686,147,c),
(682,137,o),
(685,124,o),
(686,114,c),
(682,105,o),
(682,92,o),
(679,83,c),
(686,63,o),
(677,46,o),
(675,26,c),
(686,1,o),
(733,16,o),
(759,10,c),
(781,15,o),
(808,9,o),
(827,15,c),
(832,15,o),
(840,11,o),
(841,13,c),
(847,15,o),
(850,15,o),
(856,13,c),
(868,14,o),
(883,12,o),
(892,15,c),
(914,9,o),
(942,10,o),
(964,3,c),
(976,9,o),
(989,13,o),
(996,24,c),
(996,52,l)
);
},
{
closed = 1;
nodes = (
(582,120,o),
(577,118,o),
(572,116,c),
(562,105,o),
(549,99,o),
(539,90,c),
(523,82,o),
(504,76,o),
(489,67,c),
(478,65,o),
(467,59,o),
(455,57,cs),
(443,55,o),
(429,55,o),
(417,51,c),
(383,48,o),
(358,57,o),
(321,56,c),
(296,64,o),
(271,71,o),
(253,87,c),
(237,90,l),
(224,100,o),
(208,105,o),
(200,119,c),
(193,121,o),
(187,125,o),
(181,129,c),
(177,134,o),
(174,141,o),
(170,145,c),
(160,155,o),
(151,166,o),
(142,177,c),
(142,181,o),
(138,182,o),
(136,186,c),
(136,191,o),
(134,194,o),
(131,197,c),
(129,203,o),
(125,210,o),
(121,215,c),
(121,220,o),
(119,225,o),
(118,231,c),
(113,236,o),
(112,245,o),
(107,250,c),
(106,259,o),
(104,268,o),
(100,275,c),
(99,286,o),
(96,296,o),
(94,307,c),
(94,323,o),
(93,340,o),
(95,355,c),
(99,367,l),
(100,378,o),
(99,390,o),
(102,399,cs),
(105,408,ls),
(109,415,o),
(111,426,o),
(118,431,c),
(120,442,o),
(123,452,o),
(127,460,cs),
(131,465,ls),
(136,471,o),
(140,478,o),
(143,485,cs),
(151,501,l),
(151,501,o),
(152,503,o),
(152,504,c),
(156,506,o),
(160,508,o),
(162,512,cs),
(165,515,o),
(166,519,o),
(169,522,c),
(169,523,o),
(171,523,o),
(172,523,c),
(176,528,o),
(180,533,o),
(185,538,c),
(198,551,o),
(212,561,o),
(227,572,c),
(232,574,o),
(238,576,o),
(242,577,c),
(249,582,o),
(256,588,o),
(261,595,c),
(272,597,o),
(279,601,o),
(289,603,cs),
(297,606,o),
(307,608,o),
(314,613,c),
(324,612,o),
(332,614,o),
(336,618,c),
(343,618,o),
(344,615,o),
(349,615,c),
(354,618,o),
(363,618,o),
(370,621,c),
(390,620,o),
(419,620,o),
(438,613,c),
(447,616,o),
(453,613,o),
(464,613,c),
(473,608,o),
(480,601,o),
(494,600,c),
(501,597,o),
(507,593,o),
(513,587,c),
(519,588,o),
(523,587,o),
(526,586,c),
(534,581,o),
(539,576,o),
(544,571,c),
(552,567,o),
(560,565,o),
(565,561,cs),
(570,559,o),
(572,554,o),
(575,548,cs),
(578,544,o),
(584,543,o),
(586,540,c),
(591,537,o),
(592,531,o),
(596,529,c),
(603,523,o),
(611,517,o),
(617,509,cs),
(619,506,o),
(618,500,o),
(621,496,cs),
(629,487,o),
(634,477,o),
(643,470,c),
(646,460,o),
(652,453,o),
(657,445,c),
(659,434,o),
(663,426,o),
(668,416,c),
(668,409,o),
(669,409,o),
(668,403,c),
(674,392,o),
(678,380,o),
(679,364,c),
(681,365,o),
(681,364,o),
(681,363,cs),
(681,336,o),
(681,311,o),
(678,288,c),
(674,282,o),
(675,273,o),
(669,268,c),
(671,258,o),
(666,255,o),
(666,246,c),
(661,238,o),
(658,226,o),
(654,218,cs),
(650,208,o),
(644,200,o),
(640,190,c),
(633,181,o),
(624,171,o),
(619,159,c),
(606,153,o),
(602,137,o),
(593,127,cs),
(592,126,o),
(590,127,o),
(588,126,c),
(586,123,l)
);
}
);
width = 1043;
}
);
metricLeft = O;
metricRight = E;
unicode = 338;
},
{
glyphname = P;
kernLeft = H;
kernRight = P;
lastChange = "2025-01-06 14:17:27 +0000";
layers = (
{
anchors = (
{
name = bottom;
pos = (204,0);
},
{
name = top;
pos = (204,660);
}
);
layerId = "C5490108-C233-4ADF-8B6D-CFE8E3B23812";
shapes = (
{
closed = 1;
nodes = (
(138,329,o),
(151,330,cs),
(160,331,o),
(166,333,o),
(176,333,cs),
(193,334,o),
(207,330,o),
(221,331,cs),
(236,332,o),
(248,337,o),
(263,336,c),
(273,343,o),
(286,346,o),
(297,352,cs),
(306,357,o),
(314,364,o),
(321,371,cs),
(326,374,o),
(328,379,o),
(332,383,c),
(337,386,o),
(339,390,o),
(344,393,c),
(348,405,o),
(356,414,o),
(362,423,c),
(369,454,o),
(379,483,o),
(376,519,c),
(371,533,o),
(367,548,o),
(364,565,c),
(357,576,o),
(352,587,o),
(346,597,cs),
(339,607,o),
(331,616,o),
(323,625,c),
(321,625,o),
(319,627,o),
(319,628,c),
(304,636,o),
(291,645,o),
(274,651,c),
(258,658,o),
(238,662,o),
(221,669,c),
(185,663,o),
(151,665,o),
(112,663,c),
(101,665,o),
(83,667,o),
(72,665,c),
(63,657,o),
(65,640,o),
(62,627,c),
(63,621,o),
(67,618,o),
(66,611,cs),
(64,566,o),
(67,523,o),
(67,479,cs),
(67,430,o),
(65,386,o),
(66,336,cs),
(66,320,o),
(68,303,o),
(68,286,cs),
(68,261,o),
(68,237,o),
(66,213,c),
(69,156,o),
(65,86,o),
(62,27,c),
(69,18,o),
(86,12,o),
(101,16,c),
(104,20,o),
(106,23,o),
(110,26,c),
(109,45,o),
(109,66,o),
(105,83,c),
(107,90,o),
(108,108,o),
(105,117,c),
(109,131,o),
(109,148,o),
(109,164,cs),
(108,174,o),
(109,183,o),
(109,193,cs),
(108,201,o),
(105,210,o),
(105,219,cs),
(105,226,o),
(107,234,o),
(107,241,cs),
(107,257,o),
(103,272,o),
(103,284,cs),
(103,292,o),
(105,300,o),
(105,307,cs),
(107,314,o),
(105,322,o),
(112,326,cs),
(121,332,o)
);
},
{
closed = 1;
nodes = (
(299,411,o),
(287,405,o),
(281,393,c),
(272,390,o),
(265,384,o),
(257,380,c),
(247,378,o),
(238,375,o),
(230,374,cs),
(201,371,o),
(160,368,o),
(131,370,cs),
(124,371,o),
(118,369,o),
(113,372,c),
(109,378,o),
(110,390,o),
(107,397,c),
(113,413,o),
(106,437,o),
(112,455,c),
(113,461,o),
(108,463,o),
(109,468,cs),
(118,501,o),
(104,542,o),
(112,575,c),
(110,592,o),
(106,611,o),
(114,623,c),
(127,627,o),
(143,622,o),
(156,623,cs),
(162,623,o),
(166,624,o),
(172,624,cs),
(181,624,o),
(191,621,o),
(200,621,cs),
(210,621,o),
(219,624,o),
(229,621,cs),
(232,620,o),
(234,618,o),
(237,617,cs),
(244,613,o),
(252,614,o),
(259,612,cs),
(266,610,o),
(271,606,o),
(277,604,c),
(291,590,o),
(307,577,o),
(317,560,c),
(319,553,o),
(320,543,o),
(323,539,cs),
(326,532,o),
(327,524,o),
(330,519,c),
(330,505,o),
(329,492,o),
(330,482,cs),
(330,480,o),
(331,479,o),
(331,477,cs),
(330,466,o),
(322,457,o),
(323,446,c),
(319,442,o),
(316,435,o),
(316,428,c),
(307,419,ls)
);
}
);
width = 406;
}
);
unicode = 80;
},
{
glyphname = Thorn;
kernLeft = H;
kernRight = Thorn;
lastChange = "2025-01-06 14:17:27 +0000";
layers = (
{
layerId = "C5490108-C233-4ADF-8B6D-CFE8E3B23812";
shapes = (
{
closed = 1;
nodes = (
(128,553,o),
(181,551,o),
(218,557,c),
(235,550,o),
(255,546,o),
(270,539,c),
(287,533,o),
(300,523,o),
(315,516,c),
(315,515,o),
(317,513,o),
(319,513,c),
(327,504,o),
(335,495,o),
(342,485,cs),
(349,475,o),
(353,464,o),
(360,453,c),
(363,436,o),
(367,421,o),
(372,407,c),
(375,371,o),
(365,342,o),
(358,311,c),
(352,302,o),
(344,293,o),
(340,281,c),
(335,278,o),
(333,274,o),
(328,271,c),
(324,267,o),
(322,262,o),
(317,258,cs),
(310,252,o),
(302,245,o),
(294,239,cs),
(282,234,o),
(269,231,o),
(259,224,c),
(244,225,o),
(232,219,o),
(218,219,cs),
(203,218,o),
(189,222,o),
(172,221,cs),
(162,221,o),
(156,219,o),
(147,218,cs),
(134,217,o),
(98,219,o),
(89,214,c),
(90,260,l),
(95,257,o),
(121,258,o),
(127,257,cs),
(156,256,o),
(198,259,o),
(226,262,cs),
(235,263,o),
(243,266,o),
(254,268,c),
(261,272,o),
(268,278,o),
(277,281,c),
(283,293,o),
(295,299,o),
(303,307,cs),
(313,315,l),
(313,323,o),
(315,330,o),
(319,333,c),
(318,345,o),
(326,353,o),
(327,365,cs),
(327,367,o),
(326,368,o),
(326,370,cs),
(325,380,o),
(326,393,o),
(326,407,c),
(323,412,o),
(322,420,o),
(319,427,cs),
(316,431,o),
(315,441,o),
(314,447,c),
(303,465,o),
(287,478,o),
(274,492,c),
(267,494,o),
(262,498,o),
(256,500,cs),
(248,502,o),
(240,501,o),
(233,504,cs),
(230,505,o),
(228,508,o),
(225,509,cs),
(216,512,o),
(206,509,o),
(197,509,cs),
(187,509,o),
(178,512,o),
(168,512,cs),
(162,512,o),
(158,511,o),
(152,511,cs),
(139,510,o),
(105,515,o),
(91,511,c),
(89,551,l)
);
},
{
closed = 1;
nodes = (
(102,322,o),
(104,314,o),
(102,307,cs),
(101,300,o),
(99,292,o),
(99,284,cs),
(99,272,o),
(104,257,o),
(104,241,cs),
(104,234,o),
(102,226,o),
(102,219,cs),
(102,210,o),
(105,201,o),
(105,193,cs),
(105,183,o),
(105,174,o),
(105,164,cs),
(105,148,o),
(105,131,o),
(102,117,c),
(105,108,o),
(104,90,o),
(102,83,c),
(105,66,o),
(105,45,o),
(106,26,c),
(103,23,o),
(100,20,o),
(97,16,c),
(82,12,o),
(66,18,o),
(58,27,c),
(61,86,o),
(66,156,o),
(62,213,c),
(65,237,o),
(65,261,o),
(65,286,cs),
(65,303,o),
(62,320,o),
(62,336,cs),
(61,386,o),
(64,430,o),
(64,479,cs),
(64,523,o),
(60,566,o),
(62,611,cs),
(63,618,o),
(59,621,o),
(58,627,c),
(61,640,o),
(59,657,o),
(68,665,c),
(79,667,o),
(97,665,o),
(108,663,c),
(112,659,l),
(111,656,o),
(113,649,o),
(113,643,c),
(110,623,l),
(103,611,o),
(106,592,o),
(108,575,c),
(100,542,o),
(114,501,o),
(105,468,cs),
(105,463,o),
(109,461,o),
(108,455,c),
(103,437,o),
(109,413,o),
(104,397,c),
(106,390,o),
(109,384,o),
(109,372,cs),
(109,361,o),
(111,346,o),
(109,343,c),
(108,326,l)
);
}
);
width = 402;
}
);
metricRight = P;
unicode = 222;
},
{
glyphname = Q;
kernLeft = O;
kernRight = O;
lastChange = "2025-01-06 14:17:27 +0000";
layers = (
{
anchors = (
{
name = bottom;
pos = (387,0);
},
{
name = top;
pos = (387,660);
}
);
layerId = "C5490108-C233-4ADF-8B6D-CFE8E3B23812";
shapes = (
{
closed = 1;
nodes = (
(177,605,o),
(177,602,o),
(175,601,c),
(173,599,o),
(169,599,o),
(167,598,c),
(162,595,o),
(161,590,o),
(155,589,c),
(148,575,o),
(138,568,o),
(126,558,c),
(120,545,o),
(111,532,o),
(103,521,cs),
(94,508,o),
(87,494,o),
(79,482,c),
(80,476,o),
(76,474,o),
(77,468,c),
(68,457,o),
(67,437,o),
(61,423,c),
(59,396,o),
(50,386,o),
(53,359,c),
(46,344,o),
(48,329,o),
(48,313,cs),
(48,299,o),
(47,289,o),
(49,278,cs),
(51,273,o),
(56,269,o),
(57,263,cs),
(60,255,o),
(59,247,o),
(60,239,c),
(66,230,o),
(69,219,o),
(72,211,cs),
(75,204,ls),
(84,184,o),
(94,166,o),
(103,146,c),
(110,137,o),
(116,125,o),
(123,115,c),
(127,112,o),
(132,109,o),
(136,105,c),
(146,89,l),
(154,86,o),
(159,77,o),
(163,74,c),
(165,72,o),
(168,72,o),
(171,71,c),
(179,66,o),
(186,58,o),
(193,51,c),
(205,51,o),
(212,44,o),
(220,40,c),
(232,39,o),
(238,33,o),
(247,30,cs),
(256,27,o),
(265,25,o),
(271,18,c),
(288,14,o),
(303,9,o),
(319,4,c),
(336,3,o),
(352,0,o),
(369,-3,c),
(384,0,o),
(398,-3,o),
(413,-5,c),
(424,-4,o),
(436,0,o),
(444,2,c),
(446,2,o),
(447,1,o),
(449,2,c),
(449,2,o),
(453,5,o),
(454,5,cs),
(475,10,ls),
(482,11,o),
(488,13,o),
(496,13,c),
(514,26,o),
(536,33,o),
(553,47,c),
(559,49,o),
(565,51,o),
(572,54,cs),
(580,56,o),
(579,67,o),
(590,65,c),
(596,66,o),
(595,59,o),
(598,55,cs),
(605,47,o),
(618,42,o),
(621,30,c),
(634,26,o),
(639,14,o),
(653,10,cs),
(658,9,o),
(668,10,o),
(675,10,c),
(684,12,o),
(699,10,o),
(701,22,c),
(705,28,o),
(694,32,o),
(692,37,c),
(687,41,o),
(682,48,o),
(677,51,c),
(657,72,l),
(650,80,ls),
(649,81,o),
(647,80,o),
(645,81,c),
(645,82,o),
(644,84,o),
(644,84,c),
(641,87,o),
(640,91,o),
(637,93,c),
(633,99,o),
(626,101,o),
(624,109,c),
(629,116,o),
(636,119,o),
(642,123,c),
(648,134,o),
(660,141,o),
(664,153,c),
(673,159,o),
(678,167,o),
(683,177,cs),
(686,182,o),
(683,192,o),
(685,195,cs),
(692,206,o),
(701,217,o),
(707,229,c),
(711,247,o),
(716,263,o),
(716,286,c),
(721,298,o),
(721,314,o),
(721,333,c),
(717,341,o),
(718,355,o),
(714,365,c),
(716,390,o),
(709,404,o),
(709,429,c),
(706,435,o),
(702,441,o),
(702,449,c),
(700,457,o),
(694,461,o),
(695,471,c),
(688,483,o),
(681,497,o),
(677,512,c),
(674,518,o),
(668,521,o),
(664,525,c),
(663,541,o),
(649,543,o),
(646,558,c),
(642,561,o),
(636,561,o),
(633,566,cs),
(630,570,o),
(629,577,o),
(627,581,c),
(614,590,o),
(606,604,o),
(588,608,c),
(582,618,o),
(574,622,o),
(564,628,c),
(560,630,o),
(556,634,o),
(550,634,c),
(547,637,o),
(545,641,o),
(542,646,c),
(534,646,o),
(527,650,o),
(522,655,c),
(498,653,o),
(486,664,o),
(466,665,c),
(460,667,o),
(457,671,o),
(450,671,cs),
(439,672,o),
(428,673,o),
(414,673,c),
(409,675,o),
(407,678,o),
(406,680,c),
(394,676,o),
(381,677,o),
(375,683,c),
(368,678,o),
(359,677,o),
(352,675,c),
(334,675,o),
(320,671,o),
(306,667,c),
(289,667,o),
(278,658,o),
(263,656,c),
(258,651,o),
(252,652,o),
(246,649,cs),
(229,641,o),
(215,630,o),
(197,623,c),
(179,605,l)
);
},
{
closed = 1;
nodes = (
(103,266,o),
(103,280,o),
(98,290,c),
(99,301,o),
(97,309,o),
(93,315,c),
(95,325,o),
(92,333,o),
(92,341,cs),
(92,342,o),
(93,344,o),
(93,347,cs),
(93,354,o),
(92,366,o),
(95,375,c),
(95,377,o),
(98,379,o),
(98,380,cs),
(98,382,o),
(97,384,o),
(98,386,c),
(104,407,l),
(109,421,o),
(116,434,o),
(118,448,c),
(125,457,o),
(129,468,o),
(133,480,c),
(142,489,o),
(150,501,o),
(157,514,c),
(170,526,o),
(181,541,o),
(196,552,c),
(201,559,o),
(212,561,o),
(217,570,c),
(224,574,o),
(233,579,o),
(238,586,c),
(253,590,o),
(263,598,o),
(275,604,c),
(280,603,o),
(282,607,o),
(289,605,c),
(295,608,o),
(297,614,o),
(305,615,cs),
(309,616,o),
(314,617,o),
(320,616,c),
(326,618,o),
(333,621,o),
(339,623,c),
(352,622,o),
(363,626,o),
(373,623,c),
(386,626,l),
(424,623,o),
(460,612,o),
(495,603,c),
(506,592,o),
(527,589,o),
(539,577,c),
(550,574,o),
(559,567,o),
(567,561,c),
(574,553,o),
(581,546,o),
(591,541,c),
(599,525,o),
(613,516,o),
(620,501,c),
(631,492,o),
(634,478,o),
(642,469,c),
(644,466,o),
(643,460,o),
(648,458,c),
(648,444,o),
(655,435,o),
(659,426,cs),
(661,422,o),
(661,417,o),
(661,412,c),
(666,401,o),
(666,383,o),
(670,370,c),
(670,357,o),
(671,345,o),
(673,334,c),
(669,310,o),
(675,276,o),
(662,260,c),
(662,256,o),
(663,250,o),
(661,247,cs),
(652,228,o),
(645,207,o),
(634,190,cs),
(623,173,o),
(617,153,o),
(598,143,c),
(576,148,o),
(567,166,o),
(552,177,c),
(549,181,o),
(548,186,o),
(545,190,c),
(541,194,o),
(535,197,o),
(529,200,c),
(523,207,o),
(516,217,o),
(506,221,c),
(501,231,o),
(495,238,o),
(485,244,c),
(484,252,o),
(477,255,o),
(475,262,c),
(466,267,o),
(461,274,o),
(454,280,c),
(442,281,o),
(434,277,o),
(428,283,c),
(421,282,o),
(418,278,o),
(412,277,c),
(404,280,o),
(400,277,o),
(397,273,c),
(397,257,o),
(412,253,o),
(413,238,c),
(419,238,o),
(423,236,o),
(428,234,c),
(430,225,o),
(437,219,o),
(444,215,cs),
(450,209,o),
(454,201,o),
(464,200,c),
(466,196,o),
(469,192,o),
(470,187,c),
(479,184,o),
(481,176,o),
(490,174,c),
(493,166,o),
(500,162,o),
(505,156,c),
(511,157,o),
(509,149,o),
(514,148,cs),
(518,147,o),
(519,143,o),
(523,141,c),
(528,135,o),
(533,131,o),
(538,124,c),
(543,120,o),
(552,118,o),
(554,109,c),
(550,93,o),
(535,89,o),
(522,83,cs),
(509,75,o),
(493,70,o),
(483,62,c),
(469,62,o),
(463,55,o),
(452,52,c),
(425,51,o),
(394,55,o),
(370,50,c),
(362,52,o),
(352,51,o),
(346,54,c),
(327,53,o),
(311,56,o),
(295,59,c),
(284,67,o),
(269,72,o),
(253,75,c),
(242,86,o),
(228,92,o),
(218,103,c),
(211,104,o),
(205,105,o),
(200,108,c),
(193,109,o),
(194,118,o),
(189,122,c),
(182,124,o),
(178,128,o),
(172,131,c),
(168,138,o),
(163,146,o),
(156,152,c),
(155,163,o),
(146,168,o),
(142,176,c),
(141,182,o),
(138,190,o),
(135,196,c),
(134,202,o),
(127,204,o),
(124,209,c),
(122,219,o),
(118,228,o),
(116,239,c),
(106,256,l)
);
}
);
width = 769;
}
);
unicode = 81;
},
{
glyphname = R;
kernLeft = H;
kernRight = R;
lastChange = "2025-01-06 14:17:27 +0000";
layers = (
{
anchors = (
{
name = bottom;
pos = (200,0);
},
{
name = top;
pos = (200,660);
}
);
layerId = "C5490108-C233-4ADF-8B6D-CFE8E3B23812";
shapes = (
{
closed = 1;
nodes = (
(352,69,o),
(345,77,o),
(337,85,c),
(336,91,o),
(331,93,o),
(332,101,c),
(323,106,o),
(318,115,o),
(312,123,c),
(309,136,o),
(300,145,o),
(291,155,c),
(285,168,o),
(275,177,o),
(269,189,c),
(257,206,o),
(243,220,o),
(235,240,c),
(224,249,o),
(218,260,o),
(213,275,c),
(210,279,o),
(204,282,o),
(204,290,c),
(200,293,o),
(197,300,o),
(197,308,c),
(199,313,o),
(203,316,o),
(207,321,c),
(222,324,o),
(238,325,o),
(254,327,c),
(263,333,o),
(273,338,o),
(284,342,c),
(294,352,o),
(306,361,o),
(316,371,c),
(319,378,o),
(327,380,o),
(329,389,c),
(334,393,o),
(337,400,o),
(343,405,c),
(350,420,o),
(355,434,o),
(360,450,c),
(362,471,o),
(361,485,o),
(360,507,c),
(356,518,o),
(354,530,o),
(352,542,c),
(348,554,o),
(342,565,o),
(338,579,c),
(330,584,o),
(327,595,o),
(320,601,cs),
(314,609,o),
(305,615,o),
(299,622,c),
(285,629,o),
(273,637,o),
(261,646,c),
(253,648,o),
(246,652,o),
(239,656,c),
(207,656,o),
(173,662,o),
(143,657,c),
(137,657,o),
(132,660,o),
(125,660,cs),
(108,658,o),
(82,664,o),
(68,655,c),
(56,634,o),
(67,585,o),
(63,562,cs),
(62,560,o),
(61,558,o),
(61,554,cs),
(61,537,o),
(64,523,o),
(58,509,c),
(60,500,o),
(61,495,o),
(60,486,c),
(63,476,o),
(65,463,o),
(66,450,cs),
(67,437,o),
(67,423,o),
(67,410,cs),
(65,390,o),
(57,372,o),
(58,354,cs),
(59,339,o),
(62,324,o),
(61,305,c),
(65,286,l),
(63,278,o),
(62,268,o),
(62,257,cs),
(62,250,o),
(66,247,o),
(65,239,c),
(67,219,o),
(61,200,o),
(65,182,c),
(61,165,o),
(61,139,o),
(62,120,c),
(56,100,o),
(60,79,o),
(60,58,cs),
(60,49,o),
(56,44,o),
(57,34,c),
(62,25,o),
(71,13,o),
(84,13,cs),
(92,13,o),
(97,19,o),
(104,22,c),
(113,37,o),
(102,62,o),
(106,81,c),
(104,87,o),
(102,94,o),
(101,103,cs),
(100,112,o),
(105,114,o),
(104,123,cs),
(103,146,o),
(107,175,o),
(104,195,cs),
(101,213,o),
(105,232,o),
(103,253,cs),
(103,259,o),
(106,263,o),
(107,269,c),
(106,281,o),
(107,291,o),
(110,299,cs),
(112,309,o),
(113,318,o),
(124,318,c),
(128,316,o),
(131,312,o),
(134,307,c),
(139,304,o),
(141,298,o),
(144,295,c),
(149,284,o),
(160,279,o),
(161,265,c),
(173,259,o),
(175,244,o),
(183,235,c),
(189,232,o),
(189,224,o),
(194,219,cs),
(200,215,o),
(201,207,o),
(206,203,c),
(209,197,o),
(214,189,o),
(217,185,cs),
(221,177,o),
(224,171,o),
(230,165,c),
(235,162,ls),
(236,162,o),
(236,159,o),
(238,157,cs),
(242,151,o),
(247,144,o),
(251,137,cs),
(257,124,o),
(267,112,o),
(276,100,c),
(281,95,o),
(283,86,o),
(288,80,c),
(295,76,o),
(295,66,o),
(303,62,c),
(305,53,o),
(312,49,o),
(316,43,cs),
(320,36,o),
(325,29,o),
(330,23,c),
(338,22,o),
(347,10,o),
(358,11,cs),
(368,11,o),
(375,18,o),
(377,29,cs),
(377,31,o),
(375,31,o),
(376,34,c),
(356,59,l)
);
},
{
closed = 1;
nodes = (
(116,364,o),
(110,368,c),
(105,376,o),
(108,394,o),
(106,406,c),
(109,415,o),
(110,426,o),
(113,434,c),
(111,442,o),
(111,452,o),
(113,460,c),
(106,478,o),
(114,497,o),
(113,515,cs),
(113,524,o),
(110,532,o),
(110,544,cs),
(110,547,o),
(108,553,o),
(109,554,c),
(109,554,o),
(110,554,o),
(110,556,cs),
(109,563,o),
(106,571,o),
(105,578,c),
(105,591,o),
(109,602,o),
(112,616,c),
(119,619,o),
(130,618,o),
(139,617,cs),
(144,616,o),
(157,618,o),
(162,614,c),
(179,618,o),
(189,611,o),
(206,612,c),
(219,610,o),
(227,602,o),
(240,606,c),
(255,597,o),
(269,591,o),
(279,579,cs),
(289,569,o),
(293,556,o),
(302,546,c),
(304,533,o),
(306,524,o),
(307,513,c),
(312,503,o),
(315,494,o),
(314,482,cs),
(313,468,o),
(302,458,o),
(302,447,cs),
(301,439,o),
(304,435,o),
(303,428,cs),
(300,417,o),
(293,409,o),
(284,402,c),
(282,397,o),
(274,398,o),
(274,391,c),
(269,389,o),
(267,384,o),
(262,381,c),
(257,379,o),
(251,378,o),
(245,377,c),
(239,374,o),
(235,371,o),
(227,371,c),
(225,364,o),
(216,366,o),
(212,362,c),
(182,365,o),
(153,355,o),
(129,367,c),
(122,366,o)
);
}
);
width = 415;
}
);
unicode = 82;
},
{
glyphname = S;
kernLeft = S;
kernRight = S;
lastChange = "2025-01-06 14:17:27 +0000";
layers = (
{
anchors = (
{
name = bottom;
pos = (221,0);
},
{
name = top;
pos = (221,660);
}
);
layerId = "C5490108-C233-4ADF-8B6D-CFE8E3B23812";
shapes = (
{
closed = 1;
nodes = (
(381,291,o),
(365,306,o),
(350,320,c),
(323,331,o),
(313,355,o),
(278,355,c),
(274,360,o),
(268,365,o),
(262,369,c),
(241,374,o),
(225,385,o),
(202,389,c),
(183,400,o),
(167,411,o),
(146,421,c),
(134,435,o),
(118,444,o),
(108,460,c),
(109,476,o),
(105,486,o),
(103,499,cs),
(102,508,o),
(104,521,o),
(101,527,c),
(105,535,o),
(107,543,o),
(110,552,c),
(115,557,o),
(120,564,o),
(122,573,c),
(135,583,o),
(144,599,o),
(160,607,cs),
(171,613,o),
(186,619,o),
(202,623,cs),
(225,629,o),
(248,621,o),
(269,616,c),
(281,608,o),
(293,599,o),
(306,592,c),
(311,582,o),
(321,579,o),
(324,568,c),
(333,563,o),
(335,551,o),
(347,546,c),
(353,548,o),
(358,552,o),
(363,556,c),
(366,561,o),
(373,562,o),
(372,572,cs),
(372,582,o),
(367,586,o),
(363,592,c),
(360,599,o),
(356,604,o),
(352,611,c),
(339,621,o),
(326,633,o),
(314,644,c),
(304,649,o),
(294,654,o),
(287,661,c),
(275,661,o),
(267,666,o),
(257,668,cs),
(244,669,o),
(232,670,o),
(220,672,c),
(210,669,o),
(199,666,o),
(185,667,c),
(178,662,o),
(167,661,o),
(158,657,cs),
(149,654,o),
(142,649,o),
(132,646,c),
(124,639,o),
(118,632,o),
(107,628,c),
(98,615,o),
(85,604,o),
(74,592,c),
(66,573,o),
(60,552,o),
(53,531,c),
(56,516,o),
(54,496,o),
(54,479,c),
(56,474,o),
(58,470,o),
(58,466,c),
(67,448,o),
(70,426,o),
(83,413,c),
(86,405,o),
(96,403,o),
(99,394,c),
(103,392,o),
(104,387,o),
(109,387,c),
(112,383,o),
(115,379,o),
(120,378,c),
(124,375,o),
(128,373,o),
(132,371,cs),
(137,370,o),
(140,367,o),
(144,364,cs),
(146,363,o),
(148,364,o),
(151,363,cs),
(154,362,o),
(156,359,o),
(158,358,cs),
(162,356,o),
(167,356,o),
(173,353,c),
(177,352,o),
(181,350,o),
(184,348,cs),
(199,342,o),
(212,334,o),
(226,332,c),
(237,325,o),
(249,320,o),
(262,316,c),
(272,306,o),
(287,302,o),
(301,297,c),
(310,290,o),
(318,283,o),
(328,277,c),
(337,269,o),
(345,261,o),
(352,253,c),
(358,240,o),
(368,230,o),
(371,216,c),
(371,200,o),
(373,189,o),
(373,174,c),
(370,162,o),
(367,150,o),
(361,141,c),
(357,129,o),
(347,124,o),
(344,111,c),
(338,106,o),
(332,101,o),
(328,96,cs),
(324,92,o),
(323,87,o),
(319,85,c),
(309,82,o),
(303,75,o),
(296,69,c),
(290,69,o),
(287,66,o),
(283,64,c),
(271,62,o),
(263,57,o),
(255,53,c),
(242,54,o),
(237,48,o),
(227,47,c),
(219,48,o),
(207,48,o),
(198,47,cs),
(191,46,o),
(191,51,o),
(185,51,cs),
(180,52,o),
(179,48,o),
(172,49,c),
(163,55,o),
(154,60,o),
(143,62,c),
(135,68,o),
(129,76,o),
(118,78,c),
(110,85,o),
(103,90,o),
(94,96,c),
(90,105,o),
(85,111,o),
(79,117,c),
(77,126,o),
(71,130,o),
(70,138,c),
(67,146,o),
(64,155,o),
(56,158,c),
(48,158,o),
(45,152,o),
(39,149,c),
(36,143,o),
(29,142,o),
(29,134,cs),
(28,124,o),
(30,118,o),
(29,107,c),
(36,100,o),
(42,93,o),
(45,84,c),
(62,69,o),
(76,51,o),
(91,36,c),
(107,29,o),
(123,22,o),
(136,12,c),
(163,6,o),
(197,0,o),
(229,0,cs),
(234,0,o),
(243,3,o),
(245,4,c),
(248,4,o),
(248,2,o),
(252,2,cs),
(260,3,o),
(268,7,o),
(276,7,c),
(285,11,o),
(295,16,o),
(307,20,c),
(309,25,o),
(317,25,o),
(320,29,c),
(327,30,o),
(329,36,o),
(336,34,c),
(347,48,o),
(357,60,o),
(371,69,c),
(375,78,o),
(380,86,o),
(387,94,c),
(391,103,o),
(393,114,o),
(401,120,c),
(403,131,o),
(409,142,o),
(410,153,cs),
(413,164,o),
(415,180,o),
(415,192,c),
(410,196,o),
(413,208,o),
(410,214,c),
(409,221,o),
(407,228,o),
(408,238,c),
(394,274,l)
);
}
);
width = 444;
}
);
unicode = 83;
},
{
glyphname = Germandbls;
kernLeft = Germandbls;
kernRight = Germandbls;
lastChange = "2025-01-06 14:17:27 +0000";
layers = (
{
hints = (
{
horizontal = 1;
place = (1,24);
type = Stem;
},
{
horizontal = 1;
place = (685,24);
type = Stem;
},
{
place = (100,23);
type = Stem;
},
{
place = (252,24);
type = Stem;
},
{
place = (340,24);
type = Stem;
},
{
horizontal = 1;
place = (6,24);
type = Stem;
},
{
place = (371,24);
type = Stem;
}
);
layerId = "C5490108-C233-4ADF-8B6D-CFE8E3B23812";
shapes = (
{
closed = 1;
nodes = (
(117,24,l),
(116,107,l),
(118,124,l),
(115,202,l),
(119,238,l),
(117,439,l),
(118,471,l),
(117,523,l),
(119,602,l),
(116,611,l),
(124,613,l),
(137,610,ls),
(141,609,o),
(166,611,o),
(173,611,cs),
(198,612,l),
(202,611,ls),
(206,610,o),
(210,611,o),
(219,611,cs),
(246,612,l),
(252,611,ls),
(256,610,o),
(261,611,o),
(272,612,cs),
(280,613,l),
(328,613,l),
(333,612,ls),
(344,610,o),
(351,611,o),
(360,611,cs),
(387,612,l),
(392,611,ls),
(396,610,o),
(400,611,o),
(407,611,cs),
(432,612,l),
(439,608,l),
(418,576,l),
(401,555,l),
(390,540,l),
(384,531,ls),
(377,523,o),
(371,518,o),
(367,508,cs),
(364,503,l),
(348,482,l),
(336,466,l),
(323,448,l),
(310,428,l),
(296,411,l),
(282,392,l),
(275,382,ls),
(264,367,o),
(260,355,o),
(266,354,cs),
(273,352,o),
(277,352,o),
(281,353,c),
(306,354,l),
(312,353,ls),
(315,352,o),
(320,352,o),
(331,354,cs),
(336,355,l),
(356,355,l),
(384,353,l),
(401,351,l),
(428,341,l),
(438,336,l),
(448,333,l),
(474,316,l),
(486,304,l),
(505,282,l),
(510,274,l),
(514,264,l),
(522,237,l),
(523,226,l),
(524,214,l),
(526,185,l),
(525,174,l),
(523,162,l),
(514,135,l),
(510,126,l),
(504,117,l),
(490,96,l),
(473,80,l),
(452,66,l),
(428,54,l),
(415,50,l),
(384,45,l),
(371,44,l),
(342,44,l),
(324,46,l),
(311,48,l),
(285,58,l),
(265,70,l),
(249,87,l),
(237,106,l),
(234,113,o),
(226,116,o),
(213,116,cs),
(207,116,ls),
(192,116,o),
(184,111,o),
(186,104,cs),
(188,94,o),
(192,88,o),
(197,79,cs),
(200,73,l),
(203,66,ls),
(209,55,o),
(215,48,o),
(223,43,cs),
(239,31,ls),
(248,25,o),
(254,21,o),
(263,16,cs),
(274,11,l),
(298,3,l),
(326,-3,l),
(357,-5,l),
(356,-5,l),
(366,-6,ls),
(377,-7,o),
(385,-6,o),
(395,-3,cs),
(409,1,l),
(417,2,ls),
(428,3,o),
(435,5,o),
(445,10,cs),
(457,15,l),
(465,18,ls),
(474,22,o),
(481,27,o),
(489,33,cs),
(511,51,l),
(530,71,l),
(534,75,ls),
(542,83,o),
(545,90,o),
(550,100,cs),
(554,108,l),
(558,117,ls),
(561,126,o),
(565,134,o),
(567,143,cs),
(569,152,l),
(572,162,ls),
(575,173,o),
(575,181,o),
(575,191,cs),
(575,209,ls),
(575,219,o),
(573,227,o),
(571,238,cs),
(569,247,l),
(567,256,ls),
(565,266,o),
(563,274,o),
(558,283,cs),
(554,290,l),
(550,297,ls),
(545,307,o),
(542,314,o),
(535,322,cs),
(530,328,l),
(514,345,l),
(497,359,l),
(478,372,l),
(457,383,l),
(447,387,ls),
(438,390,o),
(430,393,o),
(420,395,cs),
(409,397,l),
(399,400,ls),
(389,403,o),
(381,403,o),
(371,403,cs),
(356,403,l),
(370,431,l),
(375,440,l),
(390,458,l),
(403,476,l),
(416,492,l),
(429,513,l),
(484,587,l),
(498,605,l),
(511,623,l),
(525,642,ls),
(533,652,o),
(527,660,o),
(514,661,c),
(491,660,l),
(351,660,l),
(327,661,l),
(304,660,l),
(257,660,l),
(235,661,l),
(210,660,l),
(187,661,l),
(163,660,l),
(140,661,l),
(117,660,l),
(94,661,l),
(93,661,l),
(92,661,ls),
(77,661,o),
(69,653,o),
(69,637,cs),
(69,595,l),
(68,568,ls),
(67,544,o),
(67,531,o),
(67,520,cs),
(68,461,l),
(67,447,ls),
(67,437,o),
(67,424,o),
(68,399,cs),
(69,377,l),
(69,302,l),
(67,243,ls),
(67,221,o),
(67,205,o),
(67,181,cs),
(68,160,l),
(68,48,l),
(67,35,ls),
(67,25,o),
(67,18,o),
(67,10,cs),
(67,4,o),
(76,0,o),
(90,0,cs),
(92,0,ls),
(108,0,o),
(117,4,o),
(117,12,cs)
);
}
);
width = 618;
}
);
unicode = 7838;
},
{
glyphname = T;
kernLeft = T;
kernRight = T;
lastChange = "2025-01-06 14:17:27 +0000";
layers = (
{
anchors = (
{
name = bottom;
pos = (221,0);
},
{
name = center;
pos = (221,331);
},
{
name = top;
pos = (221,660);
}
);
layerId = "C5490108-C233-4ADF-8B6D-CFE8E3B23812";
shapes = (
{
closed = 1;
nodes = (
(259,657,o),
(249,656,o),
(238,656,cs),
(226,656,o),
(214,656,o),
(201,654,c),
(190,656,o),
(177,657,o),
(162,659,c),
(134,656,l),
(103,655,o),
(68,658,o),
(42,656,c),
(31,648,o),
(24,630,o),
(32,616,c),
(38,614,o),
(42,610,o),
(50,611,cs),
(57,612,o),
(64,614,o),
(71,614,cs),
(79,615,o),
(88,612,o),
(97,613,cs),
(104,613,o),
(109,616,o),
(116,616,cs),
(123,616,o),
(130,614,o),
(137,614,cs),
(145,614,o),
(152,615,o),
(160,614,cs),
(173,612,o),
(190,613,o),
(196,601,c),
(197,593,o),
(191,591,o),
(193,582,c),
(201,558,o),
(190,523,o),
(196,497,c),
(191,472,o),
(192,438,o),
(196,413,c),
(196,406,o),
(192,403,o),
(189,398,c),
(194,394,o),
(192,388,o),
(192,383,cs),
(194,356,o),
(187,333,o),
(189,310,cs),
(190,300,o),
(193,292,o),
(194,283,cs),
(194,275,o),
(192,268,o),
(192,260,cs),
(192,256,o),
(194,249,o),
(194,244,cs),
(194,232,o),
(192,222,o),
(195,214,c),
(195,209,o),
(192,205,o),
(192,200,c),
(198,190,o),
(194,180,o),
(194,169,cs),
(194,139,o),
(194,105,o),
(189,76,cs),
(187,69,o),
(191,68,o),
(190,63,cs),
(186,50,o),
(186,29,o),
(187,16,c),
(191,12,o),
(195,9,o),
(200,6,c),
(208,5,o),
(214,7,o),
(220,9,c),
(231,7,o),
(233,12,o),
(238,16,c),
(241,28,o),
(237,41,o),
(237,53,cs),
(237,56,o),
(238,60,o),
(238,63,cs),
(238,66,o),
(237,68,o),
(237,71,cs),
(237,79,o),
(238,86,o),
(238,92,cs),
(238,109,o),
(236,126,o),
(238,143,cs),
(238,149,o),
(238,156,o),
(238,162,cs),
(239,179,o),
(235,197,o),
(240,212,c),
(238,217,o),
(237,220,o),
(238,227,cs),
(238,235,o),
(241,240,o),
(241,248,cs),
(242,257,o),
(240,267,o),
(240,276,cs),
(239,290,o),
(243,304,o),
(241,315,c),
(241,323,l),
(240,352,ls),
(240,353,o),
(242,353,o),
(241,356,c),
(241,362,o),
(238,368,o),
(238,374,cs),
(238,388,o),
(242,402,o),
(239,416,c),
(245,433,o),
(241,453,o),
(242,473,cs),
(242,478,o),
(243,484,o),
(243,489,cs),
(243,496,o),
(240,503,o),
(240,510,cs),
(240,518,o),
(242,526,o),
(242,534,cs),
(242,563,o),
(239,585,o),
(240,608,c),
(259,615,o),
(281,610,o),
(302,611,cs),
(347,611,ls),
(355,611,o),
(368,613,o),
(372,612,cs),
(376,612,o),
(377,610,o),
(380,611,c),
(390,612,o),
(397,616,o),
(404,622,c),
(403,636,o),
(406,641,o),
(402,651,c),
(388,656,o),
(369,655,o),
(354,654,cs),
(352,654,o),
(352,656,o),
(352,656,cs),
(348,656,o),
(342,651,o),
(338,653,c),
(327,656,o),
(316,654,o),
(305,654,c),
(271,657,l)
);
}
);
width = 432;
}
);
unicode = 84;
},
{
glyphname = U;
kernLeft = U;
kernRight = U;
lastChange = "2025-01-06 14:17:27 +0000";
layers = (
{
anchors = (
{
name = bottom;
pos = (290,0);
},
{
name = ogonek;
pos = (337,10);
},
{
name = top;
pos = (299,660);
},
{
name = topright;
pos = (515,654);
}
);
layerId = "C5490108-C233-4ADF-8B6D-CFE8E3B23812";
shapes = (
{
closed = 1;
nodes = (
(65,215,o),
(62,206,o),
(62,199,cs),
(63,185,o),
(69,174,o),
(67,160,c),
(72,151,o),
(78,143,o),
(76,129,c),
(80,125,o),
(81,118,o),
(86,113,c),
(86,105,o),
(94,104,o),
(96,97,cs),
(98,92,o),
(99,86,o),
(102,82,cs),
(109,73,o),
(116,64,o),
(125,58,c),
(129,53,o),
(134,50,o),
(140,48,c),
(144,44,o),
(147,39,o),
(154,37,c),
(155,29,o),
(160,27,o),
(163,22,c),
(169,18,o),
(173,21,o),
(180,19,c),
(184,13,o),
(191,10,o),
(198,7,c),
(200,5,o),
(205,6,o),
(210,5,c),
(212,3,o),
(214,0,o),
(219,1,cs),
(232,5,o),
(245,0,o),
(257,-1,cs),
(273,-2,o),
(287,3,o),
(299,-4,c),
(311,1,o),
(319,-1,o),
(334,-1,c),
(344,2,o),
(355,4,o),
(369,3,c),
(374,6,o),
(377,11,o),
(384,13,cs),
(391,14,o),
(392,22,o),
(403,20,c),
(411,29,o),
(422,35,o),
(434,39,c),
(447,51,o),
(456,67,o),
(470,77,c),
(471,82,o),
(473,86,o),
(475,90,c),
(481,98,o),
(489,104,o),
(494,113,c),
(494,126,o),
(503,131,o),
(505,141,c),
(506,153,o),
(510,163,o),
(514,173,c),
(514,190,o),
(519,204,o),
(516,220,c),
(521,248,o),
(518,270,o),
(514,298,cs),
(512,309,o),
(517,317,o),
(517,327,cs),
(517,332,o),
(516,337,o),
(516,342,cs),
(516,347,o),
(517,352,o),
(517,356,cs),
(517,364,o),
(514,371,o),
(514,379,cs),
(514,389,o),
(518,398,o),
(518,408,c),
(519,413,o),
(523,416,o),
(523,423,cs),
(523,425,o),
(522,425,o),
(522,428,c),
(520,432,o),
(522,439,o),
(521,445,cs),
(519,463,ls),
(518,468,o),
(515,474,o),
(515,480,c),
(512,499,o),
(514,510,o),
(521,523,c),
(520,530,o),
(514,532,o),
(515,540,cs),
(518,550,o),
(515,561,o),
(515,572,cs),
(515,599,o),
(522,629,o),
(515,654,c),
(507,658,o),
(490,663,o),
(479,659,cs),
(472,656,o),
(471,649,o),
(468,643,c),
(466,633,o),
(471,629,o),
(471,620,cs),
(471,551,o),
(474,494,o),
(469,426,c),
(474,407,o),
(472,383,o),
(467,366,c),
(471,355,o),
(466,346,o),
(466,334,cs),
(466,315,o),
(473,295,o),
(466,277,c),
(469,257,o),
(463,231,o),
(467,210,c),
(466,190,o),
(460,173,o),
(454,156,c),
(450,149,o),
(447,141,o),
(442,135,c),
(441,124,o),
(432,121,o),
(429,111,c),
(424,108,o),
(421,102,o),
(415,98,cs),
(406,90,l),
(402,87,ls),
(400,86,o),
(400,86,o),
(398,86,cs),
(387,79,o),
(376,70,o),
(364,64,c),
(354,61,o),
(348,57,o),
(340,52,c),
(333,52,o),
(328,49,o),
(320,48,cs),
(301,48,o),
(282,54,o),
(263,50,c),
(253,53,o),
(242,59,o),
(229,54,c),
(219,64,o),
(205,67,o),
(195,74,cs),
(186,81,o),
(181,90,o),
(169,93,c),
(161,107,o),
(146,117,o),
(136,128,c),
(131,140,o),
(128,153,o),
(122,162,c),
(124,176,o),
(117,181,o),
(114,189,c),
(116,199,o),
(114,213,o),
(111,222,c),
(114,235,o),
(110,245,o),
(110,256,cs),
(108,276,o),
(110,296,o),
(114,314,c),
(113,325,o),
(113,333,o),
(114,344,c),
(113,350,o),
(110,354,o),
(110,362,cs),
(112,384,o),
(109,407,o),
(115,426,c),
(111,445,o),
(113,465,o),
(113,483,cs),
(114,505,o),
(112,531,o),
(115,553,c),
(110,563,o),
(112,574,o),
(110,584,c),
(114,596,o),
(115,617,o),
(110,627,c),
(113,635,o),
(112,649,o),
(108,656,c),
(101,662,o),
(86,662,o),
(74,658,c),
(69,654,o),
(69,646,o),
(66,641,c),
(70,612,o),
(63,576,o),
(68,549,c),
(65,533,o),
(67,517,o),
(67,500,cs),
(66,447,o),
(65,395,o),
(65,350,cs),
(65,345,o),
(64,341,o),
(64,336,cs),
(63,325,o),
(65,314,o),
(65,302,cs),
(65,290,o),
(64,277,o),
(64,266,cs),
(64,258,o),
(66,251,o),
(65,243,cs),
(62,224,l)
);
}
);
width = 585;
}
);
unicode = 85;
},
{
glyphname = V;
kernLeft = V;
kernRight = V;
lastChange = "2025-01-06 14:17:27 +0000";
layers = (
{
anchors = (
{
name = bottom;
pos = (248,0);
},
{
name = top;
pos = (248,660);
}
);
layerId = "C5490108-C233-4ADF-8B6D-CFE8E3B23812";
shapes = (
{
closed = 1;
nodes = (
(461,527,o),
(460,532,o),
(461,536,cs),
(463,540,o),
(465,542,o),
(466,544,c),
(466,550,o),
(466,556,o),
(468,560,cs),
(471,564,o),
(472,570,o),
(476,573,c),
(476,587,o),
(481,598,o),
(485,607,c),
(487,619,o),
(495,627,o),
(495,642,c),
(494,648,o),
(492,652,o),
(489,656,c),
(481,658,o),
(467,656,o),
(456,656,c),
(446,650,o),
(440,638,o),
(442,619,c),
(432,599,o),
(420,578,o),
(419,554,c),
(411,537,o),
(401,522,o),
(401,496,c),
(385,458,l),
(381,445,o),
(377,429,o),
(370,419,c),
(371,407,o),
(366,401,o),
(362,393,c),
(358,368,o),
(347,352,o),
(341,330,c),
(333,321,o),
(333,309,o),
(331,298,cs),
(328,287,o),
(321,276,o),
(321,263,c),
(314,255,o),
(313,241,o),
(310,229,c),
(306,225,o),
(304,219,o),
(300,216,c),
(299,207,o),
(295,201,o),
(293,195,c),
(293,185,o),
(288,181,o),
(285,174,c),
(283,160,o),
(281,145,o),
(277,132,cs),
(273,118,o),
(270,104,o),
(262,94,c),
(256,96,o),
(257,105,o),
(254,111,cs),
(252,118,o),
(252,124,o),
(249,130,c),
(247,145,o),
(241,158,o),
(238,171,c),
(237,186,o),
(227,195,o),
(227,211,c),
(223,224,o),
(216,235,o),
(215,252,c),
(204,265,o),
(201,287,o),
(194,304,cs),
(187,322,o),
(184,344,o),
(176,359,cs),
(171,368,o),
(169,375,o),
(165,385,cs),
(162,390,l),
(162,396,o),
(162,400,o),
(160,404,c),
(154,428,l),
(151,434,ls),
(146,447,o),
(143,457,o),
(138,467,c),
(136,475,o),
(134,483,o),
(131,490,cs),
(124,512,ls),
(121,522,o),
(118,533,o),
(115,541,cs),
(112,547,o),
(109,550,o),
(107,556,cs),
(105,565,o),
(102,573,o),
(99,581,cs),
(95,590,o),
(93,599,o),
(88,607,c),
(86,623,o),
(79,644,o),
(70,657,c),
(52,666,o),
(22,664,o),
(24,638,cs),
(26,623,o),
(37,618,o),
(39,602,c),
(43,598,o),
(44,591,o),
(47,584,c),
(48,577,o),
(53,573,o),
(52,563,c),
(59,557,o),
(61,546,o),
(66,538,c),
(67,527,o),
(70,519,o),
(71,508,c),
(75,503,o),
(78,497,o),
(81,491,c),
(78,481,o),
(86,480,o),
(88,473,c),
(86,471,o),
(86,467,o),
(86,463,c),
(92,459,o),
(92,451,o),
(97,447,c),
(100,423,o),
(115,411,o),
(113,385,c),
(119,383,o),
(118,373,o),
(123,371,c),
(124,363,o),
(129,360,o),
(131,353,c),
(132,342,o),
(138,334,o),
(140,324,c),
(147,310,o),
(150,294,o),
(155,279,cs),
(160,262,o),
(167,247,o),
(168,231,c),
(172,226,o),
(176,220,o),
(178,214,c),
(178,204,o),
(180,197,o),
(183,190,c),
(182,180,o),
(190,177,o),
(188,164,c),
(192,159,o),
(196,153,o),
(199,146,c),
(200,134,o),
(205,127,o),
(204,115,c),
(210,105,o),
(214,91,o),
(219,79,c),
(221,72,o),
(225,68,o),
(225,60,c),
(229,55,o),
(232,49,o),
(231,40,c),
(236,31,o),
(241,24,o),
(241,10,c),
(247,2,o),
(246,-12,o),
(257,-15,c),
(275,-17,o),
(276,-2,o),
(283,6,c),
(288,27,o),
(294,47,o),
(303,63,c),
(304,72,o),
(308,79,o),
(308,89,c),
(314,102,o),
(317,117,o),
(326,128,c),
(328,145,o),
(333,159,o),
(339,171,c),
(339,177,o),
(342,181,o),
(341,188,c),
(350,203,o),
(352,225,o),
(362,238,c),
(362,257,o),
(372,267,o),
(373,286,c),
(388,310,o),
(388,349,o),
(405,369,c),
(405,378,o),
(409,384,o),
(411,390,cs),
(415,398,o),
(416,407,o),
(422,410,c),
(421,424,o),
(428,430,o),
(428,443,c),
(432,447,o),
(433,456,o),
(439,461,c),
(437,468,o),
(442,475,o),
(445,482,cs),
(447,489,o),
(448,497,o),
(450,504,c),
(460,523,l)
);
}
);
width = 519;
}
);
unicode = 86;
},
{
glyphname = W;
kernLeft = W;
kernRight = W;
lastChange = "2025-01-06 14:17:27 +0000";
layers = (
{
anchors = (
{
name = bottom;
pos = (483,0);
},
{
name = top;
pos = (483,660);
}
);
layerId = "C5490108-C233-4ADF-8B6D-CFE8E3B23812";
shapes = (
{
closed = 1;
nodes = (
(829,457,o),
(826,446,o),
(819,435,c),
(821,426,o),
(817,421,o),
(818,411,c),
(813,405,o),
(811,394,o),
(808,383,c),
(805,379,o),
(802,374,o),
(799,370,c),
(798,355,o),
(791,347,o),
(789,333,c),
(785,329,o),
(786,321,o),
(783,315,cs),
(780,310,o),
(776,306,o),
(774,301,c),
(775,295,o),
(771,294,o),
(770,289,c),
(770,276,l),
(764,263,o),
(763,245,o),
(754,235,c),
(754,223,l),
(744,208,o),
(744,182,o),
(733,167,c),
(732,154,o),
(730,142,o),
(725,133,c),
(724,126,o),
(722,118,o),
(719,111,cs),
(716,105,o),
(720,94,o),
(711,94,c),
(705,96,o),
(709,106,o),
(708,112,c),
(699,126,o),
(693,144,o),
(693,169,c),
(690,177,o),
(685,182,o),
(681,189,c),
(679,215,o),
(657,228,o),
(661,257,c),
(655,269,o),
(647,280,o),
(639,293,c),
(638,302,o),
(632,312,o),
(629,321,cs),
(625,331,o),
(626,342,o),
(619,351,c),
(614,371,o),
(608,390,o),
(608,415,c),
(604,421,o),
(597,423,o),
(593,428,c),
(591,439,o),
(583,445,o),
(580,454,c),
(578,476,o),
(570,493,o),
(561,508,c),
(561,518,o),
(554,522,o),
(551,529,c),
(547,551,o),
(533,562,o),
(532,587,c),
(523,600,o),
(519,617,o),
(515,634,c),
(510,639,o),
(507,648,o),
(504,656,c),
(497,659,o),
(500,670,o),
(488,670,cs),
(481,671,o),
(479,665,o),
(474,664,c),
(470,656,o),
(468,651,o),
(468,641,c),
(464,632,o),
(462,618,o),
(457,608,c),
(450,601,o),
(450,587,o),
(444,579,c),
(438,554,o),
(425,537,o),
(421,510,c),
(414,504,o),
(412,492,o),
(406,485,c),
(407,454,o),
(388,443,o),
(384,417,c),
(381,412,o),
(377,410,o),
(376,405,c),
(377,398,o),
(373,395,o),
(372,389,c),
(370,382,o),
(366,376,o),
(364,371,cs),
(362,363,l),
(358,355,o),
(352,349,o),
(347,342,c),
(345,318,o),
(336,301,o),
(333,280,c),
(321,264,o),
(317,240,o),
(305,225,c),
(306,219,o),
(303,217,o),
(304,210,c),
(297,203,o),
(296,193,o),
(294,183,cs),
(290,174,o),
(285,164,o),
(284,153,c),
(279,146,o),
(278,134,o),
(276,124,c),
(269,116,o),
(272,101,o),
(260,100,c),
(256,103,o),
(255,110,o),
(255,118,c),
(253,122,o),
(251,128,o),
(251,137,c),
(248,140,o),
(245,143,o),
(244,147,c),
(242,167,o),
(234,180,o),
(229,196,c),
(228,211,o),
(226,235,o),
(219,249,cs),
(212,264,o),
(206,280,o),
(199,295,cs),
(197,298,o),
(198,306,o),
(198,311,c),
(194,315,o),
(191,321,o),
(188,327,c),
(187,344,o),
(178,355,o),
(177,372,c),
(170,381,o),
(169,393,o),
(163,402,c),
(162,413,o),
(159,419,o),
(159,430,c),
(157,437,o),
(153,442,o),
(150,447,c),
(150,458,l),
(143,464,l),
(140,471,ls),
(134,483,o),
(129,497,o),
(129,513,c),
(127,518,o),
(124,521,o),
(123,526,c),
(124,536,o),
(121,540,o),
(122,549,c),
(117,556,o),
(113,567,o),
(109,575,c),
(106,579,l),
(101,590,o),
(98,601,o),
(101,615,c),
(97,625,o),
(87,631,o),
(84,642,cs),
(81,648,o),
(85,656,o),
(83,660,c),
(73,662,o),
(65,664,o),
(51,663,c),
(39,656,o),
(26,656,o),
(24,643,cs),
(23,636,o),
(29,632,o),
(30,629,c),
(32,623,o),
(35,618,o),
(37,614,cs),
(41,602,o),
(46,593,o),
(49,582,c),
(48,575,o),
(48,572,o),
(49,564,c),
(54,557,o),
(60,549,o),
(62,539,c),
(67,531,o),
(70,523,o),
(70,510,c),
(76,501,o),
(80,490,o),
(83,477,c),
(86,466,o),
(91,454,o),
(91,445,c),
(101,436,o),
(105,422,o),
(105,404,c),
(109,397,o),
(111,390,o),
(115,383,c),
(121,362,o),
(128,342,o),
(136,323,cs),
(137,319,o),
(138,316,o),
(138,311,c),
(145,298,o),
(149,281,o),
(156,266,c),
(155,257,o),
(159,252,o),
(159,243,c),
(165,232,o),
(168,216,o),
(177,204,c),
(177,195,o),
(181,189,o),
(181,178,c),
(188,168,o),
(193,154,o),
(196,144,cs),
(197,143,o),
(197,140,o),
(198,139,c),
(199,133,o),
(198,129,o),
(199,124,c),
(200,123,o),
(201,119,o),
(201,116,c),
(203,112,o),
(205,109,o),
(206,105,cs),
(207,100,o),
(208,94,o),
(207,87,c),
(213,85,o),
(211,75,o),
(217,72,c),
(224,54,l),
(227,49,o),
(229,43,o),
(232,36,cs),
(233,33,o),
(233,30,o),
(235,28,c),
(236,25,o),
(238,22,o),
(238,19,cs),
(240,5,o),
(246,-6,o),
(260,-9,c),
(271,-5,o),
(272,8,o),
(281,12,c),
(281,20,o),
(286,22,o),
(287,29,c),
(289,34,o),
(295,35,o),
(295,43,cs),
(297,60,o),
(307,70,o),
(308,89,c),
(314,98,o),
(317,109,o),
(324,119,c),
(324,134,o),
(334,147,o),
(335,165,c),
(340,171,o),
(341,181,o),
(347,184,c),
(349,197,o),
(353,204,o),
(359,212,c),
(361,227,o),
(368,238,o),
(372,249,c),
(378,269,o),
(384,289,o),
(392,306,c),
(394,315,o),
(400,323,o),
(404,332,cs),
(408,340,o),
(409,352,o),
(416,358,c),
(415,371,o),
(423,374,o),
(422,387,c),
(431,396,l),
(431,401,o),
(430,407,o),
(433,409,c),
(436,417,o),
(443,420,o),
(447,426,c),
(446,433,o),
(447,437,o),
(447,444,c),
(459,459,o),
(464,481,o),
(466,506,c),
(473,514,o),
(474,529,o),
(481,538,c),
(481,554,l),
(484,558,o),
(482,565,o),
(488,564,c),
(494,561,o),
(494,552,o),
(496,543,c),
(499,541,o),
(501,536,o),
(504,532,c),
(504,523,l),
(509,516,o),
(511,505,o),
(515,498,c),
(516,492,o),
(518,487,o),
(517,481,c),
(523,474,o),
(527,466,o),
(525,452,c),
(541,431,o),
(542,398,o),
(555,377,c),
(556,374,o),
(558,371,o),
(557,366,c),
(564,356,o),
(567,345,o),
(572,334,cs),
(578,321,ls),
(580,314,o),
(582,306,o),
(585,299,cs),
(586,297,o),
(589,296,o),
(590,294,cs),
(591,292,o),
(590,289,o),
(591,286,cs),
(594,279,o),
(597,272,o),
(599,265,cs),
(602,256,o),
(607,246,o),
(608,236,c),
(615,223,o),
(621,211,o),
(627,198,cs),
(630,190,o),
(632,181,o),
(633,172,c),
(647,150,l),
(645,136,o),
(654,133,o),
(653,120,c),
(659,106,o),
(669,92,o),
(669,69,c),
(675,61,o),
(681,52,o),
(687,42,c),
(691,28,o),
(694,12,o),
(698,-1,c),
(704,-4,o),
(712,-5,o),
(721,-5,c),
(734,1,o),
(739,17,o),
(739,37,c),
(752,51,o),
(753,77,o),
(765,92,c),
(762,98,o),
(764,101,o),
(765,106,c),
(770,116,o),
(778,124,o),
(777,139,c),
(782,144,o),
(785,152,o),
(788,160,cs),
(790,167,o),
(797,173,o),
(795,185,c),
(801,189,o),
(800,198,o),
(803,203,c),
(806,215,o),
(811,225,o),
(816,235,c),
(816,255,o),
(823,267,o),
(827,283,c),
(828,288,o),
(833,291,o),
(835,296,c),
(836,308,o),
(842,314,o),
(842,326,c),
(854,347,o),
(859,375,o),
(873,396,c),
(871,408,o),
(876,412,o),
(876,421,c),
(880,428,o),
(884,433,o),
(885,443,cs),
(887,451,o),
(894,455,o),
(893,467,c),
(898,471,o),
(899,479,o),
(903,484,c),
(905,502,o),
(912,516,o),
(917,533,c),
(921,540,o),
(922,548,o),
(924,557,c),
(929,561,o),
(930,572,o),
(932,580,c),
(938,591,o),
(942,602,o),
(948,612,c),
(947,625,o),
(951,633,o),
(951,644,c),
(948,650,o),
(944,655,o),
(939,658,c),
(923,662,o),
(903,660,o),
(893,651,c),
(886,638,o),
(888,626,o),
(885,611,c),
(880,601,o),
(873,594,o),
(875,578,c),
(872,572,o),
(867,568,o),
(865,561,cs),
(863,551,o),
(860,540,o),
(854,531,c),
(855,518,o),
(846,515,o),
(847,502,c),
(844,496,o),
(838,492,o),
(836,485,c),
(836,467,l)
);
}
);
width = 975;
}
);
unicode = 87;
},
{
glyphname = Wdieresis;
kernLeft = W;
kernRight = W;
lastChange = "2025-01-06 14:17:27 +0000";
layers = (
{
layerId = "C5490108-C233-4ADF-8B6D-CFE8E3B23812";
shapes = (
{
ref = W;
},
{
closed = 1;
nodes = (
(625,624,o),
(617,637,o),
(614,652,c),
(608,656,o),
(605,662,o),
(598,665,c),
(582,667,o),
(575,662,o),
(568,657,c),
(563,656,o),
(560,655,o),
(556,652,c),
(558,638,o),
(551,632,o),
(551,620,c),
(555,613,o),
(558,606,o),
(563,600,c),
(580,592,o),
(610,594,o),
(620,607,c)
);
},
{
closed = 1;
nodes = (
(362,604,o),
(371,600,o),
(378,595,c),
(386,596,o),
(392,594,o),
(399,594,c),
(412,601,o),
(424,611,o),
(428,629,c),
(418,635,o),
(421,652,o),
(412,657,c),
(396,663,o),
(373,661,o),
(365,650,c),
(364,635,o),
(353,627,o),
(357,611,c)
);
}
);
width = 975;
}
);
unicode = 7812;
},
{
glyphname = X;
kernLeft = X;
kernRight = X;
lastChange = "2025-01-06 14:17:27 +0000";
layers = (
{
anchors = (
{
name = bottom;
pos = (228,0);
},
{
name = top;
pos = (228,660);
}
);
layerId = "C5490108-C233-4ADF-8B6D-CFE8E3B23812";
shapes = (
{
closed = 1;
nodes = (
(211,403,o),
(210,411,o),
(206,419,cs),
(194,440,ls),
(186,454,o),
(179,468,o),
(170,483,c),
(172,494,o),
(164,495,o),
(165,505,c),
(160,512,o),
(157,521,o),
(152,528,cs),
(148,536,o),
(141,542,o),
(139,552,c),
(134,557,o),
(129,562,o),
(125,568,c),
(123,575,o),
(121,580,o),
(116,585,c),
(117,594,o),
(108,595,o),
(107,603,cs),
(107,614,l),
(99,621,o),
(93,632,o),
(87,643,c),
(78,653,o),
(60,653,o),
(43,651,c),
(38,646,o),
(31,643,o),
(31,635,cs),
(30,618,o),
(48,618,o),
(45,599,c),
(48,597,o),
(52,595,o),
(55,591,c),
(56,581,o),
(63,579,o),
(66,570,c),
(70,563,o),
(72,555,o),
(76,547,c),
(81,542,o),
(86,538,o),
(89,531,cs),
(91,527,o),
(92,523,o),
(92,518,c),
(97,512,o),
(100,505,o),
(105,500,c),
(106,488,o),
(113,482,o),
(118,472,cs),
(122,464,o),
(127,455,o),
(133,447,c),
(135,438,o),
(141,431,o),
(144,425,c),
(144,420,o),
(147,417,o),
(146,411,c),
(151,404,o),
(159,399,o),
(159,388,c),
(162,385,o),
(165,383,o),
(167,381,cs),
(168,380,o),
(167,378,o),
(168,377,cs),
(170,374,o),
(173,374,o),
(174,372,c),
(176,371,o),
(176,367,o),
(178,365,c),
(183,356,o),
(194,349,o),
(196,339,cs),
(199,319,o),
(181,307,o),
(176,287,c),
(169,279,o),
(158,276,o),
(153,266,cs),
(151,261,o),
(154,259,o),
(153,253,c),
(143,237,o),
(134,218,o),
(124,200,c),
(122,198,o),
(124,190,o),
(122,186,c),
(119,186,o),
(118,184,o),
(113,185,c),
(114,165,o),
(95,165,o),
(90,152,cs),
(89,147,o),
(93,147,o),
(92,142,c),
(88,135,o),
(85,128,o),
(80,124,c),
(77,112,o),
(70,105,o),
(67,95,cs),
(65,85,o),
(58,78,o),
(54,68,c),
(47,64,o),
(40,59,o),
(34,52,c),
(33,45,o),
(34,44,o),
(34,35,c),
(31,31,o),
(30,27,o),
(29,22,cs),
(27,17,o),
(24,12,o),
(24,6,c),
(31,-7,o),
(55,-9,o),
(70,-4,c),
(77,4,o),
(83,13,o),
(88,22,c),
(96,29,o),
(99,41,o),
(106,48,c),
(106,52,o),
(110,54,o),
(109,59,c),
(120,66,o),
(121,81,o),
(132,86,c),
(130,98,o),
(136,103,o),
(138,110,c),
(141,116,o),
(148,114,o),
(150,121,c),
(151,136,o),
(159,143,o),
(161,157,c),
(165,161,o),
(165,167,o),
(168,172,cs),
(169,173,o),
(172,173,o),
(173,175,cs),
(175,179,o),
(174,182,o),
(174,188,c),
(180,191,o),
(182,196,o),
(186,200,c),
(186,212,o),
(193,217,o),
(197,224,cs),
(200,231,o),
(203,240,o),
(209,246,c),
(210,258,o),
(214,268,o),
(225,271,c),
(232,270,o),
(233,262,o),
(238,258,c),
(238,252,o),
(243,248,o),
(245,242,cs),
(247,238,o),
(248,231,o),
(249,225,c),
(252,220,o),
(257,219,o),
(259,215,cs),
(262,208,o),
(266,201,o),
(270,196,c),
(273,187,o),
(276,180,o),
(280,173,cs),
(282,169,o),
(282,168,o),
(280,164,c),
(286,160,o),
(290,154,o),
(295,147,c),
(295,138,o),
(302,137,o),
(305,129,c),
(304,120,o),
(311,117,o),
(309,106,c),
(314,101,o),
(317,93,o),
(322,87,c),
(325,72,o),
(338,67,o),
(340,50,c),
(348,44,o),
(353,37,o),
(358,29,c),
(360,22,o),
(364,17,o),
(364,10,c),
(369,6,o),
(372,2,o),
(376,-3,c),
(388,-5,o),
(397,-9,o),
(412,-7,c),
(414,-4,o),
(417,0,o),
(421,2,c),
(422,13,o),
(418,20,o),
(420,32,c),
(416,38,o),
(409,40,o),
(406,47,cs),
(404,51,o),
(404,57,o),
(403,62,c),
(397,68,o),
(393,79,o),
(387,85,c),
(379,99,o),
(369,111,o),
(363,126,cs),
(361,132,o),
(362,143,o),
(360,149,c),
(355,158,o),
(347,163,o),
(340,171,c),
(336,182,o),
(328,188,o),
(326,201,c),
(318,209,o),
(315,221,o),
(308,228,c),
(308,233,o),
(306,236,o),
(305,238,c),
(294,251,o),
(286,268,o),
(276,282,c),
(270,302,o),
(257,316,o),
(254,338,c),
(258,350,o),
(265,358,o),
(272,368,cs),
(278,377,o),
(284,390,o),
(293,398,c),
(295,414,o),
(308,422,o),
(313,438,c),
(318,442,o),
(322,449,o),
(328,454,c),
(327,461,o),
(331,463,o),
(331,469,c),
(335,473,o),
(338,479,o),
(341,485,cs),
(344,490,o),
(347,501,o),
(350,504,c),
(352,504,o),
(351,505,o),
(352,506,c),
(355,513,o),
(362,517,o),
(367,523,c),
(368,531,o),
(373,536,o),
(374,545,c),
(376,550,o),
(379,555,o),
(383,559,c),
(385,572,o),
(392,579,o),
(395,591,c),
(400,597,o),
(406,602,o),
(407,612,c),
(413,618,o),
(422,624,o),
(420,640,c),
(418,641,o),
(417,643,o),
(417,646,c),
(406,654,o),
(386,654,o),
(370,649,c),
(364,640,o),
(360,631,o),
(352,625,c),
(353,618,o),
(349,617,o),
(350,610,c),
(334,586,o),
(324,559,o),
(305,538,c),
(302,523,o),
(295,511,o),
(292,498,c),
(288,493,o),
(284,488,o),
(279,485,c),
(276,473,o),
(270,465,o),
(263,458,c),
(259,447,o),
(253,438,o),
(251,425,c),
(244,416,o),
(243,402,o),
(232,398,c),
(219,398,l)
);
}
);
width = 445;
}
);
unicode = 88;
},
{
glyphname = Y;
kernLeft = Y;
kernRight = Y;
lastChange = "2025-01-06 14:17:27 +0000";
layers = (
{
anchors = (
{
name = bottom;
pos = (256,0);
},
{
name = top;
pos = (256,660);
},
{
name = topleft;
pos = (19,660);
}
);
layerId = "C5490108-C233-4ADF-8B6D-CFE8E3B23812";
shapes = (
{
closed = 1;
nodes = (
(447,556,o),
(451,558,o),
(450,564,c),
(459,569,o),
(463,579,o),
(466,590,c),
(467,593,o),
(472,595,o),
(476,598,c),
(476,607,o),
(482,610,o),
(485,617,cs),
(487,625,o),
(493,629,o),
(492,640,c),
(486,652,o),
(476,657,o),
(462,660,c),
(440,654,o),
(428,637,o),
(416,619,c),
(415,600,o),
(403,593,o),
(401,575,c),
(396,570,o),
(389,569,o),
(388,561,c),
(386,558,o),
(383,554,o),
(383,548,c),
(376,542,o),
(372,535,o),
(370,525,c),
(356,511,l),
(353,504,o),
(351,496,o),
(347,490,c),
(344,483,o),
(339,476,o),
(336,468,cs),
(330,455,o),
(320,444,o),
(315,428,c),
(305,418,o),
(299,402,o),
(290,390,c),
(284,374,o),
(277,361,o),
(269,351,c),
(267,345,o),
(265,340,o),
(258,340,cs),
(253,341,o),
(249,345,o),
(246,349,c),
(244,354,o),
(238,356,o),
(238,363,cs),
(236,371,o),
(240,374,o),
(238,380,c),
(237,390,o),
(229,393,o),
(224,400,c),
(221,407,o),
(217,410,o),
(214,416,c),
(212,418,o),
(212,422,o),
(212,426,c),
(204,434,o),
(200,445,o),
(193,454,c),
(189,458,o),
(185,463,o),
(182,467,cs),
(179,473,o),
(178,479,o),
(173,484,cs),
(169,487,o),
(170,497,o),
(165,501,c),
(163,505,o),
(161,511,o),
(157,515,c),
(153,527,o),
(144,536,o),
(139,546,c),
(135,558,o),
(130,566,o),
(124,575,c),
(118,592,l),
(116,593,o),
(113,594,o),
(113,598,c),
(110,602,o),
(104,605,o),
(100,612,cs),
(85,646,l),
(75,652,o),
(63,656,o),
(50,658,c),
(40,654,o),
(28,653,o),
(25,641,cs),
(22,633,o),
(31,626,o),
(32,616,c),
(41,608,o),
(46,597,o),
(53,587,c),
(56,572,o),
(67,564,o),
(70,548,c),
(74,545,o),
(79,542,o),
(81,537,cs),
(83,531,o),
(87,528,o),
(89,523,cs),
(95,513,o),
(102,504,o),
(105,491,c),
(108,486,o),
(115,485,o),
(118,479,c),
(121,466,o),
(129,461,o),
(134,451,c),
(134,445,o),
(139,443,o),
(138,436,c),
(147,428,o),
(155,415,o),
(162,403,c),
(166,399,o),
(169,392,o),
(172,387,cs),
(174,380,o),
(181,376,o),
(183,370,c),
(182,364,o),
(184,361,o),
(185,356,cs),
(187,350,o),
(197,350,o),
(199,341,cs),
(200,337,o),
(200,331,o),
(201,327,cs),
(212,312,ls),
(216,307,o),
(222,305,o),
(224,298,c),
(228,291,o),
(228,277,o),
(233,270,c),
(234,251,o),
(236,237,o),
(236,220,c),
(235,215,o),
(232,211,o),
(231,205,c),
(234,191,o),
(234,175,o),
(236,161,c),
(234,150,o),
(233,147,o),
(235,137,c),
(230,129,o),
(232,115,o),
(228,106,c),
(232,100,o),
(232,90,o),
(234,83,c),
(225,68,o),
(233,48,o),
(236,33,c),
(234,26,o),
(232,19,o),
(231,10,c),
(234,9,o),
(236,2,o),
(237,0,c),
(241,-5,o),
(257,-8,o),
(262,-8,cs),
(274,-7,o),
(282,2,o),
(291,5,c),
(289,13,o),
(286,19,o),
(283,27,c),
(282,54,o),
(280,81,o),
(280,108,c),
(282,121,o),
(285,135,o),
(285,148,cs),
(285,170,o),
(278,192,o),
(285,213,c),
(281,238,o),
(281,259,o),
(282,288,c),
(288,303,o),
(304,306,o),
(311,319,c),
(314,320,o),
(312,328,o),
(313,331,c),
(316,335,o),
(319,342,o),
(324,346,c),
(326,355,o),
(330,361,o),
(334,367,c),
(337,375,o),
(343,381,o),
(349,387,c),
(351,392,o),
(355,395,o),
(354,403,c),
(367,410,o),
(371,427,o),
(381,434,c),
(387,449,o),
(397,462,o),
(403,477,c),
(410,491,o),
(419,504,o),
(428,516,c),
(429,523,o),
(432,527,o),
(434,534,c),
(447,549,l)
);
}
);
width = 516;
}
);
unicode = 89;
},
{
glyphname = Z;
kernLeft = Z;
kernRight = Z;
lastChange = "2025-01-06 14:17:27 +0000";
layers = (
{
anchors = (
{
name = bottom;
pos = (261,0);
},
{
name = center;
pos = (261,331);
},
{
name = top;
pos = (261,660);
}
);
layerId = "C5490108-C233-4ADF-8B6D-CFE8E3B23812";
shapes = (
{
closed = 1;
nodes = (
(231,252,ls),
(234,256,o),
(236,258,o),
(237,261,c),
(240,262,l),
(242,267,o),
(242,273,o),
(244,277,c),
(254,285,o),
(257,297,o),
(267,303,c),
(270,320,o),
(286,324,o),
(288,342,c),
(303,358,l),
(303,364,o),
(306,368,o),
(308,371,cs),
(310,376,o),
(311,382,o),
(314,386,cs),
(316,389,o),
(321,391,o),
(324,394,cs),
(326,396,o),
(326,398,o),
(327,400,cs),
(332,407,l),
(335,415,o),
(341,422,o),
(345,430,cs),
(350,438,o),
(358,443,o),
(362,451,cs),
(368,467,l),
(374,474,o),
(377,483,o),
(386,487,c),
(387,494,o),
(390,501,o),
(393,505,c),
(399,505,o),
(400,513,o),
(405,517,c),
(409,532,l),
(412,537,o),
(417,542,o),
(423,546,c),
(427,561,o),
(434,570,o),
(444,579,c),
(446,588,o),
(451,594,o),
(453,603,c),
(460,615,o),
(475,618,o),
(476,635,c),
(475,644,o),
(468,648,o),
(464,653,c),
(453,656,o),
(435,654,o),
(422,655,cs),
(415,656,o),
(413,658,o),
(406,659,cs),
(390,660,o),
(373,657,o),
(358,658,cs),
(352,658,o),
(346,659,o),
(340,659,cs),
(331,659,o),
(321,656,o),
(311,656,cs),
(297,656,o),
(285,658,o),
(272,658,cs),
(229,657,o),
(183,657,o),
(144,654,cs),
(115,653,o),
(86,657,o),
(59,654,c),
(54,649,o),
(52,640,o),
(51,632,cs),
(50,619,o),
(55,615,o),
(59,607,c),
(66,603,o),
(79,605,o),
(87,603,cs),
(102,599,o),
(121,597,o),
(136,599,c),
(151,599,o),
(162,598,o),
(175,601,c),
(183,598,o),
(196,599,o),
(201,599,cs),
(204,599,o),
(205,599,o),
(207,598,c),
(212,598,o),
(216,597,o),
(219,597,cs),
(229,597,o),
(237,601,o),
(246,602,cs),
(269,605,o),
(292,602,o),
(316,602,c),
(323,603,o),
(327,605,o),
(333,605,cs),
(344,605,o),
(353,606,o),
(363,607,cs),
(373,607,o),
(386,609,o),
(389,601,c),
(385,587,o),
(373,577,o),
(368,566,cs),
(362,555,l),
(359,551,o),
(354,549,o),
(352,545,c),
(347,527,o),
(337,513,o),
(324,503,c),
(317,481,o),
(302,467,o),
(295,446,c),
(286,438,o),
(281,425,o),
(274,415,cs),
(265,406,o),
(259,393,o),
(252,382,c),
(250,376,o),
(246,371,o),
(241,368,c),
(240,360,o),
(236,355,o),
(233,350,c),
(224,340,o),
(220,326,o),
(210,319,c),
(210,310,o),
(203,306,o),
(202,297,c),
(198,292,o),
(193,286,o),
(189,280,cs),
(185,275,o),
(182,269,o),
(181,264,c),
(177,262,l),
(171,254,l),
(165,241,l),
(161,237,o),
(157,231,o),
(155,225,c),
(150,223,o),
(151,216,o),
(147,213,c),
(143,211,o),
(140,206,o),
(138,201,cs),
(135,197,o),
(134,190,o),
(132,184,c),
(117,168,o),
(104,147,o),
(92,125,c),
(85,120,o),
(81,111,o),
(78,105,cs),
(75,101,o),
(71,99,o),
(68,95,cs),
(65,90,o),
(63,84,o),
(60,79,cs),
(57,73,o),
(52,68,o),
(49,64,cs),
(46,57,o),
(47,49,o),
(42,43,cs),
(38,35,o),
(27,35,o),
(24,27,cs),
(22,21,o),
(20,16,o),
(19,10,c),
(24,0,o),
(32,-4,o),
(44,-5,c),
(46,-6,o),
(48,-4,o),
(51,-4,cs),
(53,-4,o),
(57,-5,o),
(60,-5,cs),
(85,-6,o),
(101,-2,o),
(122,-2,cs),
(124,-2,o),
(126,-4,o),
(130,-4,cs),
(134,-4,o),
(138,-3,o),
(141,-3,cs),
(163,-4,o),
(182,-3,o),
(203,-3,cs),
(239,-1,o),
(277,-6,o),
(307,-4,c),
(322,-8,o),
(339,-4,o),
(355,-9,c),
(360,-8,o),
(363,-5,o),
(369,-4,c),
(403,-6,o),
(448,-11,o),
(470,8,c),
(480,29,o),
(474,55,o),
(454,57,cs),
(442,59,o),
(438,51,o),
(428,51,cs),
(383,53,o),
(341,52,o),
(296,56,c),
(285,51,o),
(269,50,o),
(255,53,cs),
(247,54,o),
(246,48,o),
(238,50,cs),
(229,52,o),
(218,52,o),
(208,54,c),
(201,50,o),
(192,53,o),
(184,51,cs),
(181,50,o),
(181,48,o),
(177,48,cs),
(161,47,o),
(143,48,o),
(127,47,c),
(121,48,o),
(116,46,o),
(109,46,c),
(105,49,o),
(100,52,o),
(99,59,c),
(101,71,o),
(109,77,o),
(115,85,c),
(120,95,o),
(128,99,o),
(132,110,c),
(138,111,o),
(143,115,o),
(144,122,c),
(150,125,o),
(154,131,o),
(158,135,c),
(161,149,o),
(172,155,o),
(176,168,c),
(181,172,o),
(185,178,o),
(191,181,c),
(192,190,o),
(199,198,o),
(201,202,cs),
(203,207,o),
(205,213,o),
(207,216,cs),
(211,221,o),
(217,225,o),
(220,231,cs),
(221,233,o),
(221,235,o),
(222,236,c),
(226,243,l)
);
}
);
width = 523;
}
);
unicode = 90;
},
{
glyphname = Saltillo;
lastChange = "2025-01-06 14:17:27 +0000";
layers = (
{
layerId = "C5490108-C233-4ADF-8B6D-CFE8E3B23812";
shapes = (
{
closed = 1;
nodes = (
(254,685,o),
(255,689,o),
(256,690,cs),
(257,691,o),
(261,694,o),
(265,694,c),
(272,693,o),
(276,692,o),
(281,693,c),
(286,694,l),
(296,692,ls),
(300,691,o),
(304,684,o),
(304,678,cs),
(303,658,l),
(302,633,l),
(301,609,l),
(301,601,l),
(301,590,o),
(301,583,o),
(301,572,c),
(301,567,l),
(299,541,l),
(297,494,l),
(297,474,l),
(295,449,ls),
(295,444,o),
(292,438,o),
(291,436,cs),
(288,431,l),
(285,430,o),
(279,429,o),
(270,430,c),
(261,434,l),
(258,448,l),
(258,463,l),
(258,479,l),
(258,490,o),
(257,497,o),
(257,509,c),
(257,511,l),
(257,526,l),
(257,536,o),
(256,543,o),
(256,554,c),
(256,561,l),
(256,573,l),
(256,582,o),
(256,589,o),
(256,601,c),
(255,603,l),
(255,618,l),
(255,628,o),
(255,636,o),
(255,646,c),
(255,652,l),
(254,678,ls)
);
}
);
width = 600;
}
);
unicode = 42891;
},
{
glyphname = a;
kernLeft = a;
kernRight = n;
lastChange = "2025-01-06 14:17:27 +0000";
layers = (
{
anchors = (
{
name = bottom;
pos = (233,0);
},
{
name = ogonek;
pos = (398,10);
},
{
name = top;
pos = (233,414);
}
);
layerId = "C5490108-C233-4ADF-8B6D-CFE8E3B23812";
shapes = (
{
closed = 1;
nodes = (
(400,2,o),
(409,0,c),
(415,4,o),
(424,6,o),
(427,13,cs),
(432,25,o),
(428,42,o),
(429,52,c),
(426,59,o),
(426,70,o),
(424,79,c),
(428,93,o),
(426,106,o),
(426,123,cs),
(425,130,o),
(429,132,o),
(428,139,cs),
(422,189,o),
(426,238,o),
(422,291,c),
(427,305,o),
(427,327,o),
(424,341,c),
(426,345,o),
(426,352,o),
(427,356,c),
(424,371,o),
(427,393,o),
(421,406,c),
(412,412,o),
(390,415,o),
(383,406,c),
(381,399,o),
(384,390,o),
(383,380,cs),
(383,370,o),
(383,355,o),
(377,351,c),
(363,354,o),
(359,371,o),
(351,382,c),
(340,385,o),
(333,390,o),
(325,395,cs),
(317,401,o),
(307,404,o),
(299,410,c),
(287,409,o),
(277,412,o),
(268,414,cs),
(232,418,o),
(190,418,o),
(162,406,c),
(153,405,o),
(145,402,o),
(138,400,c),
(124,388,o),
(110,375,o),
(94,365,c),
(86,356,o),
(78,348,o),
(72,336,c),
(64,328,o),
(60,314,o),
(51,305,c),
(47,279,o),
(36,257,o),
(37,226,c),
(35,220,o),
(35,213,o),
(33,206,c),
(36,197,o),
(34,185,o),
(34,174,cs),
(35,161,o),
(37,148,o),
(34,136,c),
(36,127,o),
(45,125,o),
(47,117,cs),
(48,98,o),
(59,87,o),
(63,70,c),
(68,63,o),
(75,56,o),
(81,49,c),
(86,41,o),
(96,37,o),
(101,29,c),
(104,26,o),
(111,27,o),
(112,22,c),
(116,20,o),
(118,16,o),
(122,13,c),
(129,13,o),
(132,9,o),
(138,8,c),
(141,2,o),
(151,5,o),
(154,0,c),
(166,1,o),
(174,-3,o),
(182,-5,c),
(195,-4,o),
(204,-6,o),
(213,-9,c),
(220,-5,o),
(227,-8,o),
(235,-9,c),
(253,-4,o),
(277,-6,o),
(295,0,cs),
(303,4,o),
(310,9,o),
(317,13,c),
(322,15,o),
(328,14,o),
(333,16,c),
(341,22,o),
(348,29,o),
(356,34,c),
(365,44,o),
(369,59,o),
(385,61,c),
(389,46,o),
(382,21,o),
(383,8,c),
(390,2,o)
);
},
{
closed = 1;
nodes = (
(131,78,o),
(129,78,o),
(127,79,cs),
(120,85,o),
(112,95,o),
(104,102,c),
(100,111,o),
(96,120,o),
(90,127,c),
(88,136,o),
(86,143,o),
(83,149,c),
(82,163,o),
(80,174,o),
(78,187,cs),
(73,212,o),
(86,238,o),
(88,263,c),
(95,275,o),
(102,284,o),
(105,299,c),
(110,305,o),
(118,310,o),
(120,319,c),
(129,324,o),
(136,332,o),
(143,340,c),
(156,345,o),
(165,353,o),
(177,361,c),
(181,361,o),
(186,363,o),
(193,362,c),
(201,364,o),
(205,371,o),
(214,372,c),
(237,369,o),
(272,377,o),
(283,362,c),
(292,363,o),
(296,361,o),
(302,359,cs),
(309,358,o),
(309,352,o),
(314,352,c),
(317,349,o),
(323,348,o),
(328,346,c),
(352,323,l),
(352,317,o),
(359,316,o),
(359,310,c),
(362,305,o),
(366,302,o),
(369,297,c),
(371,288,o),
(374,278,o),
(380,273,c),
(381,259,o),
(385,251,o),
(388,241,c),
(389,208,o),
(388,183,o),
(385,154,cs),
(383,142,o),
(375,134,o),
(374,121,c),
(369,116,o),
(365,108,o),
(362,100,c),
(350,86,o),
(334,76,o),
(322,63,c),
(313,61,o),
(306,56,o),
(299,50,c),
(292,50,o),
(287,48,o),
(283,45,c),
(275,46,o),
(269,44,o),
(262,42,c),
(238,42,o),
(217,39,o),
(195,43,c),
(175,48,o),
(158,56,o),
(143,67,cs),
(133,76,ls)
);
}
);
width = 477;
}
);
unicode = 97;
},
{
glyphname = ae;
kernLeft = a;
kernRight = e;
lastChange = "2025-01-06 14:17:27 +0000";
layers = (
{
anchors = (
{
name = bottom;
pos = (366,0);
},
{
name = top;
pos = (366,414);
}
);
layerId = "C5490108-C233-4ADF-8B6D-CFE8E3B23812";
shapes = (
{
closed = 1;
nodes = (
(441,420,o),
(430,414,o),
(421,412,c),
(409,400,o),
(395,390,o),
(382,379,cs),
(378,375,o),
(376,369,o),
(371,366,cs),
(367,362,o),
(366,354,o),
(356,355,c),
(353,374,o),
(352,396,o),
(354,413,c),
(352,418,o),
(348,422,o),
(344,426,c),
(318,424,o),
(291,426,o),
(262,427,cs),
(256,427,o),
(253,424,o),
(247,424,cs),
(229,423,o),
(212,428,o),
(196,424,c),
(171,429,o),
(144,425,o),
(118,424,c),
(106,428,o),
(93,429,o),
(83,424,c),
(81,418,o),
(76,416,o),
(75,410,c),
(77,404,o),
(75,393,o),
(78,387,c),
(85,379,o),
(96,377,o),
(109,376,c),
(115,379,o),
(122,381,o),
(128,384,c),
(152,381,o),
(181,383,o),
(210,384,c),
(223,375,o),
(250,381,o),
(266,376,c),
(276,381,o),
(288,382,o),
(302,382,c),
(306,379,o),
(312,378,o),
(313,373,cs),
(316,348,o),
(316,320,o),
(315,293,cs),
(315,251,o),
(319,195,o),
(314,153,c),
(310,145,o),
(307,138,o),
(307,126,c),
(296,115,o),
(288,103,o),
(280,88,c),
(275,86,o),
(269,84,o),
(265,80,cs),
(261,75,o),
(255,74,o),
(250,70,c),
(211,60,l),
(191,60,o),
(170,59,o),
(153,62,c),
(139,68,o),
(124,76,o),
(109,81,c),
(107,85,o),
(105,86,o),
(100,87,c),
(94,97,o),
(86,103,o),
(79,112,c),
(75,120,o),
(72,128,o),
(68,137,c),
(66,157,o),
(66,176,o),
(70,195,c),
(77,206,o),
(83,219,o),
(86,233,c),
(92,236,o),
(95,241,o),
(100,244,cs),
(106,247,o),
(108,254,o),
(114,257,c),
(122,258,o),
(126,264,o),
(135,267,c),
(157,267,ls),
(162,267,o),
(162,261,o),
(169,262,c),
(181,268,o),
(206,262,o),
(217,270,c),
(220,280,o),
(218,295,o),
(214,303,c),
(209,306,o),
(203,309,o),
(196,311,cs),
(188,312,o),
(180,311,o),
(172,314,c),
(146,310,o),
(121,305,o),
(99,298,c),
(96,294,o),
(88,294,o),
(86,289,c),
(81,286,o),
(77,282,o),
(71,278,c),
(63,266,o),
(53,253,o),
(47,237,cs),
(39,221,o),
(37,200,o),
(29,184,c),
(29,168,o),
(25,157,o),
(22,143,c),
(24,133,o),
(28,127,o),
(31,120,c),
(32,115,o),
(30,113,o),
(29,109,c),
(39,105,o),
(37,90,o),
(40,80,c),
(44,73,o),
(51,70,o),
(57,67,c),
(60,55,o),
(70,51,o),
(75,41,c),
(92,30,o),
(111,21,o),
(132,13,c),
(149,11,o),
(169,11,o),
(184,7,c),
(194,8,o),
(202,9,o),
(211,7,c),
(220,10,o),
(229,11,o),
(242,10,c),
(256,19,o),
(270,25,o),
(287,29,c),
(295,36,o),
(301,46,o),
(313,49,c),
(317,49,o),
(316,53,o),
(317,60,c),
(324,64,o),
(325,72,o),
(331,77,c),
(333,83,o),
(333,91,o),
(338,93,c),
(340,93,o),
(344,108,o),
(346,105,cs),
(348,103,o),
(351,93,o),
(353,93,c),
(365,83,o),
(371,67,o),
(385,57,c),
(391,57,o),
(390,49,o),
(397,48,c),
(414,39,o),
(428,27,o),
(445,18,c),
(465,16,o),
(482,10,o),
(502,8,c),
(514,10,o),
(535,10,o),
(548,8,c),
(560,15,o),
(573,20,o),
(590,23,c),
(601,29,o),
(613,36,o),
(626,42,c),
(634,43,o),
(646,48,o),
(648,54,c),
(656,59,o),
(669,78,o),
(676,81,cs),
(682,84,o),
(688,92,o),
(689,101,c),
(694,103,o),
(694,111,o),
(694,111,c),
(694,111,o),
(693,136,o),
(689,145,c),
(683,150,o),
(676,152,o),
(666,151,c),
(660,148,o),
(658,142,o),
(655,137,c),
(648,134,o),
(647,126,o),
(642,122,c),
(636,110,o),
(629,99,o),
(618,91,cs),
(604,82,o),
(584,78,o),
(574,65,c),
(561,65,o),
(549,58,o),
(536,57,cs),
(533,57,o),
(529,59,o),
(525,59,cs),
(521,59,o),
(515,57,o),
(510,57,cs),
(505,58,o),
(500,61,o),
(494,60,c),
(471,63,l),
(461,69,o),
(448,72,o),
(439,80,c),
(426,84,o),
(420,95,o),
(408,99,c),
(403,108,o),
(393,113,o),
(388,122,c),
(383,132,o),
(374,139,o),
(369,148,c),
(365,160,o),
(358,177,o),
(356,192,cs),
(355,202,o),
(354,215,o),
(361,222,c),
(378,219,o),
(397,226,o),
(418,225,cs),
(436,223,o),
(457,223,o),
(476,225,c),
(487,220,o),
(506,221,o),
(518,225,c),
(542,219,o),
(571,223,o),
(595,220,c),
(604,224,o),
(654,225,o),
(654,225,c),
(654,225,o),
(696,223,o),
(696,237,cs),
(696,251,o),
(693,280,o),
(693,280,c),
(693,280,o),
(684,312,o),
(686,325,c),
(684,333,o),
(678,336,o),
(678,346,c),
(672,352,o),
(668,360,o),
(663,367,c),
(650,377,o),
(635,387,o),
(624,400,c),
(613,402,o),
(606,411,o),
(596,416,cs),
(585,422,o),
(573,422,o),
(561,428,c),
(550,428,o),
(540,434,o),
(528,434,c),
(525,435,o),
(520,433,o),
(517,433,cs),
(506,432,o),
(496,434,o),
(486,433,cs),
(481,432,o),
(476,430,o),
(470,428,cs),
(452,424,ls)
);
},
{
closed = 1;
nodes = (
(654,329,o),
(659,293,o),
(660,280,c),
(658,275,o),
(655,271,o),
(656,262,c),
(655,257,o),
(611,254,o),
(611,254,c),
(610,254,o),
(572,257,o),
(559,254,c),
(554,256,o),
(548,257,o),
(542,257,cs),
(515,255,o),
(485,255,o),
(455,254,c),
(449,255,o),
(445,257,o),
(439,257,c),
(423,254,o),
(407,257,o),
(390,257,cs),
(380,256,o),
(369,251,o),
(361,257,c),
(356,283,o),
(377,296,o),
(382,317,c),
(392,327,o),
(403,337,o),
(410,350,c),
(425,356,o),
(436,366,o),
(452,371,cs),
(467,376,o),
(482,387,o),
(500,388,cs),
(513,389,o),
(526,382,o),
(541,387,c),
(550,382,o),
(560,376,o),
(577,377,c),
(587,372,o),
(597,365,o),
(605,356,c),
(613,354,o),
(618,350,o),
(626,348,c),
(647,328,l)
);
}
);
width = 731;
}
);
unicode = 230;
},
{
glyphname = b;
kernLeft = h;
kernRight = o;
lastChange = "2025-01-06 14:17:27 +0000";
layers = (
{
anchors = (
{
name = bottom;
pos = (232,0);
},
{
name = center;
pos = (232,207);
},
{
name = top;
pos = (232,414);
}
);
layerId = "C5490108-C233-4ADF-8B6D-CFE8E3B23812";
shapes = (
{
closed = 1;
nodes = (
(291,416,o),
(277,422,o),
(263,422,c),
(257,423,o),
(250,421,o),
(242,421,cs),
(236,421,o),
(229,423,o),
(223,422,c),
(208,422,o),
(194,416,o),
(180,414,c),
(172,410,o),
(166,404,o),
(154,404,c),
(150,399,o),
(148,392,o),
(141,390,c),
(125,377,l),
(120,374,o),
(118,367,o),
(110,365,c),
(105,361,o),
(104,352,o),
(94,353,c),
(82,376,o),
(93,413,o),
(88,445,c),
(90,452,o),
(92,461,o),
(93,470,c),
(87,487,o),
(95,506,o),
(88,525,c),
(93,539,o),
(91,556,o),
(91,567,cs),
(91,572,o),
(93,576,o),
(93,580,cs),
(91,628,o),
(91,677,o),
(91,722,cs),
(91,731,o),
(96,741,o),
(88,749,c),
(73,753,o),
(57,747,o),
(48,741,c),
(42,729,o),
(41,700,o),
(47,686,c),
(42,673,o),
(48,658,o),
(48,644,cs),
(48,638,o),
(47,633,o),
(47,627,cs),
(45,605,o),
(50,581,o),
(45,566,c),
(50,540,o),
(44,506,o),
(48,478,c),
(49,470,o),
(44,470,o),
(45,463,c),
(53,448,o),
(47,428,o),
(48,409,cs),
(48,398,o),
(51,388,o),
(50,379,cs),
(50,371,o),
(47,365,o),
(47,359,c),
(48,353,o),
(49,346,o),
(50,340,c),
(47,310,o),
(50,280,o),
(48,253,c),
(48,246,o),
(52,241,o),
(52,234,c),
(46,207,o),
(54,179,o),
(48,154,c),
(53,132,o),
(49,103,o),
(52,81,c),
(48,73,o),
(48,64,o),
(47,54,cs),
(47,46,o),
(53,44,o),
(54,36,c),
(52,28,o),
(48,16,o),
(52,8,c),
(58,0,o),
(76,0,o),
(86,4,c),
(87,7,o),
(95,5,o),
(94,10,c),
(100,14,o),
(95,28,o),
(94,34,c),
(99,42,o),
(90,54,o),
(96,61,c),
(106,59,o),
(110,49,o),
(115,42,c),
(126,36,o),
(134,27,o),
(143,18,c),
(151,16,o),
(157,10,o),
(164,8,c),
(166,3,o),
(171,10,o),
(174,6,c),
(177,5,o),
(177,0,o),
(182,1,cs),
(216,3,o),
(250,-2,o),
(284,3,c),
(292,7,o),
(300,9,o),
(312,8,c),
(321,15,o),
(333,14,o),
(344,19,cs),
(355,25,o),
(362,36,o),
(372,42,c),
(376,47,o),
(381,50,o),
(386,54,cs),
(391,58,o),
(393,64,o),
(401,66,c),
(403,71,o),
(406,75,o),
(410,78,c),
(412,85,o),
(415,92,o),
(421,96,c),
(419,108,o),
(426,112,o),
(428,121,c),
(428,132,o),
(432,136,o),
(429,145,c),
(436,158,o),
(438,176,o),
(437,196,c),
(431,208,o),
(434,220,o),
(434,238,c),
(430,252,o),
(429,260,o),
(429,276,c),
(425,292,o),
(422,307,o),
(416,320,c),
(410,324,o),
(409,333,o),
(406,338,c),
(401,343,o),
(397,349,o),
(393,354,c),
(387,360,o),
(380,367,o),
(374,374,c),
(365,381,o),
(353,386,o),
(347,395,c),
(304,416,l)
);
},
{
closed = 1;
nodes = (
(87,214,o),
(89,236,o),
(94,255,c),
(94,269,o),
(101,277,o),
(102,291,c),
(109,301,o),
(119,310,o),
(124,323,c),
(162,349,l),
(172,358,o),
(189,362,o),
(203,369,c),
(234,369,l),
(241,367,o),
(241,373,o),
(248,372,cs),
(261,371,o),
(276,371,o),
(287,369,c),
(303,360,o),
(321,352,o),
(335,343,c),
(338,337,o),
(344,333,o),
(346,326,c),
(351,322,o),
(357,320,o),
(362,315,c),
(370,301,o),
(376,286,o),
(385,273,c),
(382,250,o),
(393,240,o),
(393,221,c),
(395,221,o),
(395,220,o),
(395,219,cs),
(393,190,o),
(388,164,o),
(383,138,c),
(377,128,o),
(371,120,o),
(369,107,c),
(358,100,o),
(351,90,o),
(340,84,cs),
(335,80,o),
(333,72,o),
(330,68,c),
(321,65,o),
(312,63,o),
(305,57,c),
(292,57,o),
(277,48,o),
(262,48,cs),
(255,48,o),
(247,49,o),
(239,49,cs),
(231,49,o),
(223,48,o),
(216,48,cs),
(196,49,o),
(180,59,o),
(164,65,c),
(159,66,o),
(156,70,o),
(153,73,c),
(143,76,o),
(141,86,o),
(133,91,cs),
(129,94,o),
(123,94,o),
(118,99,c),
(116,107,o),
(112,114,o),
(106,120,c),
(105,133,o),
(99,143,o),
(94,153,c),
(88,190,l)
);
}
);
width = 470;
}
);
unicode = 98;
},
{
glyphname = c;
kernLeft = o;
kernRight = c;
lastChange = "2025-01-06 14:17:27 +0000";
layers = (
{
anchors = (
{
name = bottom;
pos = (238,0);
},
{
name = top;
pos = (240,414);
}
);
layerId = "C5490108-C233-4ADF-8B6D-CFE8E3B23812";
shapes = (
{
closed = 1;
nodes = (
(367,386,o),
(365,391,o),
(362,393,cs),
(351,404,o),
(333,409,o),
(318,416,cs),
(302,422,o),
(282,424,o),
(265,428,c),
(232,427,o),
(199,425,o),
(170,419,c),
(162,416,o),
(156,412,o),
(149,409,c),
(124,407,o),
(119,387,o),
(103,375,cs),
(93,368,o),
(86,356,o),
(76,349,c),
(74,341,o),
(68,336,o),
(66,330,c),
(64,321,o),
(56,318,o),
(53,312,c),
(48,286,o),
(39,262,o),
(39,231,c),
(27,206,o),
(38,180,o),
(39,151,c),
(42,143,o),
(49,140,o),
(48,127,c),
(53,124,o),
(55,118,o),
(58,112,c),
(64,108,o),
(68,105,o),
(70,97,c),
(80,88,o),
(85,76,o),
(91,65,c),
(95,60,o),
(101,57,o),
(106,54,c),
(108,47,o),
(114,42,o),
(118,36,c),
(126,33,o),
(133,29,o),
(142,27,c),
(146,20,o),
(159,20,o),
(164,15,c),
(174,14,o),
(181,12,o),
(188,10,c),
(228,7,o),
(269,8,o),
(308,11,c),
(313,15,o),
(319,16,o),
(326,18,c),
(340,29,o),
(360,36,o),
(372,49,c),
(371,54,o),
(377,59,o),
(378,66,cs),
(381,81,o),
(378,101,o),
(367,105,c),
(353,103,o),
(351,89,o),
(339,86,cs),
(334,84,o),
(331,81,o),
(323,81,c),
(317,75,o),
(311,69,o),
(304,66,c),
(295,63,o),
(287,61,o),
(279,57,c),
(268,57,o),
(257,56,o),
(248,54,c),
(240,56,o),
(230,58,o),
(221,55,c),
(214,59,o),
(202,58,o),
(193,60,c),
(187,64,o),
(180,65,o),
(173,68,c),
(169,73,o),
(162,74,o),
(157,76,c),
(156,79,l),
(152,81,o),
(146,84,o),
(145,86,c),
(143,87,o),
(139,86,o),
(138,89,c),
(132,94,o),
(127,98,o),
(121,102,c),
(114,113,o),
(104,122,o),
(97,135,cs),
(88,148,o),
(80,166,o),
(78,185,c),
(77,188,o),
(76,189,o),
(76,192,c),
(76,192,o),
(78,195,o),
(78,198,c),
(74,209,l),
(72,226,o),
(75,238,o),
(79,252,cs),
(82,260,o),
(86,268,o),
(86,276,c),
(96,291,o),
(104,307,o),
(113,320,c),
(126,329,o),
(136,341,o),
(148,351,c),
(160,353,o),
(167,360,o),
(177,365,c),
(189,365,o),
(195,371,o),
(208,371,c),
(214,376,o),
(221,380,o),
(230,382,c),
(244,380,o),
(253,372,o),
(268,375,c),
(281,369,o),
(298,366,o),
(317,364,c),
(333,355,o),
(341,337,o),
(367,338,c),
(376,344,o),
(380,354,o),
(377,369,cs),
(377,370,o),
(373,371,o),
(372,372,cs),
(370,380,ls)
);
}
);
width = 408;
}
);
unicode = 99;
},
{
glyphname = d;
kernLeft = o;
kernRight = l;
lastChange = "2025-01-06 14:17:27 +0000";
layers = (
{
anchors = (
{
name = bottom;
pos = (244,0);
},
{
name = center;
pos = (244,207);
},
{
name = top;
pos = (244,713);
},
{
name = topright;
pos = (467,713);
}
);
layerId = "C5490108-C233-4ADF-8B6D-CFE8E3B23812";
shapes = (
{
closed = 1;
nodes = (
(422,654,o),
(419,669,o),
(419,684,cs),
(419,694,o),
(422,704,o),
(419,714,c),
(423,728,o),
(424,751,o),
(414,759,cs),
(409,763,o),
(404,763,o),
(396,762,cs),
(390,762,o),
(381,761,o),
(377,756,c),
(377,752,o),
(374,751,o),
(372,749,c),
(372,736,o),
(378,725,o),
(379,713,cs),
(380,699,o),
(377,686,o),
(377,673,cs),
(377,665,o),
(378,658,o),
(379,651,c),
(379,623,o),
(379,599,o),
(377,574,cs),
(377,565,o),
(381,561,o),
(380,552,cs),
(380,545,o),
(376,541,o),
(377,531,cs),
(380,516,o),
(379,500,o),
(379,485,cs),
(379,477,o),
(380,469,o),
(380,461,cs),
(380,452,o),
(379,444,o),
(379,435,cs),
(379,409,o),
(386,378,o),
(375,359,c),
(372,356,o),
(369,363,o),
(367,365,c),
(363,367,o),
(361,371,o),
(357,374,c),
(352,382,o),
(345,387,o),
(340,393,c),
(334,398,o),
(327,400,o),
(323,406,c),
(320,412,o),
(311,412,o),
(308,419,c),
(293,419,o),
(284,427,o),
(273,431,c),
(242,432,o),
(207,430,o),
(174,431,c),
(163,426,o),
(151,423,o),
(139,419,c),
(124,409,o),
(110,395,o),
(94,385,c),
(85,371,o),
(76,356,o),
(63,346,c),
(60,336,o),
(53,332,o),
(50,322,cs),
(48,313,o),
(42,306,o),
(40,296,c),
(31,280,o),
(27,105,o),
(50,94,c),
(64,86,o),
(71,71,o),
(82,61,cs),
(87,56,o),
(90,48,o),
(99,47,c),
(100,42,o),
(105,41,o),
(106,37,c),
(110,36,o),
(110,29,o),
(114,29,cs),
(124,25,o),
(132,20,o),
(141,15,c),
(151,13,o),
(160,10,o),
(169,8,cs),
(180,5,o),
(194,7,o),
(202,1,c),
(207,2,o),
(210,6,o),
(217,4,c),
(233,2,o),
(252,4,o),
(265,9,c),
(277,8,o),
(285,11,o),
(297,10,c),
(307,16,o),
(318,18,o),
(331,21,c),
(335,24,o),
(338,29,o),
(343,32,cs),
(354,37,o),
(355,51,o),
(369,55,c),
(372,59,o),
(371,68,o),
(379,68,c),
(381,62,o),
(382,53,o),
(382,45,cs),
(381,36,o),
(376,29,o),
(379,24,cs),
(385,12,o),
(409,13,o),
(419,21,c),
(425,24,o),
(422,35,o),
(425,42,c),
(419,79,o),
(423,128,o),
(421,166,cs),
(420,184,o),
(420,201,o),
(421,219,cs),
(421,232,o),
(419,244,o),
(419,256,cs),
(419,262,o),
(421,267,o),
(421,274,cs),
(421,292,o),
(419,311,o),
(418,330,c),
(426,350,o),
(420,373,o),
(421,398,cs),
(421,413,o),
(424,428,o),
(424,443,cs),
(424,457,o),
(422,472,o),
(422,486,cs),
(422,493,o),
(424,499,o),
(424,504,cs),
(423,520,o),
(419,533,o),
(419,548,cs),
(419,562,o),
(422,577,o),
(422,591,cs),
(423,603,o),
(423,617,o),
(422,627,cs),
(422,637,ls)
);
},
{
closed = 1;
nodes = (
(384,248,o),
(383,229,c),
(387,221,o),
(384,207,o),
(385,198,c),
(381,185,o),
(379,170,o),
(377,156,c),
(373,143,o),
(365,134,o),
(362,120,c),
(358,115,o),
(353,110,o),
(347,107,c),
(345,102,o),
(341,97,o),
(338,91,c),
(321,80,o),
(307,67,o),
(281,65,c),
(276,61,o),
(270,58,o),
(263,55,c),
(235,53,o),
(219,55,o),
(192,57,c),
(181,59,o),
(173,65,o),
(162,66,c),
(153,72,o),
(146,80,o),
(135,82,c),
(122,97,o),
(107,110,o),
(94,125,c),
(91,135,o),
(87,144,o),
(82,151,c),
(84,162,o),
(79,167,o),
(78,175,cs),
(78,190,o),
(76,203,o),
(75,217,c),
(77,225,o),
(79,234,o),
(78,245,c),
(82,268,o),
(89,288,o),
(99,305,c),
(99,309,o),
(102,311,o),
(104,313,cs),
(106,316,o),
(109,320,o),
(114,325,cs),
(116,327,o),
(116,329,o),
(118,331,cs),
(124,336,o),
(135,339,o),
(138,349,c),
(146,350,o),
(150,355,o),
(154,361,c),
(162,363,o),
(170,366,o),
(177,370,c),
(184,371,o),
(191,375,o),
(199,377,c),
(211,377,o),
(219,374,o),
(229,379,c),
(243,371,o),
(261,375,o),
(280,371,c),
(294,364,o),
(305,353,o),
(320,347,c),
(323,344,o),
(326,340,o),
(328,335,c),
(336,334,o),
(340,329,o),
(347,326,c),
(351,321,o),
(354,316,o),
(359,313,c),
(360,305,o),
(365,300,o),
(369,295,c),
(369,287,o),
(372,282,o),
(375,276,c),
(378,261,o)
);
}
);
width = 467;
}
);
unicode = 100;
},
{
glyphname = eth;
kernLeft = eth;
kernRight = eth;
lastChange = "2025-01-06 14:17:27 +0000";
layers = (
{
layerId = "C5490108-C233-4ADF-8B6D-CFE8E3B23812";
shapes = (
{
closed = 1;
nodes = (
(447,247,o),
(447,250,o),
(447,256,c),
(446,265,o),
(438,270,o),
(438,280,c),
(436,289,o),
(432,296,o),
(430,306,c),
(424,316,o),
(414,324,o),
(415,344,c),
(408,352,o),
(401,361,o),
(391,368,c),
(386,383,o),
(371,390,o),
(371,407,c),
(359,413,o),
(357,428,o),
(345,435,c),
(344,440,o),
(341,444,o),
(339,448,c),
(330,457,o),
(323,468,o),
(315,478,c),
(310,490,o),
(299,491,o),
(298,507,c),
(290,500,o),
(287,525,o),
(279,529,c),
(274,535,o),
(269,542,o),
(263,547,c),
(261,553,o),
(257,556,o),
(257,562,c),
(247,570,o),
(240,580,o),
(230,588,c),
(224,595,o),
(219,612,o),
(212,616,cs),
(206,618,o),
(196,618,o),
(188,618,c),
(180,610,o),
(170,603,o),
(167,591,c),
(167,576,o),
(180,573,o),
(181,560,c),
(190,552,o),
(196,542,o),
(203,532,c),
(211,514,o),
(219,504,o),
(222,504,c),
(236,494,o),
(243,479,o),
(256,467,c),
(260,461,o),
(267,456,o),
(271,448,cs),
(276,442,o),
(285,440,o),
(285,428,c),
(281,419,o),
(273,426,o),
(264,428,c),
(251,428,o),
(236,417,o),
(225,421,c),
(215,406,o),
(204,420,o),
(189,419,c),
(181,422,o),
(154,414,o),
(149,411,cs),
(115,394,o),
(143,406,o),
(108,390,c),
(100,379,o),
(93,382,o),
(79,376,c),
(72,360,o),
(62,350,o),
(48,339,c),
(48,333,o),
(47,328,o),
(45,324,cs),
(40,314,o),
(36,302,o),
(29,295,c),
(29,285,o),
(18,280,o),
(20,272,c),
(16,256,o),
(15,237,o),
(16,217,cs),
(16,210,o),
(19,205,o),
(22,201,c),
(25,175,o),
(35,156,o),
(40,131,c),
(48,120,o),
(54,108,o),
(58,93,cs),
(60,87,o),
(66,86,o),
(69,82,c),
(71,75,o),
(78,73,o),
(80,68,c),
(90,62,o),
(99,54,o),
(107,46,c),
(118,44,o),
(125,40,o),
(131,33,c),
(150,29,o),
(164,21,o),
(182,15,c),
(195,14,o),
(207,13,o),
(218,10,c),
(241,10,o),
(270,12,o),
(295,15,c),
(304,18,o),
(310,24,o),
(320,25,c),
(326,24,o),
(324,31,o),
(331,30,c),
(333,32,o),
(337,33,o),
(341,35,c),
(349,37,o),
(353,43,o),
(363,44,c),
(370,49,o),
(376,55,o),
(384,59,c),
(398,77,o),
(394,70,o),
(399,75,cs),
(404,81,o),
(409,86,o),
(415,89,c),
(414,107,o),
(425,114,o),
(430,124,c),
(429,141,o),
(437,148,o),
(441,160,c),
(439,173,o),
(446,178,o),
(444,191,c),
(447,202,o),
(451,213,o),
(456,223,c),
(456,243,l)
);
},
{
closed = 1;
nodes = (
(312,80,o),
(300,75,o),
(287,75,c),
(276,66,o),
(257,65,o),
(240,61,c),
(226,61,o),
(216,62,o),
(199,62,c),
(181,72,o),
(158,78,o),
(140,87,c),
(140,90,o),
(136,91,o),
(136,92,c),
(135,93,o),
(134,92,o),
(133,93,cs),
(120,105,o),
(112,121,o),
(98,131,c),
(95,141,o),
(88,146,o),
(85,155,cs),
(82,164,o),
(77,172,o),
(72,181,c),
(72,192,o),
(70,202,o),
(67,212,c),
(65,240,o),
(73,258,o),
(77,280,c),
(80,286,o),
(86,288,o),
(90,293,c),
(92,303,o),
(113,324,o),
(122,330,c),
(122,339,o),
(129,340,o),
(131,347,c),
(143,350,o),
(191,372,o),
(206,379,c),
(220,381,o),
(236,381,o),
(253,381,c),
(264,377,o),
(274,371,o),
(288,375,c),
(295,371,o),
(303,366,o),
(314,365,c),
(320,357,o),
(329,352,o),
(337,347,c),
(345,339,o),
(353,334,o),
(360,327,c),
(375,305,o),
(389,281,o),
(398,254,c),
(399,240,o),
(399,225,o),
(399,215,cs),
(399,214,o),
(399,213,o),
(398,213,c),
(398,194,o),
(390,183,o),
(387,167,c),
(377,154,o),
(371,139,o),
(362,124,c),
(356,121,o),
(349,118,o),
(344,113,c),
(342,101,o),
(332,93,o),
(323,89,c),
(321,86,l)
);
}
);
width = 466;
}
);
unicode = 240;
},
{
glyphname = e;
kernLeft = o;
kernRight = e;
lastChange = "2025-01-06 14:17:27 +0000";
layers = (
{
anchors = (
{
name = bottom;
pos = (221,0);
},
{
name = ogonek;
pos = (234,10);
},
{
name = top;
pos = (221,414);
}
);
layerId = "C5490108-C233-4ADF-8B6D-CFE8E3B23812";
shapes = (
{
closed = 1;
nodes = (
(400,300,o),
(391,316,o),
(390,331,c),
(385,337,o),
(379,344,o),
(376,353,c),
(368,360,o),
(361,370,o),
(354,379,c),
(340,387,o),
(332,398,o),
(321,409,c),
(312,413,o),
(300,415,o),
(294,422,c),
(263,428,o),
(232,432,o),
(199,432,c),
(179,430,o),
(161,425,o),
(143,421,c),
(137,413,o),
(126,410,o),
(117,406,c),
(103,390,o),
(89,375,o),
(74,361,c),
(69,350,o),
(63,341,o),
(57,331,c),
(53,320,o),
(47,310,o),
(44,297,cs),
(42,290,o),
(43,276,o),
(41,266,cs),
(41,264,o),
(38,261,o),
(38,258,cs),
(36,227,ls),
(35,218,o),
(33,208,o),
(33,199,cs),
(33,184,o),
(38,169,o),
(38,156,c),
(44,143,o),
(51,133,o),
(53,117,c),
(57,112,o),
(61,108,o),
(64,104,c),
(69,77,o),
(86,64,o),
(103,48,c),
(113,45,o),
(120,37,o),
(131,34,c),
(135,31,o),
(140,29,o),
(144,27,cs),
(149,25,o),
(150,18,o),
(156,18,c),
(181,8,o),
(224,14,o),
(255,10,c),
(261,10,o),
(265,14,o),
(272,15,c),
(301,13,o),
(317,26,o),
(337,34,c),
(347,35,o),
(366,58,o),
(366,67,c),
(371,81,o),
(385,87,o),
(393,99,c),
(398,111,o),
(406,126,o),
(404,141,c),
(395,149,o),
(384,154,o),
(369,156,c),
(360,146,o),
(354,135,o),
(351,121,c),
(343,113,o),
(336,103,o),
(330,93,c),
(322,89,o),
(316,84,o),
(311,81,cs),
(299,74,o),
(288,67,o),
(275,63,cs),
(263,59,o),
(249,57,o),
(234,57,c),
(224,60,o),
(213,60,o),
(200,60,c),
(191,63,o),
(182,65,o),
(171,65,c),
(157,71,o),
(143,80,o),
(131,88,c),
(124,99,o),
(116,108,o),
(106,117,c),
(105,123,o),
(105,127,o),
(103,131,cs),
(99,138,o),
(91,143,o),
(89,149,c),
(90,174,o),
(68,191,o),
(82,213,c),
(101,215,o),
(120,209,o),
(140,209,c),
(147,210,o),
(156,213,o),
(163,213,cs),
(175,213,o),
(186,209,o),
(197,209,cs),
(201,209,o),
(206,211,o),
(212,211,cs),
(223,211,o),
(235,209,o),
(246,209,cs),
(265,210,o),
(285,217,o),
(303,211,c),
(311,216,o),
(319,213,o),
(329,213,cs),
(353,213,o),
(379,213,o),
(404,214,c),
(407,218,o),
(409,222,o),
(408,231,c),
(405,232,o),
(409,240,o),
(405,241,c),
(404,245,o),
(399,244,o),
(399,250,c),
(406,256,o),
(402,263,o),
(402,271,cs),
(402,283,ls)
);
},
{
closed = 1;
nodes = (
(351,256,o),
(347,253,c),
(337,252,o),
(333,257,o),
(326,257,cs),
(314,257,o),
(307,255,o),
(298,258,c),
(287,255,o),
(277,257,o),
(262,256,cs),
(257,255,o),
(256,258,o),
(251,258,cs),
(237,257,o),
(221,257,o),
(210,253,c),
(202,252,o),
(201,257,o),
(195,257,c),
(182,254,o),
(164,256,o),
(152,252,c),
(128,257,o),
(102,247,o),
(82,250,c),
(78,254,o),
(83,258,o),
(83,263,c),
(81,268,o),
(81,274,o),
(82,280,c),
(86,291,o),
(89,305,o),
(98,313,c),
(98,319,o),
(104,322,o),
(106,328,cs),
(109,332,o),
(110,336,o),
(113,340,cs),
(115,343,o),
(118,349,o),
(122,352,cs),
(124,353,o),
(125,352,o),
(127,353,c),
(133,356,o),
(139,368,o),
(145,371,c),
(159,375,o),
(170,381,o),
(181,386,c),
(198,387,o),
(211,389,o),
(223,392,c),
(236,389,o),
(252,388,o),
(266,386,c),
(278,378,o),
(294,373,o),
(308,367,c),
(313,361,o),
(318,355,o),
(324,351,c),
(326,340,o),
(333,333,o),
(339,326,cs),
(340,325,o),
(339,323,o),
(340,322,cs),
(342,320,o),
(348,318,o),
(350,314,c),
(348,296,o),
(368,281,o),
(352,268,c),
(352,262,o)
);
}
);
width = 436;
}
);
unicode = 101;
},
{
glyphname = f;
lastChange = "2025-01-06 14:17:27 +0000";
layers = (
{
anchors = (
{
name = bottom;
pos = (106,0);
},
{
name = top;
pos = (106,713);
}
);
layerId = "C5490108-C233-4ADF-8B6D-CFE8E3B23812";
shapes = (
{
closed = 1;
nodes = (
(79,241,o),
(75,189,o),
(75,141,cs),
(75,122,o),
(78,103,o),
(78,86,cs),
(78,77,o),
(76,69,o),
(78,61,c),
(73,47,o),
(67,26,o),
(76,13,c),
(88,9,o),
(112,10,o),
(119,19,c),
(123,33,o),
(114,44,o),
(112,57,c),
(113,144,o),
(114,215,o),
(112,294,c),
(119,316,o),
(110,342,o),
(115,369,c),
(127,379,o),
(147,374,o),
(168,374,c),
(177,372,o),
(178,377,o),
(182,379,c),
(187,387,o),
(187,404,o),
(182,411,c),
(180,413,o),
(176,415,o),
(174,418,c),
(169,418,o),
(162,419,o),
(156,418,cs),
(149,417,o),
(144,414,o),
(140,413,c),
(135,417,o),
(124,414,o),
(119,418,c),
(110,432,o),
(115,449,o),
(115,466,cs),
(116,473,o),
(114,481,o),
(114,488,cs),
(114,517,l),
(115,523,o),
(118,529,o),
(119,536,c),
(118,546,o),
(113,551,o),
(119,560,c),
(111,577,o),
(120,608,o),
(112,624,c),
(118,636,o),
(114,652,o),
(114,666,c),
(116,677,o),
(122,684,o),
(124,694,c),
(133,701,o),
(141,709,o),
(151,713,c),
(164,713,o),
(181,711,o),
(192,714,c),
(203,723,o),
(200,757,o),
(189,765,c),
(172,766,o),
(155,765,o),
(140,764,c),
(124,754,o),
(105,748,o),
(93,733,c),
(88,722,o),
(82,713,o),
(76,702,c),
(76,688,o),
(73,676,o),
(70,665,c),
(76,650,o),
(72,625,o),
(73,606,c),
(68,593,o),
(71,576,o),
(75,562,c),
(70,519,o),
(75,482,o),
(73,437,c),
(74,426,o),
(74,413,o),
(65,411,c),
(57,405,o),
(48,418,o),
(38,411,cs),
(29,405,o),
(24,380,o),
(36,372,c),
(47,369,o),
(55,373,o),
(67,372,c),
(78,363,o),
(77,348,o),
(76,333,cs),
(76,289,ls)
);
}
);
width = 213;
}
);
unicode = 102;
},
{
glyphname = g;
kernLeft = g;
kernRight = g;
lastChange = "2025-01-06 14:17:27 +0000";
layers = (
{
anchors = (
{
name = bottom;
pos = (250,-237);
},
{
name = top;
pos = (250,414);
}
);
layerId = "C5490108-C233-4ADF-8B6D-CFE8E3B23812";
shapes = (
{
closed = 1;
nodes = (
(422,-69,o),
(420,-62,o),
(420,-54,cs),
(420,-47,o),
(428,26,o),
(422,34,c),
(425,57,o),
(424,79,o),
(422,102,c),
(424,105,o),
(422,175,o),
(422,198,cs),
(421,219,o),
(418,240,o),
(418,262,cs),
(419,314,o),
(419,365,o),
(415,419,c),
(410,425,o),
(411,431,o),
(402,432,cs),
(392,433,o),
(388,429,o),
(381,427,c),
(376,420,o),
(378,409,o),
(377,398,cs),
(376,389,o),
(376,367,o),
(368,365,c),
(359,368,o),
(358,379,o),
(352,385,cs),
(346,390,o),
(339,397,o),
(333,404,c),
(326,406,o),
(321,410,o),
(315,414,c),
(284,424,o),
(239,435,o),
(203,425,c),
(189,431,o),
(169,425,o),
(160,417,c),
(146,417,o),
(141,409,o),
(129,407,c),
(121,402,o),
(112,396,o),
(105,390,cs),
(99,385,o),
(90,379,o),
(86,374,cs),
(86,372,o),
(86,371,o),
(85,370,cs),
(78,362,o),
(68,357,o),
(64,349,cs),
(58,339,o),
(56,327,o),
(53,314,c),
(45,301,o),
(47,287,o),
(47,264,c),
(42,255,o),
(39,251,o),
(35,239,c),
(37,221,o),
(31,203,o),
(36,187,c),
(33,181,o),
(36,169,o),
(33,163,c),
(39,157,o),
(39,145,o),
(41,136,cs),
(43,126,o),
(48,120,o),
(48,107,c),
(58,100,o),
(63,90,o),
(66,76,c),
(85,63,o),
(96,55,o),
(112,38,c),
(124,36,o),
(131,29,o),
(141,23,c),
(159,19,o),
(177,13,o),
(196,10,c),
(213,10,o),
(230,10,o),
(242,9,c),
(265,12,o),
(288,16,o),
(308,23,c),
(320,32,o),
(333,40,o),
(347,48,c),
(351,52,o),
(357,56,o),
(360,61,cs),
(362,64,o),
(376,80,o),
(379,82,cs),
(382,84,o),
(379,35,o),
(381,29,cs),
(384,21,o),
(381,-57,o),
(378,-95,c),
(374,-96,o),
(380,-111,o),
(376,-112,cs),
(358,-115,o),
(325,-121,o),
(310,-116,c),
(260,-117,o),
(214,-121,o),
(167,-113,c),
(146,-121,o),
(119,-109,o),
(100,-115,c),
(96,-118,o),
(93,-121,o),
(89,-123,c),
(87,-129,o),
(84,-124,o),
(85,-135,cs),
(85,-137,o),
(84,-137,o),
(83,-138,cs),
(81,-139,o),
(83,-152,o),
(86,-155,cs),
(87,-156,o),
(91,-155,o),
(94,-156,cs),
(96,-157,o),
(99,-161,o),
(100,-161,cs),
(106,-162,o),
(116,-161,o),
(121,-161,cs),
(142,-166,o),
(172,-159,o),
(193,-159,c),
(199,-162,o),
(205,-161,o),
(212,-161,cs),
(236,-161,o),
(258,-161,o),
(282,-161,c),
(289,-161,o),
(292,-164,o),
(299,-165,c),
(334,-161,o),
(382,-169,o),
(420,-159,c),
(422,-154,o),
(416,-151,o),
(419,-148,c),
(419,-129,o),
(422,-114,o),
(418,-96,c),
(422,-77,l)
);
},
{
closed = 1;
nodes = (
(382,235,o),
(383,223,c),
(384,223,o),
(384,222,o),
(384,221,cs),
(381,200,o),
(382,172,o),
(373,151,cs),
(371,144,o),
(366,141,o),
(363,133,cs),
(360,127,o),
(355,124,o),
(352,118,cs),
(344,106,o),
(343,103,o),
(336,91,c),
(332,91,o),
(322,82,o),
(320,79,c),
(311,75,o),
(304,69,o),
(296,64,c),
(284,59,o),
(264,63,o),
(252,58,c),
(236,57,o),
(219,58,o),
(205,59,c),
(200,62,o),
(197,54,o),
(191,58,c),
(179,56,o),
(174,69,o),
(163,69,c),
(156,73,o),
(154,82,o),
(143,80,c),
(137,87,o),
(130,87,o),
(122,91,c),
(119,97,o),
(113,112,o),
(107,115,c),
(105,124,o),
(99,131,o),
(94,139,c),
(91,149,o),
(89,160,o),
(84,166,c),
(85,180,o),
(81,187,o),
(79,198,c),
(79,226,o),
(81,236,o),
(85,260,c),
(86,266,o),
(90,270,o),
(92,276,cs),
(97,288,o),
(107,297,o),
(109,327,c),
(120,333,o),
(125,345,o),
(134,353,c),
(145,359,o),
(157,364,o),
(165,371,c),
(179,374,o),
(191,378,o),
(203,382,c),
(212,382,o),
(221,383,o),
(226,379,c),
(232,379,o),
(234,384,o),
(240,384,c),
(252,379,o),
(263,383,o),
(276,380,cs),
(283,378,o),
(289,373,o),
(295,369,c),
(302,370,o),
(304,366,o),
(311,366,c),
(317,359,o),
(327,354,o),
(335,349,c),
(345,339,o),
(352,327,o),
(362,317,c),
(363,308,o),
(377,266,o),
(380,257,c),
(378,243,o)
);
}
);
width = 466;
}
);
unicode = 103;
},
{
glyphname = h;
kernLeft = h;
kernRight = n;
lastChange = "2025-01-06 14:17:27 +0000";
layers = (
{
anchors = (
{
name = bottom;
pos = (207,0);
},
{
name = center;
pos = (190,356);
},
{
name = top;
pos = (71,743);
}
);
layerId = "C5490108-C233-4ADF-8B6D-CFE8E3B23812";
shapes = (
{
closed = 1;
nodes = (
(310,397,o),
(296,404,o),
(285,413,c),
(279,416,o),
(275,413,o),
(269,414,c),
(268,415,o),
(266,417,o),
(266,418,c),
(262,420,o),
(258,421,o),
(256,422,c),
(255,423,o),
(255,425,o),
(254,425,c),
(248,428,o),
(241,430,o),
(235,431,cs),
(226,432,o),
(219,429,o),
(210,428,cs),
(197,427,o),
(182,428,o),
(167,425,c),
(159,421,o),
(155,412,o),
(144,410,c),
(140,402,o),
(131,398,o),
(122,393,c),
(119,387,o),
(112,382,o),
(108,375,c),
(103,371,o),
(102,361,o),
(92,359,c),
(87,375,o),
(90,394,o),
(90,406,cs),
(90,409,o),
(89,412,o),
(89,414,cs),
(89,427,o),
(92,439,o),
(92,450,cs),
(92,458,o),
(89,466,o),
(89,473,cs),
(89,483,o),
(92,493,o),
(92,503,cs),
(92,527,o),
(90,552,o),
(89,577,cs),
(88,591,o),
(88,605,o),
(92,618,c),
(89,655,o),
(89,706,o),
(95,743,c),
(92,747,o),
(90,752,o),
(87,757,c),
(83,759,o),
(80,762,o),
(76,764,c),
(67,764,o),
(65,760,o),
(56,761,c),
(51,754,o),
(46,750,o),
(43,743,c),
(49,704,o),
(48,652,o),
(48,611,c),
(47,604,o),
(51,602,o),
(50,596,cs),
(46,578,o),
(50,561,o),
(50,545,cs),
(49,535,o),
(47,523,o),
(48,513,cs),
(48,508,o),
(49,503,o),
(50,497,cs),
(51,482,o),
(50,466,o),
(48,449,c),
(53,437,o),
(50,425,o),
(50,413,cs),
(50,398,o),
(51,382,o),
(51,367,cs),
(51,305,ls),
(51,300,o),
(53,296,o),
(53,292,cs),
(53,263,o),
(54,232,o),
(51,202,c),
(56,186,o),
(53,171,o),
(53,154,cs),
(53,144,o),
(54,135,o),
(54,125,cs),
(54,99,o),
(52,71,o),
(54,48,c),
(53,41,o),
(48,32,o),
(51,26,c),
(62,20,o),
(86,17,o),
(97,22,c),
(105,30,o),
(99,42,o),
(97,52,c),
(97,68,o),
(94,83,o),
(92,97,c),
(94,105,o),
(95,113,o),
(95,123,c),
(88,169,o),
(92,219,o),
(92,270,c),
(98,296,o),
(115,313,o),
(125,335,c),
(136,343,o),
(143,355,o),
(155,362,c),
(165,366,o),
(175,371,o),
(188,369,c),
(193,371,o),
(198,375,o),
(207,374,c),
(215,375,o),
(219,380,o),
(228,379,c),
(247,373,o),
(253,355,o),
(275,353,c),
(278,344,o),
(286,340,o),
(292,333,c),
(295,327,o),
(295,322,o),
(298,315,c),
(301,268,o),
(302,226,o),
(303,181,c),
(298,164,o),
(298,138,o),
(305,123,c),
(304,117,o),
(302,112,o),
(302,106,c),
(308,88,o),
(302,68,o),
(303,47,c),
(302,37,o),
(296,31,o),
(300,22,c),
(304,16,o),
(314,18,o),
(324,18,cs),
(334,17,o),
(342,19,o),
(348,22,c),
(353,29,o),
(352,36,o),
(352,42,cs),
(341,86,o),
(347,136,o),
(347,185,cs),
(347,209,o),
(345,233,o),
(348,256,c),
(348,262,o),
(345,267,o),
(344,273,c),
(346,277,o),
(347,284,o),
(347,292,c),
(344,302,o),
(339,311,o),
(341,326,c),
(333,333,o),
(333,348,o),
(332,361,c),
(319,386,l)
);
}
);
width = 395;
}
);
unicode = 104;
},
{
glyphname = idotless;
kernLeft = i;
kernRight = i;
lastChange = "2025-01-06 14:17:27 +0000";
layers = (
{
anchors = (
{
name = bottom;
pos = (81,0);
},
{
name = ogonek;
pos = (77,10);
},
{
name = top;
pos = (85,414);
}
);
layerId = "C5490108-C233-4ADF-8B6D-CFE8E3B23812";
shapes = (
{
closed = 1;
nodes = (
(95,404,o),
(83,412,o),
(70,406,c),
(60,392,o),
(68,362,o),
(65,340,cs),
(62,323,l),
(68,309,o),
(61,290,o),
(67,276,c),
(65,272,o),
(64,268,o),
(63,263,c),
(63,235,o),
(65,202,o),
(63,177,cs),
(62,165,o),
(61,156,o),
(61,145,cs),
(62,133,o),
(66,121,o),
(66,109,cs),
(66,103,o),
(65,95,o),
(65,88,cs),
(65,81,o),
(67,73,o),
(66,66,cs),
(65,50,o),
(57,36,o),
(58,21,c),
(63,12,o),
(69,6,o),
(81,4,c),
(93,4,o),
(110,5,o),
(107,18,cs),
(105,27,o),
(102,39,o),
(100,52,cs),
(97,82,o),
(104,119,o),
(99,145,c),
(102,150,o),
(101,159,o),
(104,164,c),
(99,187,o),
(102,209,o),
(102,232,cs),
(104,398,l)
);
}
);
width = 176;
}
);
unicode = 305;
},
{
glyphname = jdotless;
kernLeft = j;
kernRight = j;
lastChange = "2025-01-06 14:17:27 +0000";
layers = (
{
anchors = (
{
name = bottom;
pos = (97,-237);
},
{
name = top;
pos = (98,414);
}
);
layerId = "C5490108-C233-4ADF-8B6D-CFE8E3B23812";
shapes = (
{
closed = 1;
nodes = (
(77,168,o),
(79,160,o),
(79,149,cs),
(79,140,o),
(77,130,o),
(77,121,c),
(81,100,l),
(81,94,o),
(79,87,o),
(79,81,cs),
(79,37,o),
(83,-8,o),
(74,-48,c),
(84,-83,o),
(70,-125,o),
(74,-159,c),
(82,-167,o),
(95,-171,o),
(110,-173,c),
(118,-167,o),
(122,-159,o),
(124,-148,c),
(118,-134,o),
(121,-117,o),
(119,-101,c),
(114,-92,o),
(116,-81,o),
(116,-72,cs),
(116,-68,o),
(114,-66,o),
(114,-64,cs),
(118,-28,o),
(116,10,o),
(118,40,c),
(117,46,o),
(117,53,o),
(115,58,c),
(119,180,o),
(117,280,o),
(120,400,c),
(113,407,o),
(98,411,o),
(86,409,c),
(75,401,o),
(79,383,o),
(81,368,cs),
(81,362,o),
(78,358,o),
(78,352,c),
(82,330,o),
(77,297,o),
(81,276,c),
(75,259,o),
(80,242,o),
(79,227,c),
(80,219,o),
(81,209,o),
(81,200,c),
(77,178,l)
);
}
);
width = 166;
}
);
unicode = 567;
},
{
glyphname = k;
kernLeft = h;
kernRight = k;
lastChange = "2025-01-06 14:17:27 +0000";
layers = (
{
anchors = (
{
name = bottom;
pos = (175,0);
},
{
name = top;
pos = (175,713);
}
);
layerId = "C5490108-C233-4ADF-8B6D-CFE8E3B23812";
shapes = (
{
closed = 1;
nodes = (
(335,25,o),
(332,29,o),
(329,35,c),
(325,39,o),
(318,41,o),
(314,44,c),
(311,57,o),
(295,58,o),
(290,67,cs),
(287,71,o),
(271,87,o),
(267,92,c),
(267,92,o),
(252,109,o),
(241,113,c),
(236,123,o),
(190,180,o),
(179,183,c),
(155,206,ls),
(151,210,o),
(148,216,o),
(143,218,c),
(141,224,o),
(133,223,o),
(134,233,c),
(142,244,o),
(154,249,o),
(162,257,cs),
(172,265,o),
(180,276,o),
(191,281,c),
(196,286,o),
(199,292,o),
(203,297,c),
(210,300,o),
(216,303,o),
(222,308,c),
(242,332,l),
(250,338,o),
(256,348,o),
(266,352,c),
(270,356,o),
(270,362,o),
(274,366,cs),
(281,372,o),
(298,380,o),
(297,392,cs),
(296,402,o),
(284,407,o),
(275,409,cs),
(256,414,o),
(245,403,o),
(233,399,c),
(224,383,o),
(209,375,o),
(201,359,c),
(186,349,l),
(183,341,o),
(177,336,o),
(173,329,c),
(155,315,o),
(142,297,o),
(128,279,c),
(122,276,o),
(118,267,o),
(110,264,c),
(105,258,o),
(99,253,o),
(92,248,c),
(86,255,o),
(86,266,o),
(86,277,cs),
(86,305,o),
(88,332,o),
(89,350,c),
(86,362,o),
(85,378,o),
(89,390,c),
(86,478,o),
(93,561,o),
(89,651,c),
(95,669,o),
(92,692,o),
(89,711,c),
(90,718,o),
(94,724,o),
(93,733,c),
(88,740,o),
(82,750,o),
(71,751,c),
(66,751,o),
(61,749,o),
(54,748,c),
(50,742,o),
(48,735,o),
(45,731,c),
(45,716,o),
(48,702,o),
(49,688,cs),
(50,679,o),
(49,671,o),
(49,661,cs),
(50,619,o),
(50,571,o),
(50,532,cs),
(51,516,o),
(46,499,o),
(46,483,cs),
(47,470,o),
(48,458,o),
(48,446,cs),
(49,426,o),
(49,405,o),
(48,389,cs),
(48,384,o),
(50,380,o),
(50,375,cs),
(50,368,o),
(48,361,o),
(48,354,cs),
(48,340,o),
(49,326,o),
(48,311,cs),
(48,283,o),
(50,256,o),
(48,228,cs),
(48,182,ls),
(48,166,o),
(46,152,o),
(46,137,cs),
(46,121,o),
(48,105,o),
(48,87,cs),
(48,79,o),
(45,69,o),
(44,61,cs),
(44,56,o),
(46,52,o),
(46,48,cs),
(46,38,o),
(42,29,o),
(43,20,c),
(45,19,o),
(44,14,o),
(46,11,cs),
(51,4,o),
(57,-2,o),
(67,-4,c),
(74,-4,o),
(80,-3,o),
(82,1,c),
(86,3,o),
(91,3,o),
(92,9,cs),
(93,17,o),
(89,34,o),
(87,46,c),
(87,51,o),
(82,51,o),
(83,58,cs),
(86,72,o),
(87,86,o),
(87,101,cs),
(87,128,o),
(86,157,o),
(86,186,c),
(92,191,o),
(95,200,o),
(105,200,cs),
(112,200,o),
(112,192,o),
(118,189,c),
(120,184,o),
(125,182,o),
(126,176,c),
(134,169,o),
(142,162,o),
(147,152,c),
(162,138,o),
(175,120,o),
(191,105,c),
(193,103,o),
(193,97,o),
(195,94,c),
(203,91,o),
(205,83,o),
(212,79,c),
(261,25,l),
(269,22,o),
(272,13,o),
(280,10,c),
(283,9,o),
(288,7,o),
(290,4,c),
(295,3,o),
(292,-7,o),
(298,-6,cs),
(312,-3,o),
(314,-10,o),
(326,-10,c),
(335,-5,o),
(341,-1,o),
(341,14,c),
(338,18,l)
);
}
);
width = 370;
}
);
unicode = 107;
},
{
glyphname = kgreenlandic;
kernLeft = n;
kernRight = k;
lastChange = "2025-01-06 14:17:27 +0000";
layers = (
{
anchors = (
{
name = bottom;
pos = (198,0);
},
{
name = top;
pos = (198,713);
}
);
layerId = "C5490108-C233-4ADF-8B6D-CFE8E3B23812";
shapes = (
{
closed = 1;
nodes = (
(358,25,o),
(354,29,o),
(352,35,c),
(348,39,o),
(341,41,o),
(336,44,c),
(333,57,o),
(318,58,o),
(313,67,cs),
(310,71,o),
(294,87,o),
(290,92,c),
(290,92,o),
(275,109,o),
(264,113,c),
(258,123,o),
(213,180,o),
(201,183,c),
(178,206,ls),
(174,210,o),
(171,216,o),
(165,218,c),
(163,224,o),
(156,223,o),
(157,233,c),
(164,244,o),
(177,249,o),
(185,257,cs),
(195,265,o),
(202,276,o),
(214,281,c),
(219,286,o),
(221,292,o),
(226,297,c),
(233,300,o),
(238,303,o),
(245,308,c),
(265,332,l),
(273,338,o),
(278,348,o),
(289,352,c),
(293,356,o),
(293,362,o),
(296,366,cs),
(304,372,o),
(321,380,o),
(320,392,cs),
(319,402,o),
(307,407,o),
(297,409,cs),
(278,414,o),
(268,403,o),
(256,399,c),
(247,383,o),
(232,375,o),
(224,359,c),
(209,349,l),
(206,341,o),
(200,336,o),
(196,329,c),
(178,315,o),
(164,297,o),
(151,279,c),
(144,276,o),
(141,267,o),
(133,264,c),
(128,258,o),
(122,253,o),
(115,248,c),
(109,255,o),
(109,266,o),
(109,277,cs),
(112,315,l),
(118,333,o),
(115,356,o),
(112,375,c),
(113,383,o),
(117,389,o),
(116,398,c),
(111,405,o),
(105,414,o),
(94,416,c),
(88,416,o),
(84,413,o),
(77,412,c),
(73,407,o),
(71,400,o),
(67,395,c),
(67,381,o),
(71,367,o),
(72,352,cs),
(73,344,o),
(73,335,o),
(72,326,cs),
(71,311,ls),
(69,283,o),
(73,256,o),
(71,228,cs),
(71,182,ls),
(71,166,o),
(68,152,o),
(68,137,cs),
(68,121,o),
(71,105,o),
(71,87,cs),
(71,79,o),
(67,69,o),
(67,61,cs),
(67,56,o),
(68,52,o),
(68,48,cs),
(68,38,o),
(65,29,o),
(66,20,c),
(67,19,o),
(67,14,o),
(68,11,cs),
(74,4,o),
(80,-2,o),
(90,-4,c),
(97,-4,o),
(103,-3,o),
(105,1,c),
(108,3,o),
(114,3,o),
(115,9,cs),
(116,17,o),
(112,34,o),
(110,46,c),
(110,51,o),
(105,51,o),
(105,58,cs),
(108,72,o),
(110,86,o),
(110,101,cs),
(110,128,o),
(108,157,o),
(108,186,c),
(115,191,o),
(118,200,o),
(128,200,cs),
(135,200,o),
(135,192,o),
(141,189,c),
(143,184,o),
(148,182,o),
(149,176,c),
(157,169,o),
(164,162,o),
(170,152,c),
(185,138,o),
(198,120,o),
(214,105,c),
(216,103,o),
(216,97,o),
(218,94,c),
(226,91,o),
(228,83,o),
(235,79,c),
(284,25,l),
(292,22,o),
(295,13,o),
(303,10,c),
(306,9,o),
(311,7,o),
(313,4,c),
(317,3,o),
(314,-7,o),
(321,-6,cs),
(334,-3,o),
(337,-10,o),
(349,-10,c),
(358,-5,o),
(364,-1,o),
(364,14,c),
(361,18,l)
);
}
);
width = 395;
}
);
unicode = 312;
},
{
glyphname = l;
kernLeft = h;
kernRight = l;
lastChange = "2025-01-06 14:17:27 +0000";
layers = (
{
anchors = (
{
name = bottom;
pos = (75,0);
},
{
name = center;
pos = (114,390);
},
{
name = top;
pos = (75,713);
},
{
name = topright;
pos = (132,713);
}
);
layerId = "C5490108-C233-4ADF-8B6D-CFE8E3B23812";
shapes = (
{
closed = 1;
nodes = (
(93,702,o),
(95,721,o),
(93,732,cs),
(92,736,o),
(89,739,o),
(86,743,c),
(75,747,o),
(62,743,o),
(54,739,c),
(53,733,o),
(51,728,o),
(51,722,cs),
(50,714,o),
(51,707,o),
(51,704,cs),
(50,682,o),
(48,660,o),
(49,643,cs),
(50,636,o),
(52,627,o),
(52,618,cs),
(52,600,o),
(51,582,o),
(51,563,cs),
(51,534,o),
(50,503,o),
(49,475,cs),
(48,448,o),
(48,414,o),
(49,382,cs),
(50,362,o),
(49,342,o),
(49,321,c),
(48,318,o),
(48,315,o),
(49,314,c),
(50,299,o),
(50,274,o),
(49,257,cs),
(48,248,o),
(46,239,o),
(44,231,c),
(44,224,o),
(46,217,o),
(46,210,cs),
(48,164,o),
(47,110,o),
(48,56,c),
(45,48,o),
(46,36,o),
(43,29,c),
(43,18,o),
(41,5,o),
(48,0,cs),
(65,-12,o),
(94,-1,o),
(92,25,cs),
(92,27,o),
(90,27,o),
(90,29,cs),
(82,86,o),
(90,140,o),
(86,186,cs),
(86,195,o),
(86,202,o),
(86,212,cs),
(86,220,o),
(86,230,o),
(88,238,c),
(88,261,o),
(91,284,o),
(91,306,cs),
(91,313,o),
(89,319,o),
(89,325,cs),
(89,333,o),
(90,338,o),
(92,345,c),
(91,351,o),
(88,355,o),
(88,361,c),
(90,368,o),
(91,375,o),
(91,384,cs),
(87,423,o),
(93,465,o),
(90,506,c),
(92,510,o),
(92,514,o),
(93,517,c),
(96,543,o),
(91,576,o),
(94,601,c),
(89,618,o),
(92,635,o),
(93,654,cs),
(93,685,ls)
);
}
);
width = 137;
}
);
unicode = 108;
},
{
glyphname = lslash;
kernLeft = lslash;
kernRight = lslash;
lastChange = "2025-01-06 14:17:27 +0000";
layers = (
{
layerId = "C5490108-C233-4ADF-8B6D-CFE8E3B23812";
shapes = (
{
closed = 1;
nodes = (
(105,386,o),
(98,385,o),
(90,383,c),
(75,373,o),
(58,371,o),
(43,361,c),
(31,344,o),
(39,322,o),
(52,306,c),
(62,304,o),
(75,310,o),
(86,308,c),
(92,313,o),
(100,317,o),
(108,321,c),
(105,307,l),
(106,210,ls),
(108,164,o),
(107,110,o),
(108,56,c),
(105,48,o),
(106,36,o),
(104,29,c),
(104,18,o),
(102,5,o),
(108,0,cs),
(125,-12,o),
(155,-1,o),
(153,25,cs),
(153,27,o),
(151,27,o),
(151,29,cs),
(143,86,o),
(151,140,o),
(147,186,cs),
(146,195,o),
(146,202,o),
(147,212,cs),
(147,239,o),
(146,306,o),
(149,314,c),
(149,336,l),
(157,337,o),
(162,338,o),
(169,343,c),
(183,350,o),
(197,351,o),
(210,355,c),
(229,365,o),
(247,375,o),
(265,383,c),
(264,386,o),
(267,388,o),
(267,390,c),
(271,402,o),
(268,415,o),
(264,420,cs),
(258,428,o),
(252,435,o),
(241,436,c),
(222,431,o),
(208,419,o),
(187,418,c),
(184,410,o),
(176,411,o),
(167,411,c),
(162,406,o),
(156,402,o),
(150,400,c),
(150,401,ls),
(150,409,o),
(151,414,o),
(153,421,c),
(152,427,o),
(149,431,o),
(149,437,c),
(151,444,o),
(152,461,o),
(152,441,c),
(148,480,o),
(154,474,o),
(151,516,c),
(153,520,o),
(153,523,o),
(154,526,c),
(157,553,o),
(152,585,o),
(155,611,c),
(150,627,o),
(153,635,o),
(154,654,cs),
(154,685,ls),
(154,702,o),
(156,721,o),
(154,732,cs),
(153,736,o),
(150,739,o),
(147,743,c),
(136,747,o),
(123,743,o),
(115,739,c),
(114,733,o),
(112,728,o),
(112,722,cs),
(111,714,o),
(112,707,o),
(112,704,cs),
(111,682,o),
(108,660,o),
(110,643,cs),
(111,636,o),
(113,627,o),
(113,618,cs),
(113,610,o),
(112,592,o),
(112,573,cs),
(112,543,o),
(111,512,o),
(110,485,c),
(108,477,o),
(108,500,o),
(110,458,cs),
(111,438,o),
(110,418,o),
(110,397,c),
(109,394,o),
(109,391,o),
(110,390,c),
(110,388,l)
);
}
);
width = 296;
}
);
unicode = 322;
},
{
glyphname = m;
kernLeft = n;
kernRight = n;
lastChange = "2025-01-06 14:17:27 +0000";
layers = (
{
anchors = (
{
name = bottom;
pos = (289,0);
},
{
name = top;
pos = (289,414);
}
);
layerId = "C5490108-C233-4ADF-8B6D-CFE8E3B23812";
shapes = (
{
closed = 1;
nodes = (
(271,147,o),
(269,144,o),
(269,142,cs),
(269,116,o),
(270,90,o),
(269,66,cs),
(269,56,o),
(268,47,o),
(267,37,cs),
(266,28,o),
(263,20,o),
(263,10,c),
(272,-3,o),
(299,-9,o),
(308,9,c),
(313,44,o),
(296,86,o),
(309,120,c),
(304,135,o),
(306,150,o),
(306,167,cs),
(306,176,l),
(307,180,o),
(306,184,o),
(306,188,cs),
(305,229,o),
(307,274,o),
(305,317,cs),
(305,323,o),
(302,326,o),
(302,332,c),
(305,338,o),
(301,352,o),
(305,357,c),
(314,356,o),
(318,359,o),
(324,360,cs),
(333,361,o),
(333,354,o),
(342,354,c),
(352,358,o),
(363,354,o),
(375,357,cs),
(381,358,o),
(383,353,o),
(390,354,cs),
(407,356,o),
(428,353,o),
(447,354,cs),
(462,355,o),
(477,360,o),
(487,352,c),
(495,325,o),
(485,287,o),
(493,261,c),
(493,256,o),
(487,254,o),
(489,247,cs),
(492,230,o),
(491,215,o),
(490,200,cs),
(490,194,o),
(488,187,o),
(489,181,cs),
(489,174,o),
(491,166,o),
(492,160,cs),
(494,120,o),
(491,82,o),
(492,42,c),
(489,32,o),
(485,27,o),
(487,16,c),
(494,10,o),
(511,8,o),
(521,10,c),
(527,13,o),
(532,20,o),
(534,29,c),
(527,45,o),
(526,69,o),
(529,89,cs),
(530,97,o),
(524,98,o),
(526,105,c),
(526,133,o),
(528,158,o),
(528,182,cs),
(527,201,o),
(524,221,o),
(529,240,c),
(525,258,o),
(528,277,o),
(528,297,cs),
(528,320,o),
(527,341,o),
(524,357,cs),
(523,368,o),
(530,371,o),
(529,380,c),
(523,388,o),
(514,394,o),
(503,398,c),
(490,398,o),
(479,396,o),
(466,396,cs),
(460,396,o),
(452,398,o),
(446,398,cs),
(436,398,o),
(428,395,o),
(418,395,cs),
(404,395,o),
(389,397,o),
(373,399,c),
(343,393,o),
(307,400,o),
(276,396,c),
(268,397,o),
(262,401,o),
(256,404,c),
(250,400,o),
(242,399,o),
(236,396,c),
(176,398,o),
(114,400,o),
(50,395,c),
(43,380,o),
(44,360,o),
(44,341,cs),
(45,320,o),
(43,299,o),
(44,279,cs),
(45,274,o),
(48,270,o),
(48,263,c),
(43,247,o),
(44,230,o),
(50,219,c),
(46,214,o),
(47,209,o),
(46,203,cs),
(43,179,o),
(45,151,o),
(46,131,cs),
(47,101,o),
(41,69,o),
(46,42,c),
(45,32,o),
(42,26,o),
(43,14,c),
(48,2,o),
(74,-4,o),
(85,7,c),
(87,18,o),
(86,27,o),
(85,37,c),
(86,49,o),
(84,67,o),
(85,76,cs),
(85,78,o),
(83,78,o),
(83,81,cs),
(80,144,o),
(83,197,o),
(82,256,cs),
(82,262,o),
(80,271,o),
(80,278,cs),
(80,285,o),
(83,292,o),
(83,299,cs),
(83,309,o),
(82,319,o),
(82,329,cs),
(82,337,o),
(79,348,o),
(85,356,c),
(92,360,o),
(102,354,o),
(111,356,c),
(118,355,o),
(127,355,o),
(136,352,c),
(156,352,o),
(175,355,o),
(191,352,c),
(205,358,o),
(226,355,o),
(241,352,cs),
(251,352,o),
(254,357,o),
(263,356,c),
(271,346,o),
(268,323,o),
(269,314,cs),
(270,291,o),
(266,269,o),
(269,251,c),
(268,246,o),
(266,243,o),
(266,238,c),
(272,226,o),
(267,214,o),
(267,201,cs),
(267,192,o),
(270,183,o),
(270,175,cs),
(270,151,l)
);
}
);
width = 577;
}
);
unicode = 109;
},
{
glyphname = n;
kernLeft = n;
kernRight = n;
lastChange = "2025-01-06 14:17:27 +0000";
layers = (
{
anchors = (
{
name = bottom;
pos = (189,0);
},
{
name = top;
pos = (189,414);
}
);
layerId = "C5490108-C233-4ADF-8B6D-CFE8E3B23812";
shapes = (
{
closed = 1;
nodes = (
(177,406,o),
(125,402,o),
(76,404,c),
(67,406,o),
(60,409,o),
(50,406,c),
(42,395,o),
(42,379,o),
(43,365,cs),
(44,358,o),
(46,353,o),
(47,349,c),
(47,336,o),
(44,325,o),
(43,313,cs),
(43,305,o),
(45,297,o),
(45,290,cs),
(45,262,o),
(42,233,o),
(43,204,c),
(45,198,o),
(48,193,o),
(49,185,c),
(47,174,o),
(45,162,o),
(43,151,c),
(43,143,o),
(48,141,o),
(48,133,cs),
(44,115,o),
(48,97,o),
(48,81,cs),
(48,72,o),
(45,65,o),
(45,56,cs),
(45,48,o),
(48,42,o),
(47,34,cs),
(46,25,o),
(41,15,o),
(45,6,c),
(55,-2,o),
(81,1,o),
(89,9,c),
(91,22,o),
(87,29,o),
(86,40,cs),
(83,60,o),
(86,80,o),
(86,100,cs),
(86,133,o),
(84,166,o),
(84,199,cs),
(84,209,o),
(86,219,o),
(86,229,cs),
(85,257,o),
(82,283,o),
(88,308,c),
(84,315,o),
(85,330,o),
(86,339,c),
(86,347,o),
(80,356,o),
(86,362,c),
(95,363,o),
(105,360,o),
(117,359,cs),
(151,357,ls),
(158,356,o),
(162,352,o),
(170,352,c),
(190,360,o),
(248,357,o),
(256,356,cs),
(272,354,o),
(278,363,o),
(292,359,c),
(298,352,o),
(297,342,o),
(296,331,c),
(297,298,o),
(292,269,o),
(297,240,c),
(295,185,o),
(297,132,o),
(297,82,c),
(294,64,l),
(295,58,o),
(295,49,o),
(295,42,cs),
(294,32,o),
(288,21,o),
(292,11,c),
(300,7,o),
(312,5,o),
(322,3,c),
(331,5,o),
(334,11,o),
(340,17,c),
(341,24,o),
(341,30,o),
(341,38,c),
(337,47,o),
(337,58,o),
(333,67,c),
(333,142,o),
(334,219,o),
(336,297,c),
(338,305,o),
(333,305,o),
(333,313,cs),
(336,326,o),
(335,342,o),
(335,359,cs),
(335,375,o),
(338,392,o),
(333,402,c),
(319,409,o),
(301,405,o),
(284,406,cs),
(270,406,o),
(255,408,o),
(242,409,c),
(223,404,l)
);
}
);
width = 384;
}
);
unicode = 110;
},
{
glyphname = nhookleft;
kernLeft = nhookleft;
kernRight = nhookleft;
lastChange = "2025-01-06 14:17:27 +0000";
layers = (
{
layerId = "C5490108-C233-4ADF-8B6D-CFE8E3B23812";
shapes = (
{
ref = n;
},
{
closed = 1;
nodes = (
(47,142,l),
(46,130,ls),
(44,120,o),
(44,114,o),
(45,109,c),
(46,83,l),
(45,76,ls),
(44,71,o),
(45,66,o),
(46,55,cs),
(47,48,l),
(47,13,l),
(46,-16,ls),
(44,-42,o),
(42,-60,o),
(46,-85,cs),
(47,-90,l),
(47,-123,l),
(45,-147,l),
(35,-164,l),
(16,-174,l),
(-5,-176,l),
(-27,-168,l),
(-49,-151,l),
(-56,-144,o),
(-62,-144,o),
(-63,-150,cs),
(-65,-158,o),
(-65,-164,o),
(-64,-175,cs),
(-63,-185,l),
(-64,-190,o),
(-63,-194,o),
(-62,-193,c),
(-49,-199,ls),
(-41,-203,o),
(-35,-206,o),
(-26,-208,cs),
(-16,-211,o),
(-11,-212,o),
(-8,-213,cs),
(4,-214,o),
(11,-214,o),
(22,-211,cs),
(34,-207,l),
(38,-205,ls),
(48,-201,o),
(54,-197,o),
(61,-190,cs),
(67,-184,o),
(72,-179,o),
(76,-171,cs),
(80,-164,o),
(82,-158,o),
(84,-146,cs),
(85,-137,l),
(85,-44,l),
(86,-20,l),
(85,3,l),
(84,9,l),
(84,36,ls),
(85,46,o),
(85,50,o),
(84,55,c),
(84,83,ls),
(85,92,o),
(85,98,o),
(84,105,c),
(84,133,l),
(85,142,l),
(86,166,l),
(85,181,o),
(83,188,o),
(80,187,c),
(51,187,l),
(49,188,l),
(48,188,o),
(47,180,o),
(47,165,cs)
);
}
);
width = 384;
}
);
unicode = 626;
},
{
glyphname = eng;
kernLeft = n;
kernRight = j;
lastChange = "2025-01-06 14:17:27 +0000";
layers = (
{
layerId = "C5490108-C233-4ADF-8B6D-CFE8E3B23812";
shapes = (
{
ref = n;
},
{
closed = 1;
nodes = (
(294,-9,l),
(293,-19,ls),
(292,-30,o),
(291,-35,o),
(292,-57,c),
(293,-82,l),
(292,-87,ls),
(291,-91,o),
(291,-95,o),
(292,-101,c),
(293,-127,l),
(288,-140,l),
(286,-147,l),
(274,-164,l),
(254,-171,l),
(227,-165,l),
(202,-147,l),
(196,-139,ls),
(192,-134,o),
(186,-144,o),
(186,-144,c),
(184,-154,o),
(184,-161,o),
(186,-171,cs),
(187,-177,l),
(187,-180,ls),
(187,-193,o),
(191,-200,o),
(199,-204,cs),
(206,-209,o),
(213,-212,o),
(223,-214,cs),
(238,-217,l),
(245,-218,ls),
(257,-218,o),
(264,-218,o),
(274,-215,cs),
(283,-212,o),
(289,-210,o),
(295,-206,cs),
(302,-203,o),
(307,-199,o),
(314,-193,cs),
(321,-186,o),
(326,-180,o),
(330,-172,cs),
(333,-164,o),
(333,-158,o),
(334,-146,cs),
(335,-137,l),
(336,-114,l),
(335,-93,l),
(336,-70,l),
(335,-31,l),
(335,12,ls),
(336,27,o),
(344,53,o),
(328,52,cs),
(303,50,ls),
(289,49,o),
(294,27,o),
(294,12,cs)
);
}
);
width = 384;
}
);
unicode = 331;
},
{
glyphname = o;
kernLeft = o;
kernRight = o;
lastChange = "2025-01-06 14:17:27 +0000";
layers = (
{
anchors = (
{
name = bottom;
pos = (241,0);
},
{
name = center;
pos = (241,207);
},
{
name = ogonek;
pos = (270,10);
},
{
name = top;
pos = (241,414);
},
{
name = topright;
pos = (327,401);
}
);
layerId = "C5490108-C233-4ADF-8B6D-CFE8E3B23812";
shapes = (
{
closed = 1;
nodes = (
(104,368,o),
(95,357,o),
(85,349,c),
(79,340,o),
(73,331,o),
(67,324,cs),
(64,319,o),
(59,314,o),
(59,307,c),
(46,295,o),
(46,269,o),
(38,251,c),
(36,233,o),
(38,210,o),
(33,194,c),
(35,186,o),
(35,176,o),
(35,165,c),
(41,146,o),
(47,126,o),
(56,110,cs),
(58,106,o),
(56,99,o),
(59,95,cs),
(63,88,o),
(67,83,o),
(69,74,c),
(78,66,o),
(89,59,o),
(98,50,cs),
(103,47,o),
(107,43,o),
(113,40,c),
(113,31,o),
(122,30,o),
(124,25,c),
(135,22,o),
(144,19,o),
(153,14,c),
(171,16,o),
(186,5,o),
(204,3,cs),
(211,2,o),
(219,3,o),
(225,3,cs),
(232,2,o),
(238,1,o),
(244,1,cs),
(261,2,o),
(276,8,o),
(294,6,c),
(314,10,o),
(334,16,o),
(351,25,cs),
(367,34,o),
(380,47,o),
(397,55,c),
(405,70,l),
(406,77,o),
(413,76,o),
(414,84,c),
(420,93,o),
(427,102,o),
(433,110,c),
(438,137,l),
(441,145,o),
(445,153,o),
(447,162,cs),
(451,197,ls),
(451,198,o),
(451,199,o),
(449,199,c),
(448,219,o),
(447,238,o),
(444,257,cs),
(442,276,o),
(430,288,o),
(428,307,c),
(419,314,o),
(413,325,o),
(408,336,c),
(404,336,o),
(405,340,o),
(404,342,c),
(392,356,o),
(374,364,o),
(365,378,c),
(350,383,o),
(341,394,o),
(327,401,c),
(312,406,o),
(297,411,o),
(280,414,c),
(273,411,o),
(265,411,o),
(255,412,cs),
(249,413,o),
(250,408,o),
(243,409,c),
(229,416,o),
(213,406,o),
(199,409,c),
(182,406,o),
(170,399,o),
(150,399,c),
(116,375,ls)
);
},
{
closed = 1;
nodes = (
(412,225,o),
(414,221,c),
(415,221,o),
(415,220,o),
(415,219,cs),
(413,205,o),
(408,195,o),
(409,178,c),
(406,163,o),
(399,152,o),
(396,137,c),
(388,131,o),
(382,122,o),
(378,110,c),
(370,103,o),
(361,95,o),
(355,85,c),
(350,83,o),
(347,79,o),
(343,74,c),
(334,73,o),
(328,69,o),
(322,64,c),
(309,60,o),
(296,55,o),
(285,48,c),
(267,50,o),
(255,47,o),
(240,45,cs),
(227,44,o),
(220,50,o),
(207,48,c),
(198,57,o),
(182,59,o),
(166,61,c),
(162,64,o),
(157,67,o),
(153,73,c),
(145,74,o),
(142,78,o),
(135,81,c),
(126,94,o),
(112,104,o),
(103,116,c),
(99,126,o),
(94,135,o),
(88,143,c),
(87,157,o),
(81,165,o),
(83,182,c),
(82,188,o),
(77,189,o),
(77,196,cs),
(78,212,o),
(83,232,o),
(77,247,c),
(79,251,o),
(79,255,o),
(80,258,cs),
(83,267,o),
(91,272,o),
(90,284,c),
(96,288,o),
(102,292,o),
(106,296,c),
(107,301,o),
(111,304,o),
(111,310,c),
(122,316,o),
(131,326,o),
(138,336,c),
(151,343,o),
(162,350,o),
(174,357,c),
(194,357,o),
(210,361,o),
(225,367,c),
(238,364,o),
(249,368,o),
(264,367,c),
(276,362,o),
(291,360,o),
(306,359,c),
(314,352,o),
(337,341,o),
(342,341,c),
(360,323,o),
(375,303,o),
(392,284,c),
(393,272,o),
(399,265,o),
(407,258,c),
(405,247,o),
(407,241,o),
(407,229,cs),
(407,224,o)
);
}
);
width = 485;
}
);
unicode = 111;
},
{
glyphname = oslash;
kernLeft = o;
kernRight = o;
lastChange = "2025-01-06 14:17:27 +0000";
layers = (
{
layerId = "C5490108-C233-4ADF-8B6D-CFE8E3B23812";
shapes = (
{
closed = 1;
nodes = (
(275,411,o),
(267,411,o),
(257,412,cs),
(251,413,o),
(252,408,o),
(245,409,c),
(231,416,o),
(215,406,o),
(200,409,c),
(184,406,o),
(172,399,o),
(152,399,c),
(118,375,ls),
(105,368,o),
(97,357,o),
(86,349,c),
(81,340,o),
(75,331,o),
(69,324,cs),
(66,319,o),
(61,314,o),
(61,307,c),
(48,295,o),
(48,269,o),
(40,251,c),
(38,233,o),
(40,210,o),
(35,194,c),
(37,186,o),
(37,176,o),
(37,165,c),
(43,146,o),
(48,126,o),
(58,110,cs),
(60,106,o),
(58,99,o),
(61,95,cs),
(65,88,o),
(69,83,o),
(71,74,c),
(80,66,o),
(91,59,o),
(100,50,cs),
(105,47,o),
(109,43,o),
(115,40,c),
(115,31,o),
(124,30,o),
(126,25,c),
(127,24,o),
(129,24,o),
(130,24,c),
(122,3,l),
(115,-8,o),
(109,-19,o),
(106,-29,c),
(102,-37,o),
(94,-43,o),
(92,-52,cs),
(89,-66,o),
(111,-69,o),
(130,-68,cs),
(150,-67,o),
(151,-68,o),
(162,-53,c),
(170,-47,o),
(167,-40,o),
(170,-34,c),
(175,-29,o),
(173,-21,o),
(176,-14,cs),
(181,-2,o),
(184,5,o),
(185,8,c),
(192,6,o),
(199,4,o),
(206,3,cs),
(213,2,o),
(220,3,o),
(227,3,cs),
(234,2,o),
(240,1,o),
(246,1,cs),
(263,2,o),
(278,8,o),
(295,6,c),
(316,10,o),
(336,16,o),
(352,25,cs),
(369,34,o),
(382,47,o),
(399,55,c),
(407,70,l),
(408,77,o),
(415,76,o),
(416,84,c),
(422,93,o),
(428,102,o),
(435,110,c),
(440,137,l),
(443,145,o),
(447,153,o),
(448,162,cs),
(453,197,ls),
(453,198,o),
(453,199,o),
(451,199,c),
(450,219,o),
(448,238,o),
(446,257,cs),
(444,276,o),
(432,288,o),
(429,307,c),
(421,314,o),
(415,325,o),
(409,336,c),
(406,336,o),
(407,340,o),
(406,342,c),
(394,356,o),
(376,364,o),
(367,378,c),
(360,380,o),
(355,382,o),
(351,386,c),
(352,387,o),
(352,388,o),
(352,389,c),
(349,390,o),
(356,398,o),
(356,400,c),
(359,409,o),
(360,412,o),
(360,414,c),
(361,415,o),
(364,421,o),
(373,443,c),
(383,455,o),
(392,475,o),
(387,483,c),
(378,487,o),
(364,485,o),
(352,485,cs),
(336,485,o),
(345,487,o),
(328,482,c),
(315,468,o),
(314,453,o),
(309,439,cs),
(307,433,o),
(304,422,o),
(299,410,c),
(282,414,l)
);
},
{
closed = 1;
nodes = (
(263,326,ls),
(259,310,o),
(247,295,o),
(245,279,c),
(234,264,o),
(232,248,o),
(222,233,c),
(213,198,o),
(188,152,o),
(173,118,cs),
(168,105,o),
(162,88,o),
(154,73,c),
(147,74,o),
(143,78,o),
(137,81,c),
(128,94,o),
(114,104,o),
(105,116,c),
(101,126,o),
(96,135,o),
(90,143,c),
(89,157,o),
(83,165,o),
(85,182,c),
(84,188,o),
(79,189,o),
(79,196,cs),
(80,212,o),
(85,232,o),
(79,247,c),
(81,251,o),
(81,255,o),
(82,258,cs),
(85,267,o),
(93,272,o),
(92,284,c),
(98,288,o),
(104,292,o),
(108,296,c),
(109,301,o),
(113,304,o),
(113,310,c),
(124,316,o),
(133,326,o),
(140,336,c),
(153,343,o),
(164,350,o),
(176,357,c),
(196,357,o),
(212,361,o),
(227,367,c),
(239,364,o),
(251,368,o),
(266,367,c),
(270,365,o),
(274,364,o),
(278,363,c),
(266,340,l)
);
},
{
closed = 1;
nodes = (
(211,67,o),
(218,80,o),
(224,94,cs),
(225,96,o),
(223,96,o),
(224,98,cs),
(230,108,o),
(238,121,o),
(239,131,c),
(249,150,o),
(257,171,o),
(266,193,cs),
(274,214,ls),
(276,219,o),
(282,227,o),
(285,233,cs),
(294,249,o),
(297,264,o),
(303,277,cs),
(310,295,o),
(314,310,o),
(325,325,c),
(325,325,o),
(329,333,o),
(333,344,c),
(338,342,o),
(342,341,o),
(344,341,c),
(362,323,o),
(377,303,o),
(394,284,c),
(395,272,o),
(401,265,o),
(409,258,c),
(407,247,o),
(409,241,o),
(409,229,cs),
(409,224,o),
(414,225,o),
(416,221,c),
(417,221,o),
(417,220,o),
(417,219,cs),
(415,205,o),
(409,195,o),
(411,178,c),
(408,163,o),
(401,152,o),
(398,137,c),
(390,131,o),
(384,122,o),
(380,110,c),
(371,103,o),
(363,95,o),
(357,85,c),
(352,83,o),
(349,79,o),
(345,74,c),
(336,73,o),
(330,69,o),
(324,64,c),
(311,60,o),
(298,55,o),
(287,48,c),
(269,50,o),
(257,47,o),
(242,45,cs),
(229,44,o),
(222,50,o),
(209,48,cs),
(208,48,o),
(207,49,o),
(206,50,c),
(208,53,l)
);
}
);
width = 497;
}
);
unicode = 248;
},
